STARTFONT 2.1
COMMENT
COMMENT Converted from OpenType font "Epilogue-ExtraBold.ttf" by "otf2bdf 3.0".
COMMENT
FONT -FreeType-Epilogue ExtraBold-Medium-R-Normal--25-180-100-100-P-138-ISO10646-1
SIZE 18 100 100
FONTBOUNDINGBOX 38 34 -6 -6
STARTPROPERTIES 19
FOUNDRY "FreeType"
FAMILY_NAME "Epilogue ExtraBold"
WEIGHT_NAME "Medium"
SLANT "R"
SETWIDTH_NAME "Normal"
ADD_STYLE_NAME ""
PIXEL_SIZE 25
POINT_SIZE 180
RESOLUTION_X 100
RESOLUTION_Y 100
SPACING "P"
AVERAGE_WIDTH 138
CHARSET_REGISTRY "ISO10646"
CHARSET_ENCODING "1"
FONT_ASCENT 19
FONT_DESCENT 5
COPYRIGHT "Copyright 2020 The Epilogue Project Authors (https://github.com/Etcetera-Type-Co/Epilogue)"
_OTF_FONTFILE "Epilogue-ExtraBold.ttf"
_OTF_PSNAME "Epilogue-ExtraBold"
ENDPROPERTIES
CHARS 689
STARTCHAR 000D
ENCODING 13
SWIDTH 440 0
DWIDTH 11 0
BBX 0 0 0 0
BITMAP
ENDCHAR
STARTCHAR 0020
ENCODING 32
SWIDTH 240 0
DWIDTH 6 0
BBX 0 0 0 0
BITMAP
ENDCHAR
STARTCHAR 0021
ENCODING 33
SWIDTH 320 0
DWIDTH 8 0
BBX 5 18 1 0
BITMAP
F8
F8
F8
70
70
70
70
70
70
70
70
70
70
00
70
F8
F8
70
ENDCHAR
STARTCHAR 0022
ENCODING 34
SWIDTH 440 0
DWIDTH 11 0
BBX 8 6 1 12
BITMAP
E7
E7
E7
E7
67
67
ENDCHAR
STARTCHAR 0023
ENCODING 35
SWIDTH 840 0
DWIDTH 21 0
BBX 19 18 1 0
BITMAP
03C780
038780
078700
078F00
078F00
7FFFE0
7FFFE0
0F1E00
0F1E00
0E1E00
FFFFC0
FFFFC0
FFFFC0
1C3C00
3C3C00
3C7800
3C7800
387800
ENDCHAR
STARTCHAR 0024
ENCODING 36
SWIDTH 600 0
DWIDTH 15 0
BBX 13 18 1 0
BITMAP
0600
0600
1FC0
7FE0
FFF0
FEF0
FE00
FF80
7FE0
1FF0
07F8
F6F8
FFF0
7FF0
3FE0
0600
0600
0600
ENDCHAR
STARTCHAR 0025
ENCODING 37
SWIDTH 640 0
DWIDTH 16 0
BBX 15 19 1 0
BITMAP
1000
7C04
CE0E
C61C
C638
FC30
7860
00C0
01C0
0380
0700
0E00
0C10
18FC
38CE
70C6
E0C6
C0FC
4078
ENDCHAR
STARTCHAR 0026
ENCODING 38
SWIDTH 760 0
DWIDTH 19 0
BBX 16 19 1 0
BITMAP
0300
0FE0
1FF0
3CF0
3C70
3C70
3CF0
1FE0
0FC0
1F80
3FC7
7FC7
F9EF
F0FF
F07E
F87E
FFFF
7FFF
1FEF
ENDCHAR
STARTCHAR 0027
ENCODING 39
SWIDTH 200 0
DWIDTH 5 0
BBX 3 6 1 12
BITMAP
E0
E0
E0
E0
E0
E0
ENDCHAR
STARTCHAR 0028
ENCODING 40
SWIDTH 440 0
DWIDTH 11 0
BBX 9 27 2 -6
BITMAP
0200
0700
0F80
1E00
3E00
3C00
7C00
7800
7800
7800
F000
F000
F000
F000
F000
F000
7000
7800
7800
7800
3C00
3C00
3E00
1F00
0F80
0700
0200
ENDCHAR
STARTCHAR 0029
ENCODING 41
SWIDTH 440 0
DWIDTH 11 0
BBX 8 27 1 -6
BITMAP
20
70
F8
78
3C
3E
1E
1E
0F
0F
0F
0F
0F
0F
0F
0F
0F
0F
0F
1E
1E
3C
3C
78
F8
70
20
ENDCHAR
STARTCHAR 002A
ENCODING 42
SWIDTH 440 0
DWIDTH 11 0
BBX 9 7 1 12
BITMAP
1C00
0C00
6F00
FF80
1E00
7700
3200
ENDCHAR
STARTCHAR 002B
ENCODING 43
SWIDTH 640 0
DWIDTH 16 0
BBX 10 9 3 2
BITMAP
0E00
0E00
0E00
FFC0
FFC0
FFC0
0E00
0E00
0E00
ENDCHAR
STARTCHAR 002C
ENCODING 44
SWIDTH 320 0
DWIDTH 8 0
BBX 5 8 1 -4
BITMAP
70
F8
F8
78
18
18
30
60
ENDCHAR
STARTCHAR 002D
ENCODING 45
SWIDTH 440 0
DWIDTH 11 0
BBX 9 2 1 6
BITMAP
FF80
FF80
ENDCHAR
STARTCHAR 002E
ENCODING 46
SWIDTH 320 0
DWIDTH 8 0
BBX 4 4 2 0
BITMAP
E0
F0
F0
F0
ENDCHAR
STARTCHAR 002F
ENCODING 47
SWIDTH 440 0
DWIDTH 11 0
BBX 11 22 0 -2
BITMAP
01E0
01C0
03C0
03C0
0380
0780
0780
0700
0F00
0F00
0E00
0E00
1E00
1E00
1C00
3C00
3C00
3800
7800
7800
7000
F000
ENDCHAR
STARTCHAR 0030
ENCODING 48
SWIDTH 600 0
DWIDTH 15 0
BBX 13 19 1 0
BITMAP
0700
1FC0
3FE0
7FF0
78F0
F8F8
F078
F078
F078
F078
F078
F078
F078
F0F8
F8F8
78F0
7FF0
3FE0
1FC0
ENDCHAR
STARTCHAR 0031
ENCODING 49
SWIDTH 480 0
DWIDTH 12 0
BBX 8 18 1 0
BITMAP
3F
FF
FF
FF
0F
0F
0F
0F
0F
0F
0F
0F
0F
0F
0F
0F
0F
0F
ENDCHAR
STARTCHAR 0032
ENCODING 50
SWIDTH 640 0
DWIDTH 16 0
BBX 13 19 1 0
BITMAP
0780
3FE0
7FF0
7FF8
F878
F078
F078
0078
00F8
01F0
03E0
07C0
1F80
3F00
7E00
F800
FFF8
FFF8
FFF8
ENDCHAR
STARTCHAR 0033
ENCODING 51
SWIDTH 640 0
DWIDTH 16 0
BBX 14 19 1 0
BITMAP
0780
3FF0
7FF8
7FF8
F878
F87C
0078
00F8
03F0
03E0
03F0
00F8
0078
F87C
F878
F8F8
7FF8
3FF0
1FE0
ENDCHAR
STARTCHAR 0034
ENCODING 52
SWIDTH 640 0
DWIDTH 16 0
BBX 15 18 0 0
BITMAP
03F8
03F8
07F8
07F8
0FF8
0FF8
1EF8
1EF8
3CF8
7CF8
78F8
FFFE
FFFE
FFFE
FFFE
00F8
00F8
00F8
ENDCHAR
STARTCHAR 0035
ENCODING 53
SWIDTH 640 0
DWIDTH 16 0
BBX 13 18 1 0
BITMAP
3FF8
3FF8
7FF8
7800
7800
7800
7BC0
7FF0
FFF8
FCF8
0878
0078
F878
F878
F8F8
7FF0
3FF0
1FC0
ENDCHAR
STARTCHAR 0036
ENCODING 54
SWIDTH 640 0
DWIDTH 16 0
BBX 14 19 1 0
BITMAP
0780
1FE0
3FF0
3FF8
7C78
7878
7800
F880
FFF0
FFF8
FFF8
F878
F87C
787C
7878
7CF8
3FF8
3FF0
0FE0
ENDCHAR
STARTCHAR 0037
ENCODING 55
SWIDTH 560 0
DWIDTH 14 0
BBX 12 18 1 0
BITMAP
FFF0
FFF0
FFF0
01E0
03E0
07C0
0780
0F80
0F80
0F00
1F00
1F00
1F00
1E00
1E00
1E00
1E00
1E00
ENDCHAR
STARTCHAR 0038
ENCODING 56
SWIDTH 680 0
DWIDTH 17 0
BBX 14 19 1 0
BITMAP
0780
1FF0
3FF8
7FF8
7C7C
787C
787C
7CF8
3FF0
1FE0
3FF8
7C7C
787C
F83C
F87C
7C7C
7FF8
3FF8
1FE0
ENDCHAR
STARTCHAR 0039
ENCODING 57
SWIDTH 640 0
DWIDTH 16 0
BBX 13 19 1 0
BITMAP
0780
1FE0
7FF0
7FF0
F8F8
F878
F878
F878
F8F8
7FF8
7FF8
1F78
0078
0078
78F8
78F0
7FF0
3FE0
1FC0
ENDCHAR
STARTCHAR 003A
ENCODING 58
SWIDTH 320 0
DWIDTH 8 0
BBX 4 13 2 0
BITMAP
E0
F0
F0
F0
00
00
00
00
00
E0
F0
F0
F0
ENDCHAR
STARTCHAR 003B
ENCODING 59
SWIDTH 320 0
DWIDTH 8 0
BBX 4 17 2 -4
BITMAP
E0
F0
F0
F0
00
00
00
00
00
F0
F0
F0
F0
30
30
60
C0
ENDCHAR
STARTCHAR 003C
ENCODING 60
SWIDTH 640 0
DWIDTH 16 0
BBX 9 12 4 1
BITMAP
0080
0380
0F80
1F80
7E00
F800
E000
FC00
7F00
1F80
0780
0180
ENDCHAR
STARTCHAR 003D
ENCODING 61
SWIDTH 640 0
DWIDTH 16 0
BBX 10 7 3 3
BITMAP
FFC0
FFC0
0000
0000
FFC0
FFC0
FFC0
ENDCHAR
STARTCHAR 003E
ENCODING 62
SWIDTH 640 0
DWIDTH 16 0
BBX 9 12 4 1
BITMAP
8000
C000
F000
FC00
7F00
0F80
0780
1F80
7E00
F800
F000
C000
ENDCHAR
STARTCHAR 003F
ENCODING 63
SWIDTH 560 0
DWIDTH 14 0
BBX 12 19 1 0
BITMAP
0600
3FC0
7FE0
7DF0
F0F0
F0F0
00F0
00F0
01E0
03E0
07C0
0780
0F00
0F00
0000
0700
0F00
0F80
0F00
ENDCHAR
STARTCHAR 0040
ENCODING 64
SWIDTH 1000 0
DWIDTH 25 0
BBX 22 19 1 0
BITMAP
003E00
03FFC0
0FF7F0
1E0078
3C003C
78FF9C
71FF1C
F3C71C
E3871C
E78E1C
E78E1C
E78E38
E39E78
E3FFF0
F1F7C0
780000
3C01C0
1FFFE0
07FF80
ENDCHAR
STARTCHAR 0041
ENCODING 65
SWIDTH 680 0
DWIDTH 17 0
BBX 16 18 1 0
BITMAP
0FE0
0FF0
1FF0
1EF0
1EF0
1EF8
3EF8
3C78
3C78
3C7C
7C7C
7FFC
7FFC
7FFC
F83E
F83E
F01E
F01F
ENDCHAR
STARTCHAR 0042
ENCODING 66
SWIDTH 640 0
DWIDTH 16 0
BBX 14 18 1 0
BITMAP
FFF0
FFF8
FFFC
F87C
F87C
F87C
F8F8
FFF0
FFE0
FFF8
F8FC
F83C
F83C
F83C
F8FC
FFFC
FFF8
FFE0
ENDCHAR
STARTCHAR 0043
ENCODING 67
SWIDTH 720 0
DWIDTH 18 0
BBX 16 19 1 0
BITMAP
03C0
0FF8
1FFC
3FFE
7C3E
781F
F81F
F800
F800
F000
F000
F800
F80F
F81F
7C1F
7E3E
3FFE
1FFC
0FF0
ENDCHAR
STARTCHAR 0044
ENCODING 68
SWIDTH 680 0
DWIDTH 17 0
BBX 15 18 1 0
BITMAP
FFE0
FFF0
FFF8
F8FC
F87C
F83E
F83E
F81E
F81E
F81E
F83E
F83E
F83E
F87C
F9FC
FFF8
FFF0
FFC0
ENDCHAR
STARTCHAR 0045
ENCODING 69
SWIDTH 560 0
DWIDTH 14 0
BBX 12 18 1 0
BITMAP
FFF0
FFF0
FFF0
F800
F800
F800
F800
FFE0
FFE0
FFE0
F800
F800
F800
F800
F800
FFF0
FFF0
FFF0
ENDCHAR
STARTCHAR 0046
ENCODING 70
SWIDTH 560 0
DWIDTH 14 0
BBX 12 18 1 0
BITMAP
FFF0
FFF0
FFF0
F800
F800
F800
F800
FFE0
FFE0
FFE0
FFE0
F800
F800
F800
F800
F800
F800
F800
ENDCHAR
STARTCHAR 0047
ENCODING 71
SWIDTH 720 0
DWIDTH 18 0
BBX 16 19 1 0
BITMAP
01E0
0FF8
1FFC
3FFE
7C3E
781F
F81F
F800
F800
F000
F0FF
F8FF
F8FF
F80F
7C1F
7E3F
3FFF
1FFF
0FF7
ENDCHAR
STARTCHAR 0048
ENCODING 72
SWIDTH 720 0
DWIDTH 18 0
BBX 16 18 1 0
BITMAP
F81F
F81F
F81F
F81F
F81F
F81F
F81F
FFFF
FFFF
FFFF
FFFF
F81F
F81F
F81F
F81F
F81F
F81F
F81F
ENDCHAR
STARTCHAR 0049
ENCODING 73
SWIDTH 280 0
DWIDTH 7 0
BBX 5 18 1 0
BITMAP
F8
F8
F8
F8
F8
F8
F8
F8
F8
F8
F8
F8
F8
F8
F8
F8
F8
F8
ENDCHAR
STARTCHAR 004A
ENCODING 74
SWIDTH 600 0
DWIDTH 15 0
BBX 12 18 1 0
BITMAP
00F0
00F0
00F0
00F0
00F0
00F0
00F0
00F0
00F0
00F0
00F0
F0F0
F0F0
F0F0
F9F0
FFF0
7FE0
3FC0
ENDCHAR
STARTCHAR 004B
ENCODING 75
SWIDTH 680 0
DWIDTH 17 0
BBX 16 18 1 0
BITMAP
F83E
F87C
F8F8
F8F0
F9F0
FBE0
FBC0
FF80
FFC0
FFC0
FFE0
FDF0
FCF0
F8F8
F87C
F87C
F83E
F83F
ENDCHAR
STARTCHAR 004C
ENCODING 76
SWIDTH 560 0
DWIDTH 14 0
BBX 12 18 1 0
BITMAP
F800
F800
F800
F800
F800
F800
F800
F800
F800
F800
F800
F800
F800
F800
FFF0
FFF0
FFF0
FFF0
ENDCHAR
STARTCHAR 004D
ENCODING 77
SWIDTH 960 0
DWIDTH 24 0
BBX 20 18 2 0
BITMAP
FE0FF0
FE0FF0
FF0FF0
FF0FF0
FF0FF0
FF0EF0
F71EF0
F79EF0
F79EF0
F79EF0
F39CF0
F3BCF0
F3BCF0
F3FCF0
F3FCF0
F1F8F0
F1F8F0
F1F8F0
ENDCHAR
STARTCHAR 004E
ENCODING 78
SWIDTH 760 0
DWIDTH 19 0
BBX 16 18 1 0
BITMAP
FF0F
FF0F
FF0F
FF8F
FF8F
FF8F
FBCF
FBCF
FBCF
F9EF
F9EF
F9EF
F8FF
F8FF
F8FF
F87F
F87F
F87F
ENDCHAR
STARTCHAR 004F
ENCODING 79
SWIDTH 760 0
DWIDTH 19 0
BBX 17 19 1 0
BITMAP
01E000
0FF800
1FFC00
3FFE00
7C1F00
780F00
F80F80
F80F80
F80780
F00780
F00780
F80F80
F80F80
F80F80
7C1F00
7E3F00
3FFE00
1FFC00
07F000
ENDCHAR
STARTCHAR 0050
ENCODING 80
SWIDTH 640 0
DWIDTH 16 0
BBX 14 18 1 0
BITMAP
FFE0
FFF0
FFF8
F8FC
F87C
F87C
F87C
F87C
F8F8
FFF8
FFF0
FFE0
F800
F800
F800
F800
F800
F800
ENDCHAR
STARTCHAR 0051
ENCODING 81
SWIDTH 760 0
DWIDTH 19 0
BBX 17 24 1 -5
BITMAP
01E000
0FF800
1FFC00
3FFE00
7C1F00
780F00
F80F80
F80F80
F80780
F00780
F00780
F80F80
F80F80
F80F80
7C1F00
7E3F00
3FFE00
1FFC00
07F000
01E000
01FC00
01F800
007800
001000
ENDCHAR
STARTCHAR 0052
ENCODING 82
SWIDTH 640 0
DWIDTH 16 0
BBX 14 18 1 0
BITMAP
FFF0
FFF8
FFFC
F87C
F83C
F83C
F87C
F8F8
FFF8
FFF0
FFF8
F87C
F87C
F87C
F87C
F87C
F87C
F83C
ENDCHAR
STARTCHAR 0053
ENCODING 83
SWIDTH 640 0
DWIDTH 16 0
BBX 14 19 1 0
BITMAP
0780
3FF0
7FF8
FFF8
F87C
F07C
F800
FC00
7F80
3FE0
1FF8
03F8
00FC
F07C
F83C
FC7C
7FF8
7FF8
1FE0
ENDCHAR
STARTCHAR 0054
ENCODING 84
SWIDTH 600 0
DWIDTH 15 0
BBX 13 18 1 0
BITMAP
FFF8
FFF8
FFF8
0F80
0F80
0F80
0F80
0F80
0F80
0F80
0F80
0F80
0F80
0F80
0F80
0F80
0F80
0F80
ENDCHAR
STARTCHAR 0055
ENCODING 85
SWIDTH 680 0
DWIDTH 17 0
BBX 15 18 1 0
BITMAP
F83E
F83E
F83E
F83E
F83E
F83E
F83E
F83E
F83E
F83E
F83E
F83E
F83E
783C
7C7C
7FFC
3FF8
0FE0
ENDCHAR
STARTCHAR 0056
ENCODING 86
SWIDTH 680 0
DWIDTH 17 0
BBX 15 18 1 0
BITMAP
F83E
F83E
F83C
787C
787C
7C7C
7C78
7C78
3CF8
3CF8
3EF8
3EF0
1EF0
1EF0
1FF0
1FE0
0FE0
0FE0
ENDCHAR
STARTCHAR 0057
ENCODING 87
SWIDTH 960 0
DWIDTH 24 0
BBX 22 18 1 0
BITMAP
F8FC3C
F8FC3C
F8FC3C
F8FE7C
78FE7C
79FE7C
79FE78
79EE78
79EE78
79CF78
7DCF78
3FCF78
3FCF78
3FCFF0
3FC7F0
3FC7F0
3FC7F0
3F87F0
ENDCHAR
STARTCHAR 0058
ENCODING 88
SWIDTH 680 0
DWIDTH 17 0
BBX 17 18 0 0
BITMAP
7C1F00
3E1E00
3E3E00
1E3C00
1F7C00
0F7800
0FF800
07F000
07F000
07F000
07F000
0FF800
0F7C00
1F7C00
3E3E00
3E3E00
7C1F00
FC1F80
ENDCHAR
STARTCHAR 0059
ENCODING 89
SWIDTH 640 0
DWIDTH 16 0
BBX 15 18 1 0
BITMAP
F83E
F87C
787C
7C78
3CF8
3EF0
1FF0
1FE0
0FE0
0FC0
0FC0
07C0
0780
0780
0780
0780
0780
0780
ENDCHAR
STARTCHAR 005A
ENCODING 90
SWIDTH 600 0
DWIDTH 15 0
BBX 13 18 1 0
BITMAP
7FF8
7FF8
7FF8
01F0
01F0
03E0
03C0
07C0
0F80
0F00
1F00
3E00
3C00
7C00
F800
FFF8
FFF8
FFF8
ENDCHAR
STARTCHAR 005B
ENCODING 91
SWIDTH 440 0
DWIDTH 11 0
BBX 8 26 2 -5
BITMAP
FF
FF
FF
F0
F0
F0
F0
F0
F0
F0
F0
F0
F0
F0
F0
F0
F0
F0
F0
F0
F0
F0
F0
FF
FF
FF
ENDCHAR
STARTCHAR 005C
ENCODING 92
SWIDTH 440 0
DWIDTH 11 0
BBX 11 22 0 -2
BITMAP
F000
7000
7800
7800
3800
3800
3C00
3C00
1C00
1E00
1E00
0E00
0F00
0F00
0700
0780
0780
0380
0380
03C0
01C0
01E0
ENDCHAR
STARTCHAR 005D
ENCODING 93
SWIDTH 440 0
DWIDTH 11 0
BBX 8 26 2 -5
BITMAP
FF
FF
FF
0F
0F
0F
0F
0F
0F
0F
0F
0F
0F
0F
0F
0F
0F
0F
0F
0F
0F
0F
0F
FF
FF
FF
ENDCHAR
STARTCHAR 005E
ENCODING 94
SWIDTH 640 0
DWIDTH 16 0
BBX 12 8 2 11
BITMAP
0F00
0F00
1F80
1FC0
39C0
39E0
70E0
F0F0
ENDCHAR
STARTCHAR 005F
ENCODING 95
SWIDTH 680 0
DWIDTH 17 0
BBX 16 3 0 -4
BITMAP
FFFF
FFFF
FFFF
ENDCHAR
STARTCHAR 0060
ENCODING 96
SWIDTH 360 0
DWIDTH 9 0
BBX 6 3 2 15
BITMAP
F0
78
3C
ENDCHAR
STARTCHAR 0061
ENCODING 97
SWIDTH 640 0
DWIDTH 16 0
BBX 14 14 1 0
BITMAP
0200
3FE0
7FF8
FFF8
F87C
007C
1FFC
7FFC
FF7C
F07C
F8FC
FFFC
FFFC
3F3C
ENDCHAR
STARTCHAR 0062
ENCODING 98
SWIDTH 680 0
DWIDTH 17 0
BBX 15 20 1 0
BITMAP
F800
F800
F800
F800
F800
F800
F880
FBF0
FFF8
FFFC
FC7E
F83E
F83E
F83E
F83E
F83E
FFFE
FFFC
FFF8
FBF0
ENDCHAR
STARTCHAR 0063
ENCODING 99
SWIDTH 640 0
DWIDTH 16 0
BBX 14 14 1 0
BITMAP
0100
1FE0
3FF8
7FF8
F87C
F83C
F000
F000
F000
F83C
FC7C
7FF8
3FF0
1FE0
ENDCHAR
STARTCHAR 0064
ENCODING 100
SWIDTH 680 0
DWIDTH 17 0
BBX 14 20 1 0
BITMAP
003C
003C
003C
003C
003C
003C
043C
1FBC
7FFC
7FFC
FC7C
F83C
F03C
F03C
F03C
F87C
FFFC
7FFC
3FFC
1FBC
ENDCHAR
STARTCHAR 0065
ENCODING 101
SWIDTH 640 0
DWIDTH 16 0
BBX 15 14 1 0
BITMAP
0100
1FE0
3FF8
7FF8
F87C
F03C
FFFE
FFFE
FFFE
F800
F87C
7FFC
3FF8
1FE0
ENDCHAR
STARTCHAR 0066
ENCODING 102
SWIDTH 440 0
DWIDTH 11 0
BBX 11 20 0 0
BITMAP
01E0
07E0
0FE0
1FE0
1F00
1E00
1E00
FFE0
FFE0
FFE0
1E00
1E00
1E00
1E00
1E00
1E00
1E00
1E00
1E00
1E00
ENDCHAR
STARTCHAR 0067
ENCODING 103
SWIDTH 640 0
DWIDTH 16 0
BBX 16 20 0 -6
BITMAP
0100
1FEF
3FFE
7FFE
7C3E
783C
783C
7EFC
3FF8
3FF0
7FC0
7800
7FF0
3FFC
07FE
F81E
F83E
7FFC
3FF8
0FC0
ENDCHAR
STARTCHAR 0068
ENCODING 104
SWIDTH 640 0
DWIDTH 16 0
BBX 14 20 1 0
BITMAP
F800
F800
F800
F800
F800
F800
F840
FBF8
FFF8
FFFC
FC7C
F87C
F83C
F83C
F83C
F83C
F83C
F83C
F83C
F83C
ENDCHAR
STARTCHAR 0069
ENCODING 105
SWIDTH 280 0
DWIDTH 7 0
BBX 5 19 1 0
BITMAP
F0
F8
F8
70
00
00
F8
F8
F8
F8
F8
F8
F8
F8
F8
F8
F8
F8
F8
ENDCHAR
STARTCHAR 006A
ENCODING 106
SWIDTH 280 0
DWIDTH 7 0
BBX 8 25 -2 -6
BITMAP
0E
1F
1F
0E
00
00
1F
1F
1F
1F
1F
1F
1F
1F
1F
1F
1F
1F
1F
1F
1F
BF
FE
FC
F0
ENDCHAR
STARTCHAR 006B
ENCODING 107
SWIDTH 600 0
DWIDTH 15 0
BBX 14 20 1 0
BITMAP
F800
F800
F800
F800
F800
F800
F804
F8F8
FBF0
FFE0
FFC0
FF80
FF80
FFC0
FBC0
FBE0
F9E0
F8F0
F8F8
F87C
ENDCHAR
STARTCHAR 006C
ENCODING 108
SWIDTH 280 0
DWIDTH 7 0
BBX 4 20 2 0
BITMAP
F0
F0
F0
F0
F0
F0
F0
F0
F0
F0
F0
F0
F0
F0
F0
F0
F0
F0
F0
F0
ENDCHAR
STARTCHAR 006D
ENCODING 109
SWIDTH 960 0
DWIDTH 24 0
BBX 21 14 1 0
BITMAP
008040
FBF3F0
FFFFF8
FFFFF8
FCFCF8
F87878
F87878
F87878
F87878
F87878
F87878
F87878
F87878
F87878
ENDCHAR
STARTCHAR 006E
ENCODING 110
SWIDTH 640 0
DWIDTH 16 0
BBX 14 14 1 0
BITMAP
0040
FBF8
FFF8
FFFC
FCFC
F87C
F83C
F83C
F83C
F83C
F83C
F83C
F83C
F83C
ENDCHAR
STARTCHAR 006F
ENCODING 111
SWIDTH 640 0
DWIDTH 16 0
BBX 15 14 1 0
BITMAP
0100
1FE0
3FF8
7FF8
F87C
F83C
F03E
F03E
F03E
F83C
FCFC
7FF8
3FF0
1FE0
ENDCHAR
STARTCHAR 0070
ENCODING 112
SWIDTH 680 0
DWIDTH 17 0
BBX 15 19 1 -5
BITMAP
0080
FBF0
FFF8
FFFC
FC7E
F83E
F83E
F83E
F83E
F83E
FFFE
FFFC
FFF8
FBF0
F800
F800
F800
F800
F800
ENDCHAR
STARTCHAR 0071
ENCODING 113
SWIDTH 680 0
DWIDTH 17 0
BBX 14 19 1 -5
BITMAP
0400
1FBC
7FFC
7FFC
FC7C
F83C
F03C
F03C
F03C
F87C
FFFC
7FFC
3FFC
1FBC
003C
003C
003C
003C
003C
ENDCHAR
STARTCHAR 0072
ENCODING 114
SWIDTH 480 0
DWIDTH 12 0
BBX 11 14 1 0
BITMAP
00A0
FBC0
FFC0
FFC0
FF40
FC00
F800
F800
F800
F800
F800
F800
F800
F800
ENDCHAR
STARTCHAR 0073
ENCODING 115
SWIDTH 560 0
DWIDTH 14 0
BBX 12 14 1 0
BITMAP
0200
3FC0
7FE0
FFF0
F0F0
F800
FFC0
7FE0
0FF0
00F0
F0F0
FFF0
7FE0
3FC0
ENDCHAR
STARTCHAR 0074
ENCODING 116
SWIDTH 480 0
DWIDTH 12 0
BBX 12 18 0 0
BITMAP
1F00
1F00
1F00
1F00
3F00
FFF0
FFF0
FFF0
1F00
1F00
1F00
1F00
1F00
1F00
1F00
1FC0
0FC0
07C0
ENDCHAR
STARTCHAR 0075
ENCODING 117
SWIDTH 640 0
DWIDTH 16 0
BBX 14 13 1 0
BITMAP
F87C
F87C
F87C
F87C
F87C
F87C
F87C
F87C
F87C
7FFC
7FFC
7FFC
3F7C
ENDCHAR
STARTCHAR 0076
ENCODING 118
SWIDTH 560 0
DWIDTH 14 0
BBX 14 13 0 0
BITMAP
F87C
787C
7878
7C78
3CF8
3CF0
3CF0
1EF0
1EF0
1FE0
1FE0
0FE0
0FC0
ENDCHAR
STARTCHAR 0077
ENCODING 119
SWIDTH 840 0
DWIDTH 21 0
BBX 21 13 0 0
BITMAP
F8F8F8
78F8F0
78F8F0
79FCF0
79DCF0
7DDDF0
3DDDE0
3DDDE0
3FDFE0
3FDFE0
3F8FE0
3F8FC0
1F8FC0
ENDCHAR
STARTCHAR 0078
ENCODING 120
SWIDTH 600 0
DWIDTH 15 0
BBX 15 13 0 0
BITMAP
FC3E
3C7C
3EF8
1FF0
0FE0
0FE0
07C0
0FE0
0FF0
1EF0
3EF8
7C7C
F83E
ENDCHAR
STARTCHAR 0079
ENCODING 121
SWIDTH 560 0
DWIDTH 14 0
BBX 14 19 0 -6
BITMAP
F87C
787C
7C78
3C78
3CF8
3CF0
1EF0
1EF0
1EE0
0FE0
0FE0
0FC0
07C0
07C0
0F80
7F80
7F00
7E00
7800
ENDCHAR
STARTCHAR 007A
ENCODING 122
SWIDTH 520 0
DWIDTH 13 0
BBX 11 13 1 0
BITMAP
FFE0
FFE0
FFE0
03E0
07C0
0F80
1F00
3E00
7C00
F800
FFE0
FFE0
FFE0
ENDCHAR
STARTCHAR 007B
ENCODING 123
SWIDTH 440 0
DWIDTH 11 0
BBX 9 27 1 -6
BITMAP
0780
1F80
1F80
1F00
1E00
1E00
1E00
1E00
1E00
1E00
3E00
7E00
FC00
F800
FC00
3E00
1E00
1E00
1E00
1E00
1E00
1E00
1E00
1F00
1F80
0F80
0380
ENDCHAR
STARTCHAR 007C
ENCODING 124
SWIDTH 320 0
DWIDTH 8 0
BBX 4 23 2 -4
BITMAP
F0
F0
F0
F0
F0
F0
F0
F0
F0
F0
F0
F0
F0
F0
F0
F0
F0
F0
F0
F0
F0
F0
F0
ENDCHAR
STARTCHAR 007D
ENCODING 125
SWIDTH 440 0
DWIDTH 11 0
BBX 9 27 1 -6
BITMAP
F000
F800
FC00
7C00
3C00
3C00
3C00
3C00
3C00
3C00
3E00
3F00
1F80
0F80
1F80
3E00
3C00
3C00
3C00
3C00
3C00
3C00
3C00
7C00
FC00
F800
E000
ENDCHAR
STARTCHAR 007E
ENCODING 126
SWIDTH 640 0
DWIDTH 16 0
BBX 8 3 4 6
BITMAP
FB
FF
CE
ENDCHAR
STARTCHAR 00A0
ENCODING 160
SWIDTH 240 0
DWIDTH 6 0
BBX 0 0 0 0
BITMAP
ENDCHAR
STARTCHAR 00A1
ENCODING 161
SWIDTH 320 0
DWIDTH 8 0
BBX 4 19 2 -5
BITMAP
20
F0
F0
F0
60
00
60
60
70
70
F0
F0
F0
F0
F0
F0
F0
F0
F0
ENDCHAR
STARTCHAR 00A2
ENCODING 162
SWIDTH 640 0
DWIDTH 16 0
BBX 14 18 1 0
BITMAP
0300
0300
0FE0
3FF0
7FF8
FFFC
FB7C
F300
F300
F300
FB3C
FB7C
7FF8
3FF8
1FF0
0380
0300
0300
ENDCHAR
STARTCHAR 00A3
ENCODING 163
SWIDTH 640 0
DWIDTH 16 0
BBX 13 19 1 0
BITMAP
0300
1FE0
3FF0
7FF8
7830
7800
7800
7800
7800
FF80
FF80
FF80
3C00
3C00
3C00
7F10
FFF0
FFF8
73F8
ENDCHAR
STARTCHAR 00A4
ENCODING 164
SWIDTH 680 0
DWIDTH 17 0
BBX 16 15 1 1
BITMAP
4386
FFFF
FFFE
7FFC
7C3E
783E
F81E
F81E
F83E
783E
7E7C
7FFE
FFFF
EFE7
4002
ENDCHAR
STARTCHAR 00A5
ENCODING 165
SWIDTH 640 0
DWIDTH 16 0
BBX 15 18 1 0
BITMAP
F83E
F87C
787C
7C78
3CF8
3EF0
1FF0
1FE0
0FE0
7FF8
7FF8
7FF8
0780
7FF8
7FF8
7FF8
0780
0780
ENDCHAR
STARTCHAR 00A6
ENCODING 166
SWIDTH 320 0
DWIDTH 8 0
BBX 4 22 2 -3
BITMAP
F0
F0
F0
F0
F0
F0
F0
F0
F0
00
00
00
00
F0
F0
F0
F0
F0
F0
F0
F0
F0
ENDCHAR
STARTCHAR 00A7
ENCODING 167
SWIDTH 640 0
DWIDTH 16 0
BBX 13 23 1 -4
BITMAP
0300
1FE0
3FF0
78F0
78F0
7C00
3E00
3F80
7FE0
71F0
F078
F038
7838
7C38
3F70
0FE0
03E0
00F0
7870
7870
3FF0
1FE0
0780
ENDCHAR
STARTCHAR 00A8
ENCODING 168
SWIDTH 440 0
DWIDTH 11 0
BBX 11 4 0 15
BITMAP
20C0
F9E0
F9E0
71C0
ENDCHAR
STARTCHAR 00A9
ENCODING 169
SWIDTH 840 0
DWIDTH 21 0
BBX 18 18 1 0
BITMAP
07F800
0F3E00
380700
33F180
67F980
4F3CC0
CE1EC0
DE1E40
DE0040
DE0040
CE1EC0
CE1CC0
4FFC80
67F980
31E300
1C0E00
0FFC00
00C000
ENDCHAR
STARTCHAR 00AA
ENCODING 170
SWIDTH 360 0
DWIDTH 9 0
BBX 7 6 1 13
BITMAP
10
7C
C4
7C
CC
FE
ENDCHAR
STARTCHAR 00AB
ENCODING 171
SWIDTH 480 0
DWIDTH 12 0
BBX 12 8 0 3
BITMAP
0E70
18C0
3380
E700
6300
3180
18C0
0E70
ENDCHAR
STARTCHAR 00AC
ENCODING 172
SWIDTH 640 0
DWIDTH 16 0
BBX 10 5 3 4
BITMAP
FFC0
FFC0
01C0
01C0
01C0
ENDCHAR
STARTCHAR 00AD
ENCODING 173
SWIDTH 360 0
DWIDTH 9 0
BBX 6 2 1 6
BITMAP
FC
FC
ENDCHAR
STARTCHAR 00AE
ENCODING 174
SWIDTH 600 0
DWIDTH 15 0
BBX 13 12 1 6
BITMAP
1FC0
2060
4F30
C990
8998
8F18
8998
C998
4990
6020
3FC0
0F00
ENDCHAR
STARTCHAR 00AF
ENCODING 175
SWIDTH 440 0
DWIDTH 11 0
BBX 9 2 1 16
BITMAP
FF80
FF80
ENDCHAR
STARTCHAR 00B0
ENCODING 176
SWIDTH 320 0
DWIDTH 8 0
BBX 6 6 1 14
BITMAP
10
78
FC
CC
FC
78
ENDCHAR
STARTCHAR 00B1
ENCODING 177
SWIDTH 640 0
DWIDTH 16 0
BBX 10 12 3 1
BITMAP
0E00
0E00
0E00
FFC0
FFC0
0E00
0E00
0E00
0000
FFC0
FFC0
FFC0
ENDCHAR
STARTCHAR 00B2
ENCODING 178
SWIDTH 520 0
DWIDTH 13 0
BBX 11 12 1 7
BITMAP
0E00
7F80
FFC0
F1E0
E1E0
03C0
0F80
3F00
FC00
FFE0
FFE0
FFE0
ENDCHAR
STARTCHAR 00B3
ENCODING 179
SWIDTH 520 0
DWIDTH 13 0
BBX 11 12 1 7
BITMAP
0C00
7FC0
FFC0
F1E0
01C0
07C0
07C0
01E0
F1E0
FFC0
7FC0
1F00
ENDCHAR
STARTCHAR 00B4
ENCODING 180
SWIDTH 320 0
DWIDTH 8 0
BBX 6 3 1 15
BITMAP
3C
70
E0
ENDCHAR
STARTCHAR 00B5
ENCODING 181
SWIDTH 640 0
DWIDTH 16 0
BBX 14 18 1 -5
BITMAP
F87C
F87C
F87C
F87C
F87C
F87C
F87C
F87C
F87C
FDFC
FFFC
FFFC
FFFC
F800
F800
F800
F800
F800
ENDCHAR
STARTCHAR 00B6
ENCODING 182
SWIDTH 720 0
DWIDTH 18 0
BBX 15 20 1 -2
BITMAP
1FFE
3FFE
7FCE
7FCE
FFCE
FFCE
7FCE
7FCE
7FCE
3FCE
07CE
01CE
01CE
01CE
01CE
01CE
01CE
01CE
01CE
01CE
ENDCHAR
STARTCHAR 00B7
ENCODING 183
SWIDTH 320 0
DWIDTH 8 0
BBX 4 5 2 7
BITMAP
40
F0
F0
F0
E0
ENDCHAR
STARTCHAR 00B8
ENCODING 184
SWIDTH 480 0
DWIDTH 12 0
BBX 6 5 3 -5
BITMAP
30
7C
0C
FC
F8
ENDCHAR
STARTCHAR 00B9
ENCODING 185
SWIDTH 400 0
DWIDTH 10 0
BBX 6 11 1 7
BITMAP
7C
FC
FC
BC
3C
3C
3C
3C
3C
3C
3C
ENDCHAR
STARTCHAR 00BA
ENCODING 186
SWIDTH 400 0
DWIDTH 10 0
BBX 6 6 2 13
BITMAP
20
F8
CC
8C
CC
78
ENDCHAR
STARTCHAR 00BB
ENCODING 187
SWIDTH 480 0
DWIDTH 12 0
BBX 11 8 0 3
BITMAP
E700
3380
19C0
0EE0
0CE0
19C0
3380
E700
ENDCHAR
STARTCHAR 00BC
ENCODING 188
SWIDTH 1040 0
DWIDTH 26 0
BBX 25 18 1 0
BITMAP
7C01E000
FC01C000
FC038000
BC070000
3C0F0000
3C0E0000
3C1C0000
3C383E00
3C787E00
3C707E00
3CE0FE00
01C1FE00
03C1DE00
03839E00
0703FF80
0E03FF80
1E001E00
3C001E00
ENDCHAR
STARTCHAR 00BD
ENCODING 189
SWIDTH 1080 0
DWIDTH 27 0
BBX 25 18 1 0
BITMAP
7C01E000
FC01C000
FC038000
BC070000
3C0F0000
3C0E0000
3C1C0000
3C38FE00
3C7BFF00
3C73FF00
3CE38780
01C00F00
03C01F00
03807C00
0701F000
0E03FF00
1E03FF00
3C03FF00
ENDCHAR
STARTCHAR 00BE
ENCODING 190
SWIDTH 1200 0
DWIDTH 30 0
BBX 28 19 1 0
BITMAP
0C000200
7FC01C00
FFC03800
F1E07000
01C07000
07C0E000
07C1C000
01E38000
F1E387C0
FFC707C0
7FCE0FC0
1F1C1FC0
001C1DC0
003839C0
007079C0
00E07FF0
00E07FF0
01C001C0
038001C0
ENDCHAR
STARTCHAR 00BF
ENCODING 191
SWIDTH 560 0
DWIDTH 14 0
BBX 12 19 1 -5
BITMAP
0400
0F00
0F00
0F00
0600
0000
0F00
0F00
1E00
3E00
3C00
7800
F800
F0F0
F0F0
F0F0
FFE0
7FE0
3FC0
ENDCHAR
STARTCHAR 00C0
ENCODING 192
SWIDTH 680 0
DWIDTH 17 0
BBX 16 22 1 0
BITMAP
1E00
0780
0040
0000
0FE0
0FF0
1FF0
1EF0
1EF0
1EF8
3EF8
3C78
3C78
3C7C
7C7C
7FFC
7FFC
7FFC
F83E
F83E
F01E
F01F
ENDCHAR
STARTCHAR 00C1
ENCODING 193
SWIDTH 680 0
DWIDTH 17 0
BBX 16 22 1 0
BITMAP
00F0
01C0
0600
0000
0FE0
0FF0
1FF0
1EF0
1EF0
1EF8
3EF8
3C78
3C78
3C7C
7C7C
7FFC
7FFC
7FFC
F83E
F83E
F01E
F01F
ENDCHAR
STARTCHAR 00C2
ENCODING 194
SWIDTH 680 0
DWIDTH 17 0
BBX 16 22 1 0
BITMAP
07C0
0EE0
1C70
0000
0FE0
0FF0
1FF0
1EF0
1EF0
1EF8
3EF8
3C78
3C78
3C7C
7C7C
7FFC
7FFC
7FFC
F83E
F83E
F01E
F01F
ENDCHAR
STARTCHAR 00C3
ENCODING 195
SWIDTH 680 0
DWIDTH 17 0
BBX 16 23 1 0
BITMAP
0600
0F70
1DE0
0040
0000
0FE0
0FF0
1FF0
1EF0
1EF0
1EF8
3EF8
3C78
3C78
3C7C
7C7C
7FFC
7FFC
7FFC
F83E
F83E
F01E
F01F
ENDCHAR
STARTCHAR 00C4
ENCODING 196
SWIDTH 680 0
DWIDTH 17 0
BBX 16 23 1 0
BITMAP
1C70
3EF8
3E78
1830
0000
0FE0
0FF0
1FF0
1EF0
1EF0
1EF8
3EF8
3C78
3C78
3C7C
7C7C
7FFC
7FFC
7FFC
F83E
F83E
F01E
F01F
ENDCHAR
STARTCHAR 00C5
ENCODING 197
SWIDTH 680 0
DWIDTH 17 0
BBX 16 25 1 0
BITMAP
0380
07C0
0660
0660
07C0
0380
0000
0FE0
0FF0
1FF0
1EF0
1EF0
1EF8
3EF8
3C78
3C78
3C7C
7C7C
7FFC
7FFC
7FFC
F83E
F83E
F01E
F01F
ENDCHAR
STARTCHAR 00C6
ENCODING 198
SWIDTH 1000 0
DWIDTH 25 0
BBX 24 18 0 0
BITMAP
003FFF
007FFF
007FFF
00FF80
00FF80
01FF80
01EF80
03CFFE
07CFFE
078FFE
0F8F80
0FFF80
1FFF80
1FFF80
3FFF80
7C0FFF
7C0FFF
F80FFF
ENDCHAR
STARTCHAR 00C7
ENCODING 199
SWIDTH 720 0
DWIDTH 18 0
BBX 16 24 1 -5
BITMAP
03C0
0FF8
1FFC
3FFE
7C3E
781F
F81F
F800
F800
F000
F000
F800
F80F
F81F
7C1F
7E3E
3FFE
1FFC
07F0
0180
03E0
0030
03F0
07E0
ENDCHAR
STARTCHAR 00C8
ENCODING 200
SWIDTH 560 0
DWIDTH 14 0
BBX 12 22 1 0
BITMAP
3C00
0E00
0180
0000
FFF0
FFF0
FFF0
F800
F800
F800
F800
FFE0
FFE0
FFE0
F800
F800
F800
F800
F800
FFF0
FFF0
FFF0
ENDCHAR
STARTCHAR 00C9
ENCODING 201
SWIDTH 560 0
DWIDTH 14 0
BBX 12 22 1 0
BITMAP
01E0
0780
0800
0000
FFF0
FFF0
FFF0
F800
F800
F800
F800
FFE0
FFE0
FFE0
F800
F800
F800
F800
F800
FFF0
FFF0
FFF0
ENDCHAR
STARTCHAR 00CA
ENCODING 202
SWIDTH 560 0
DWIDTH 14 0
BBX 12 22 1 0
BITMAP
0F80
1DC0
38E0
0000
FFF0
FFF0
FFF0
F800
F800
F800
F800
FFE0
FFE0
FFE0
F800
F800
F800
F800
F800
FFF0
FFF0
FFF0
ENDCHAR
STARTCHAR 00CB
ENCODING 203
SWIDTH 560 0
DWIDTH 14 0
BBX 12 23 1 0
BITMAP
38E0
7DF0
79F0
3060
0000
FFF0
FFF0
FFF0
F800
F800
F800
F800
FFE0
FFE0
FFE0
F800
F800
F800
F800
F800
FFF0
FFF0
FFF0
ENDCHAR
STARTCHAR 00CC
ENCODING 204
SWIDTH 280 0
DWIDTH 7 0
BBX 7 22 -1 0
BITMAP
F0
1C
02
00
3E
3E
3E
3E
3E
3E
3E
3E
3E
3E
3E
3E
3E
3E
3E
3E
3E
3E
ENDCHAR
STARTCHAR 00CD
ENCODING 205
SWIDTH 280 0
DWIDTH 7 0
BBX 7 22 1 0
BITMAP
1E
38
C0
00
F8
F8
F8
F8
F8
F8
F8
F8
F8
F8
F8
F8
F8
F8
F8
F8
F8
F8
ENDCHAR
STARTCHAR 00CE
ENCODING 206
SWIDTH 280 0
DWIDTH 7 0
BBX 9 22 -1 0
BITMAP
3E00
7700
E380
0000
3E00
3E00
3E00
3E00
3E00
3E00
3E00
3E00
3E00
3E00
3E00
3E00
3E00
3E00
3E00
3E00
3E00
3E00
ENDCHAR
STARTCHAR 00CF
ENCODING 207
SWIDTH 280 0
DWIDTH 7 0
BBX 9 23 -1 0
BITMAP
6380
F780
F780
6300
0000
3E00
3E00
3E00
3E00
3E00
3E00
3E00
3E00
3E00
3E00
3E00
3E00
3E00
3E00
3E00
3E00
3E00
3E00
ENDCHAR
STARTCHAR 00D0
ENCODING 208
SWIDTH 680 0
DWIDTH 17 0
BBX 16 18 0 0
BITMAP
7FF0
7FF8
7FFC
7C7E
7C3E
7C1F
7C1F
7C0F
FF8F
FF8F
7C1F
7C1F
7C1F
7C3E
7CFE
7FFC
7FF8
7FE0
ENDCHAR
STARTCHAR 00D1
ENCODING 209
SWIDTH 760 0
DWIDTH 19 0
BBX 16 23 1 0
BITMAP
0100
07D8
06F8
0820
0000
FF0F
FF0F
FF0F
FF8F
FF8F
FF8F
FBCF
FBCF
FBCF
F9EF
F9EF
F9EF
F8FF
F8FF
F8FF
F87F
F87F
F87F
ENDCHAR
STARTCHAR 00D2
ENCODING 210
SWIDTH 760 0
DWIDTH 19 0
BBX 17 22 1 0
BITMAP
0F0000
03C000
002000
01E000
0FF800
1FFC00
3FFE00
7C1F00
780F00
F80F80
F80F80
F80780
F00780
F00780
F80F80
F80F80
F80F80
7C1F00
7E3F00
3FFE00
1FFC00
07F000
ENDCHAR
STARTCHAR 00D3
ENCODING 211
SWIDTH 760 0
DWIDTH 19 0
BBX 17 22 1 0
BITMAP
007800
00E000
030000
01E000
0FF800
1FFC00
3FFE00
7C1F00
780F00
F80F80
F80F80
F80780
F00780
F00780
F80F80
F80F80
F80F80
7C1F00
7E3F00
3FFE00
1FFC00
07F000
ENDCHAR
STARTCHAR 00D4
ENCODING 212
SWIDTH 760 0
DWIDTH 19 0
BBX 17 22 1 0
BITMAP
03E000
077000
0E3800
01E000
0FF800
1FFC00
3FFE00
7C1F00
780F00
F80F80
F80F80
F80780
F00780
F00780
F80F80
F80F80
F80F80
7C1F00
7E3F00
3FFE00
1FFC00
07F000
ENDCHAR
STARTCHAR 00D5
ENCODING 213
SWIDTH 760 0
DWIDTH 19 0
BBX 17 23 1 0
BITMAP
030000
07B800
0EF000
002000
01E000
0FF800
1FFC00
3FFE00
7C1F00
780F00
F80F80
F80F80
F80780
F00780
F00780
F80F80
F80F80
F80F80
7C1F00
7E3F00
3FFE00
1FFC00
07F000
ENDCHAR
STARTCHAR 00D6
ENCODING 214
SWIDTH 760 0
DWIDTH 19 0
BBX 17 23 1 0
BITMAP
0E3800
1F7C00
1F3C00
0C1800
01E000
0FF800
1FFC00
3FFE00
7C1F00
780F00
F80F80
F80F80
F80780
F00780
F00780
F80F80
F80F80
F80F80
7C1F00
7E3F00
3FFE00
1FFC00
07F000
ENDCHAR
STARTCHAR 00D7
ENCODING 215
SWIDTH 640 0
DWIDTH 16 0
BBX 10 9 3 2
BITMAP
2080
7380
FFC0
3F00
1E00
3F00
FFC0
7180
2080
ENDCHAR
STARTCHAR 00D8
ENCODING 216
SWIDTH 760 0
DWIDTH 19 0
BBX 17 21 1 -1
BITMAP
000400
01E700
0FFE00
1FFE00
3FFE00
7C3F00
783F00
F87F80
F8EF80
F8E780
F1C780
F1C780
FB8F80
FF0F80
FF0F80
7E1F00
7E3F00
3FFE00
3FFC00
3FF000
700000
ENDCHAR
STARTCHAR 00D9
ENCODING 217
SWIDTH 680 0
DWIDTH 17 0
BBX 15 22 1 0
BITMAP
1E00
0780
0040
0000
F83E
F83E
F83E
F83E
F83E
F83E
F83E
F83E
F83E
F83E
F83E
F83E
F83E
783C
7C7C
7FFC
3FF8
0FE0
ENDCHAR
STARTCHAR 00DA
ENCODING 218
SWIDTH 680 0
DWIDTH 17 0
BBX 15 22 1 0
BITMAP
00F0
01C0
0600
0000
F83E
F83E
F83E
F83E
F83E
F83E
F83E
F83E
F83E
F83E
F83E
F83E
F83E
783C
7C7C
7FFC
3FF8
0FE0
ENDCHAR
STARTCHAR 00DB
ENCODING 219
SWIDTH 680 0
DWIDTH 17 0
BBX 15 22 1 0
BITMAP
07C0
0EE0
1C70
0000
F83E
F83E
F83E
F83E
F83E
F83E
F83E
F83E
F83E
F83E
F83E
F83E
F83E
783C
7C7C
7FFC
3FF8
0FE0
ENDCHAR
STARTCHAR 00DC
ENCODING 220
SWIDTH 680 0
DWIDTH 17 0
BBX 15 23 1 0
BITMAP
1C70
3EF8
3E78
1830
0000
F83E
F83E
F83E
F83E
F83E
F83E
F83E
F83E
F83E
F83E
F83E
F83E
F83E
783C
7C7C
7FFC
3FF8
0FE0
ENDCHAR
STARTCHAR 00DD
ENCODING 221
SWIDTH 640 0
DWIDTH 16 0
BBX 15 22 1 0
BITMAP
01F0
0380
0400
0002
F83C
F87C
787C
7C78
3CF8
3EF0
1FF0
1FE0
0FE0
0FC0
0FC0
07C0
0780
0780
0780
0780
0780
0780
ENDCHAR
STARTCHAR 00DE
ENCODING 222
SWIDTH 600 0
DWIDTH 15 0
BBX 13 18 1 0
BITMAP
F800
F800
F800
F800
FFE0
FFF0
FFF8
F8F8
F878
F878
F8F8
FFF8
FFF0
FFE0
F800
F800
F800
F800
ENDCHAR
STARTCHAR 00DF
ENCODING 223
SWIDTH 640 0
DWIDTH 16 0
BBX 14 19 1 0
BITMAP
0780
1FE0
7FF0
7FF8
F878
F878
F8F8
F1F0
F1E0
F1E0
F1F0
F0F8
F07C
F03C
F03C
F07C
F3FC
F3F8
F3F0
ENDCHAR
STARTCHAR 00E0
ENCODING 224
SWIDTH 640 0
DWIDTH 16 0
BBX 14 18 1 0
BITMAP
1E00
0700
0380
0000
0200
3FE0
7FF8
FFF8
F87C
007C
1FFC
7FFC
FF7C
F07C
F8FC
FFFC
FFFC
3F3C
ENDCHAR
STARTCHAR 00E1
ENCODING 225
SWIDTH 640 0
DWIDTH 16 0
BBX 14 18 1 0
BITMAP
01E0
0380
0700
0000
0200
3FE0
7FF8
FFF8
F87C
007C
1FFC
7FFC
FF7C
F07C
F8FC
FFFC
FFFC
3F3C
ENDCHAR
STARTCHAR 00E2
ENCODING 226
SWIDTH 640 0
DWIDTH 16 0
BBX 14 18 1 0
BITMAP
0780
0FC0
1CE0
0010
0200
3FE0
7FF8
FFF8
F87C
007C
1FFC
7FFC
FF7C
F07C
F8FC
FFFC
FFFC
3F3C
ENDCHAR
STARTCHAR 00E3
ENCODING 227
SWIDTH 640 0
DWIDTH 16 0
BBX 14 18 1 0
BITMAP
1F60
1FE0
19C0
0000
0200
3FE0
7FF8
FFF8
F87C
007C
1FFC
7FFC
FF7C
F07C
F8FC
FFFC
FFFC
3F3C
ENDCHAR
STARTCHAR 00E4
ENCODING 228
SWIDTH 640 0
DWIDTH 16 0
BBX 14 19 1 0
BITMAP
1860
3CF0
3CF8
3870
0000
0200
3FE0
7FF8
FFF8
F87C
007C
1FFC
7FFC
FF7C
F07C
F8FC
FFFC
FFFC
3F3C
ENDCHAR
STARTCHAR 00E5
ENCODING 229
SWIDTH 640 0
DWIDTH 16 0
BBX 14 20 1 0
BITMAP
0780
0FC0
0CC0
0CC0
0780
0300
0200
3FE0
7FF8
FFF8
F87C
007C
1FFC
7FFC
FF7C
F07C
F8FC
FFFC
FFFC
3F3C
ENDCHAR
STARTCHAR 00E6
ENCODING 230
SWIDTH 1080 0
DWIDTH 27 0
BBX 25 14 1 0
BITMAP
01004000
1FF7FC00
7FFFFE00
7FFFFF00
F83E0F00
003E0F80
1FFFFF80
7FFFFF80
FFFFFF80
F07E0000
F8FF0F80
FFFFFF00
7FFFFE00
3FC3FC00
ENDCHAR
STARTCHAR 00E7
ENCODING 231
SWIDTH 640 0
DWIDTH 16 0
BBX 14 19 1 -5
BITMAP
0100
1FE0
3FF8
7FF8
F87C
F83C
F000
F000
F000
F83C
FC7C
7FF8
3FF0
1FE0
0300
07C0
0060
07E0
0FC0
ENDCHAR
STARTCHAR 00E8
ENCODING 232
SWIDTH 640 0
DWIDTH 16 0
BBX 15 18 1 0
BITMAP
1E00
0700
0380
0000
0100
1FE0
3FF8
7FF8
F87C
F03C
FFFE
FFFE
FFFE
F800
F87C
7FFC
3FF8
1FE0
ENDCHAR
STARTCHAR 00E9
ENCODING 233
SWIDTH 640 0
DWIDTH 16 0
BBX 15 18 1 0
BITMAP
01E0
0380
0700
0000
0100
1FE0
3FF8
7FF8
F87C
F03C
FFFE
FFFE
FFFE
F800
F87C
7FFC
3FF8
1FE0
ENDCHAR
STARTCHAR 00EA
ENCODING 234
SWIDTH 640 0
DWIDTH 16 0
BBX 15 18 1 0
BITMAP
0780
0EC0
1CF0
0000
0100
1FE0
3FF8
7FF8
F87C
F03C
FFFE
FFFE
FFFE
F800
F87C
7FFC
3FF8
1FE0
ENDCHAR
STARTCHAR 00EB
ENCODING 235
SWIDTH 640 0
DWIDTH 16 0
BBX 15 19 1 0
BITMAP
1820
3CF8
3CF8
3C70
0000
0100
1FE0
3FF8
7FF8
F87C
F03C
FFFE
FFFE
FFFE
F800
F87C
7FFC
3FF8
1FE0
ENDCHAR
STARTCHAR 00EC
ENCODING 236
SWIDTH 280 0
DWIDTH 7 0
BBX 7 18 -1 0
BITMAP
F0
38
1C
02
00
3E
3E
3E
3E
3E
3E
3E
3E
3E
3E
3E
3E
3E
ENDCHAR
STARTCHAR 00ED
ENCODING 237
SWIDTH 280 0
DWIDTH 7 0
BBX 6 18 1 0
BITMAP
3C
70
E0
00
00
F8
F8
F8
F8
F8
F8
F8
F8
F8
F8
F8
F8
F8
ENDCHAR
STARTCHAR 00EE
ENCODING 238
SWIDTH 280 0
DWIDTH 7 0
BBX 9 18 -1 0
BITMAP
3E00
7600
E380
0000
0000
3E00
3E00
3E00
3E00
3E00
3E00
3E00
3E00
3E00
3E00
3E00
3E00
3E00
ENDCHAR
STARTCHAR 00EF
ENCODING 239
SWIDTH 280 0
DWIDTH 7 0
BBX 10 19 -2 0
BITMAP
3180
7BC0
FBC0
7380
0000
0000
1F00
1F00
1F00
1F00
1F00
1F00
1F00
1F00
1F00
1F00
1F00
1F00
1F00
ENDCHAR
STARTCHAR 00F0
ENCODING 240
SWIDTH 680 0
DWIDTH 17 0
BBX 15 20 1 0
BITMAP
0480
0FE0
1FC0
07E0
0FF0
02F8
0178
1FFC
3FFC
7FFC
F87C
F83C
F03E
F03E
F03E
F83C
FCFC
7FF8
3FF0
1FE0
ENDCHAR
STARTCHAR 00F1
ENCODING 241
SWIDTH 640 0
DWIDTH 16 0
BBX 14 18 1 0
BITMAP
0F70
1FE0
18C0
0000
0040
FBF8
FFF8
FFFC
FCFC
F87C
F83C
F83C
F83C
F83C
F83C
F83C
F83C
F83C
ENDCHAR
STARTCHAR 00F2
ENCODING 242
SWIDTH 640 0
DWIDTH 16 0
BBX 15 18 1 0
BITMAP
1E00
0700
0380
0000
0100
1FE0
3FF8
7FF8
F87C
F83C
F03E
F03E
F03E
F83C
FCFC
7FF8
3FF0
1FE0
ENDCHAR
STARTCHAR 00F3
ENCODING 243
SWIDTH 640 0
DWIDTH 16 0
BBX 15 18 1 0
BITMAP
01E0
0380
0700
0000
0100
1FE0
3FF8
7FF8
F87C
F83C
F03E
F03E
F03E
F83C
FCFC
7FF8
3FF0
1FE0
ENDCHAR
STARTCHAR 00F4
ENCODING 244
SWIDTH 640 0
DWIDTH 16 0
BBX 15 18 1 0
BITMAP
0780
0EC0
1CF0
0000
0100
1FE0
3FF8
7FF8
F87C
F83C
F03E
F03E
F03E
F83C
FCFC
7FF8
3FF0
1FE0
ENDCHAR
STARTCHAR 00F5
ENCODING 245
SWIDTH 640 0
DWIDTH 16 0
BBX 15 18 1 0
BITMAP
1F60
1FE0
19C0
0000
0100
1FE0
3FF8
7FF8
F87C
F83C
F03E
F03E
F03E
F83C
FCFC
7FF8
3FF0
1FE0
ENDCHAR
STARTCHAR 00F6
ENCODING 246
SWIDTH 640 0
DWIDTH 16 0
BBX 15 19 1 0
BITMAP
1820
3CF8
3CF8
3C70
0000
0100
1FE0
3FF8
7FF8
F87C
F83C
F03E
F03E
F03E
F83C
FCFC
7FF8
3FF0
1FE0
ENDCHAR
STARTCHAR 00F7
ENCODING 247
SWIDTH 640 0
DWIDTH 16 0
BBX 9 11 4 1
BITMAP
1C00
3C00
1800
0000
FF80
FF80
FF80
0000
1800
3C00
1C00
ENDCHAR
STARTCHAR 00F8
ENCODING 248
SWIDTH 640 0
DWIDTH 16 0
BBX 15 15 1 -1
BITMAP
0110
1FF8
3FF8
7FF8
F8FC
F9FC
F1BE
F33E
F63E
FE3C
FCFC
7FF8
3FF0
7FE0
2000
ENDCHAR
STARTCHAR 00F9
ENCODING 249
SWIDTH 640 0
DWIDTH 16 0
BBX 14 18 1 0
BITMAP
1E00
0700
0380
0000
0000
F87C
F87C
F87C
F87C
F87C
F87C
F87C
F87C
F87C
7FFC
7FFC
7FFC
3F7C
ENDCHAR
STARTCHAR 00FA
ENCODING 250
SWIDTH 640 0
DWIDTH 16 0
BBX 14 18 1 0
BITMAP
01E0
0380
0700
0000
0000
F87C
F87C
F87C
F87C
F87C
F87C
F87C
F87C
F87C
7FFC
7FFC
7FFC
3F7C
ENDCHAR
STARTCHAR 00FB
ENCODING 251
SWIDTH 640 0
DWIDTH 16 0
BBX 14 18 1 0
BITMAP
0780
0FC0
1CE0
2010
0000
F87C
F87C
F87C
F87C
F87C
F87C
F87C
F87C
F87C
7FFC
7FFC
7FFC
3F7C
ENDCHAR
STARTCHAR 00FC
ENCODING 252
SWIDTH 640 0
DWIDTH 16 0
BBX 14 19 1 0
BITMAP
1860
3CF0
7CF8
3870
0000
0000
F87C
F87C
F87C
F87C
F87C
F87C
F87C
F87C
F87C
7FFC
7FFC
7FFC
3F7C
ENDCHAR
STARTCHAR 00FD
ENCODING 253
SWIDTH 560 0
DWIDTH 14 0
BBX 14 24 0 -6
BITMAP
01E0
0380
0700
0000
8000
787C
787C
7C78
3C78
3CF8
3CF0
1EF0
1EF0
1EE0
0FE0
0FE0
0FC0
07C0
07C0
0F80
7F80
7F00
7E00
7800
ENDCHAR
STARTCHAR 00FE
ENCODING 254
SWIDTH 680 0
DWIDTH 17 0
BBX 15 25 1 -5
BITMAP
F800
F800
F800
F800
F800
F800
F880
FBF0
FFF8
FFFC
FC7E
F83E
F83E
F83E
F83E
F83E
FFFE
FFFC
FFF8
FBF0
F800
F800
F800
F800
F800
ENDCHAR
STARTCHAR 00FF
ENCODING 255
SWIDTH 560 0
DWIDTH 14 0
BBX 14 25 0 -6
BITMAP
1820
3CF8
3CF8
3C70
0000
8000
787C
787C
7C78
3C78
3CF8
3CF0
1EF0
1EF0
1EE0
0FE0
0FE0
0FC0
07C0
07C0
0F80
7F80
7F00
7E00
7800
ENDCHAR
STARTCHAR 0100
ENCODING 256
SWIDTH 680 0
DWIDTH 17 0
BBX 16 22 1 0
BITMAP
1FF0
1FF0
0000
0000
0FE0
0FF0
1FF0
1EF0
1EF0
1EF8
3EF8
3C78
3C78
3C7C
7C7C
7FFC
7FFC
7FFC
F83E
F83E
F01E
F01F
ENDCHAR
STARTCHAR 0101
ENCODING 257
SWIDTH 640 0
DWIDTH 16 0
BBX 14 18 1 0
BITMAP
1FE0
1FE0
0000
0000
0200
3FE0
7FF8
FFF8
F87C
007C
1FFC
7FFC
FF7C
F07C
F8FC
FFFC
FFFC
3F3C
ENDCHAR
STARTCHAR 0102
ENCODING 258
SWIDTH 680 0
DWIDTH 17 0
BBX 16 22 1 0
BITMAP
0C60
0FE0
0380
0000
0FE0
0FF0
1FF0
1EF0
1EF0
1EF8
3EF8
3C78
3C78
3C7C
7C7C
7FFC
7FFC
7FFC
F83E
F83E
F01E
F01F
ENDCHAR
STARTCHAR 0103
ENCODING 259
SWIDTH 640 0
DWIDTH 16 0
BBX 14 19 1 0
BITMAP
1CE0
1CE0
0FC0
0380
0000
0200
3FE0
7FF8
FFF8
F87C
007C
1FFC
7FFC
FF7C
F07C
F8FC
FFFC
FFFC
3F3C
ENDCHAR
STARTCHAR 0104
ENCODING 260
SWIDTH 680 0
DWIDTH 17 0
BBX 16 24 1 -6
BITMAP
0FE0
0FF0
1FF0
1EF0
1EF0
1EF8
3EF8
3C78
3C78
3C7C
7C7C
7FFC
7FFC
7FFC
F83E
F83E
F01E
F01E
0007
000C
001C
001C
001F
0007
ENDCHAR
STARTCHAR 0105
ENCODING 261
SWIDTH 640 0
DWIDTH 16 0
BBX 14 20 1 -6
BITMAP
0200
3FE0
7FF8
FFF8
F87C
007C
1FFC
7FFC
FF7C
F07C
F8FC
FFFC
FFFC
3F3C
000C
0018
0030
0038
003C
000C
ENDCHAR
STARTCHAR 0106
ENCODING 262
SWIDTH 720 0
DWIDTH 18 0
BBX 16 22 1 0
BITMAP
00F8
01C0
0200
03C0
0FF8
1FFC
3FFE
7C3E
781F
F81F
F800
F800
F000
F000
F800
F80F
F81F
7C1F
7E3E
3FFE
1FFC
0FF0
ENDCHAR
STARTCHAR 0107
ENCODING 263
SWIDTH 640 0
DWIDTH 16 0
BBX 14 18 1 0
BITMAP
01E0
0380
0700
0000
0100
1FE0
3FF8
7FF8
F87C
F83C
F000
F000
F000
F83C
FC7C
7FF8
3FF0
1FE0
ENDCHAR
STARTCHAR 0108
ENCODING 264
SWIDTH 720 0
DWIDTH 18 0
BBX 16 22 1 0
BITMAP
03C0
0770
0C38
03C0
0FF8
1FFC
3FFE
7C3E
781F
F81F
F800
F800
F000
F000
F800
F80F
F81F
7C1F
7E3E
3FFE
1FFC
0FF0
ENDCHAR
STARTCHAR 0109
ENCODING 265
SWIDTH 640 0
DWIDTH 16 0
BBX 14 18 1 0
BITMAP
0780
0FC0
1CE0
2010
0100
1FE0
3FF8
7FF8
F87C
F83C
F000
F000
F000
F83C
FC7C
7FF8
3FF0
1FE0
ENDCHAR
STARTCHAR 010A
ENCODING 266
SWIDTH 720 0
DWIDTH 18 0
BBX 16 24 1 0
BITMAP
0080
03C0
03E0
03C0
0080
03C0
0FF8
1FFC
3FFE
7C3E
781F
F81F
F800
F800
F000
F000
F800
F80F
F81F
7C1F
7E3E
3FFE
1FFC
0FF0
ENDCHAR
STARTCHAR 010B
ENCODING 267
SWIDTH 640 0
DWIDTH 16 0
BBX 14 19 1 0
BITMAP
0780
0F80
0780
0300
0000
0100
1FE0
3FF8
7FF8
F87C
F83C
F000
F000
F000
F83C
FC7C
7FF8
3FF0
1FE0
ENDCHAR
STARTCHAR 010C
ENCODING 268
SWIDTH 720 0
DWIDTH 18 0
BBX 16 22 1 0
BITMAP
0E78
03E0
01C0
03C0
0FF8
1FFC
3FFE
7C3E
781F
F81F
F800
F800
F000
F000
F800
F80F
F81F
7C1F
7E3E
3FFE
1FFC
0FF0
ENDCHAR
STARTCHAR 010D
ENCODING 269
SWIDTH 640 0
DWIDTH 16 0
BBX 14 18 1 0
BITMAP
3CF0
0FC0
0780
0000
0100
1FE0
3FF8
7FF8
F87C
F83C
F000
F000
F000
F83C
FC7C
7FF8
3FF0
1FE0
ENDCHAR
STARTCHAR 010E
ENCODING 270
SWIDTH 680 0
DWIDTH 17 0
BBX 15 22 1 0
BITMAP
1CF0
07C0
0380
0000
FFE0
FFF0
FFF8
F8FC
F87C
F83E
F83E
F81E
F81E
F81E
F83E
F83E
F83E
F87C
F9FC
FFF8
FFF0
FFC0
ENDCHAR
STARTCHAR 010F
ENCODING 271
SWIDTH 760 0
DWIDTH 19 0
BBX 18 20 1 0
BITMAP
003CC0
003CC0
003CC0
003CC0
003CC0
003CC0
043C00
1FBC00
7FFC00
7FFC00
FC7C00
F83C00
F03C00
F03C00
F03C00
F87C00
FFFC00
7FFC00
3FFC00
1FBC00
ENDCHAR
STARTCHAR 0110
ENCODING 272
SWIDTH 680 0
DWIDTH 17 0
BBX 16 18 0 0
BITMAP
7FF0
7FF8
7FFC
7C7E
7C3E
7C1F
7C1F
7C0F
FF8F
FF8F
7C1F
7C1F
7C1F
7C3E
7CFE
7FFC
7FF8
7FE0
ENDCHAR
STARTCHAR 0111
ENCODING 273
SWIDTH 680 0
DWIDTH 17 0
BBX 16 20 1 0
BITMAP
003C
003C
07FF
07FF
07FF
003C
043C
1FBC
7FFC
7FFC
FC7C
F83C
F03C
F03C
F03C
F87C
FFFC
7FFC
3FFC
1FBC
ENDCHAR
STARTCHAR 0112
ENCODING 274
SWIDTH 560 0
DWIDTH 14 0
BBX 12 22 1 0
BITMAP
3FE0
3FE0
0000
0000
FFF0
FFF0
FFF0
F800
F800
F800
F800
FFE0
FFE0
FFE0
F800
F800
F800
F800
F800
FFF0
FFF0
FFF0
ENDCHAR
STARTCHAR 0113
ENCODING 275
SWIDTH 640 0
DWIDTH 16 0
BBX 15 18 1 0
BITMAP
1FE0
1FE0
0000
0000
0100
1FE0
3FF8
7FF8
F87C
F03C
FFFE
FFFE
FFFE
F800
F87C
7FFC
3FF8
1FE0
ENDCHAR
STARTCHAR 0114
ENCODING 276
SWIDTH 560 0
DWIDTH 14 0
BBX 12 22 1 0
BITMAP
18C0
1FC0
0700
0000
FFF0
FFF0
FFF0
F800
F800
F800
F800
FFE0
FFE0
FFE0
F800
F800
F800
F800
F800
FFF0
FFF0
FFF0
ENDCHAR
STARTCHAR 0115
ENCODING 277
SWIDTH 640 0
DWIDTH 16 0
BBX 15 19 1 0
BITMAP
1CE0
0CE0
0FC0
0380
0000
0100
1FE0
3FF8
7FF8
F87C
F03C
FFFE
FFFE
FFFE
F800
F87C
7FFC
3FF8
1FE0
ENDCHAR
STARTCHAR 0116
ENCODING 278
SWIDTH 560 0
DWIDTH 14 0
BBX 12 24 1 0
BITMAP
0200
0F80
0F80
0F80
0200
0000
FFF0
FFF0
FFF0
F800
F800
F800
F800
FFE0
FFE0
FFE0
F800
F800
F800
F800
F800
FFF0
FFF0
FFF0
ENDCHAR
STARTCHAR 0117
ENCODING 279
SWIDTH 640 0
DWIDTH 16 0
BBX 15 19 1 0
BITMAP
0780
07C0
07C0
0380
0000
0100
1FE0
3FF8
7FF8
F87C
F03C
FFFE
FFFE
FFFE
F800
F87C
7FFC
3FF8
1FE0
ENDCHAR
STARTCHAR 0118
ENCODING 280
SWIDTH 560 0
DWIDTH 14 0
BBX 12 24 1 -6
BITMAP
FFF0
FFF0
FFF0
F800
F800
F800
F800
FFE0
FFE0
FFE0
F800
F800
F800
F800
F800
FFF0
FFF0
FFF0
0070
00E0
00C0
01C0
00F0
0070
ENDCHAR
STARTCHAR 0119
ENCODING 281
SWIDTH 640 0
DWIDTH 16 0
BBX 15 19 1 -5
BITMAP
0100
1FE0
3FF8
7FF8
F87C
F03C
FFFE
FFFE
FFFE
F800
F87C
7FFC
3FF8
1FE0
00C0
0180
0380
03E0
01E0
ENDCHAR
STARTCHAR 011A
ENCODING 282
SWIDTH 560 0
DWIDTH 14 0
BBX 12 22 1 0
BITMAP
39E0
0F80
0700
0000
FFF0
FFF0
FFF0
F800
F800
F800
F800
FFE0
FFE0
FFE0
F800
F800
F800
F800
F800
FFF0
FFF0
FFF0
ENDCHAR
STARTCHAR 011B
ENCODING 283
SWIDTH 640 0
DWIDTH 16 0
BBX 15 18 1 0
BITMAP
1CF0
0FC0
0780
0000
0100
1FE0
3FF8
7FF8
F87C
F03C
FFFE
FFFE
FFFE
F800
F87C
7FFC
3FF8
1FE0
ENDCHAR
STARTCHAR 011C
ENCODING 284
SWIDTH 720 0
DWIDTH 18 0
BBX 16 22 1 0
BITMAP
03E0
0770
0E38
01E0
0FF8
1FFC
3FFE
7C3E
781F
F81F
F800
F800
F000
F0FF
F8FF
F8FF
F80F
7C1F
7E3F
3FFF
1FFF
0FF7
ENDCHAR
STARTCHAR 011D
ENCODING 285
SWIDTH 640 0
DWIDTH 16 0
BBX 16 24 0 -6
BITMAP
07C0
0EE0
1C70
0000
0100
1FEF
3FFE
7FFE
7C3E
783C
783C
7EFC
3FF8
3FF0
7FC0
7800
7FF0
3FFC
07FE
F81E
F83E
7FFC
3FF8
0FC0
ENDCHAR
STARTCHAR 011E
ENCODING 286
SWIDTH 720 0
DWIDTH 18 0
BBX 16 22 1 0
BITMAP
0670
07F0
01C0
01E0
0FF8
1FFC
3FFE
7C3E
781F
F81F
F800
F800
F000
F0FF
F8FF
F8FF
F80F
7C1F
7E3F
3FFF
1FFF
0FF7
ENDCHAR
STARTCHAR 011F
ENCODING 287
SWIDTH 640 0
DWIDTH 16 0
BBX 16 25 0 -6
BITMAP
0C60
0CE0
0FE0
0380
0000
0100
1FEF
3FFE
7FFE
7C3E
783C
783C
7EFC
3FF8
3FF0
7FC0
7800
7FF0
3FFC
07FE
F81E
F83E
7FFC
3FF8
0FC0
ENDCHAR
STARTCHAR 0120
ENCODING 288
SWIDTH 720 0
DWIDTH 18 0
BBX 16 24 1 0
BITMAP
0080
03E0
03E0
03E0
0080
01E0
0FF8
1FFC
3FFE
7C3E
781F
F81F
F800
F800
F000
F0FF
F8FF
F8FF
F80F
7C1F
7E3F
3FFF
1FFF
0FF7
ENDCHAR
STARTCHAR 0121
ENCODING 289
SWIDTH 640 0
DWIDTH 16 0
BBX 16 25 0 -6
BITMAP
0380
07C0
07C0
0380
0000
0100
1FEF
3FFE
7FFE
7C3E
783C
783C
7EFC
3FF8
3FF0
7FC0
7800
7FF0
3FFC
07FE
F81E
F83E
7FFC
3FF8
0FC0
ENDCHAR
STARTCHAR 0122
ENCODING 290
SWIDTH 720 0
DWIDTH 18 0
BBX 16 25 1 -6
BITMAP
01E0
0FF8
1FFC
3FFE
7C3E
781F
F81F
F800
F800
F000
F0FF
F8FF
F8FF
F80F
7C1F
7E3F
3FFF
1FFF
0FF7
0000
01C0
01C0
0040
0080
0100
ENDCHAR
STARTCHAR 0123
ENCODING 291
SWIDTH 640 0
DWIDTH 16 0
BBX 16 27 0 -6
BITMAP
0080
0300
0380
0380
0380
0000
0000
0100
1FEF
3FFE
7FFE
7C3E
783C
783C
7EFC
3FF8
3FF0
7FC0
7800
7FF0
3FFC
07FE
F81E
F83E
7FFC
3FF8
0FC0
ENDCHAR
STARTCHAR 0124
ENCODING 292
SWIDTH 720 0
DWIDTH 18 0
BBX 16 22 1 0
BITMAP
03C0
0660
1C38
0000
F81F
F81F
F81F
F81F
F81F
F81F
F81F
FFFF
FFFF
FFFF
FFFF
F81F
F81F
F81F
F81F
F81F
F81F
F81F
ENDCHAR
STARTCHAR 0125
ENCODING 293
SWIDTH 640 0
DWIDTH 16 0
BBX 16 24 -1 0
BITMAP
3E00
3700
E380
0000
3E00
3E00
3E00
3E00
3E00
3E00
3E10
3EFE
3FFE
3FFF
3F1F
3E1F
3E0F
3E0F
3E0F
3E0F
3E0F
3E0F
3E0F
3E0F
ENDCHAR
STARTCHAR 0126
ENCODING 294
SWIDTH 720 0
DWIDTH 18 0
BBX 18 18 0 0
BITMAP
7C0F80
7C0F80
FFFFC0
FFFFC0
7C0F80
7C0F80
7C0F80
7FFF80
7FFF80
7FFF80
7FFF80
7C0F80
7C0F80
7C0F80
7C0F80
7C0F80
7C0F80
7C0F80
ENDCHAR
STARTCHAR 0127
ENCODING 295
SWIDTH 680 0
DWIDTH 17 0
BBX 15 20 0 0
BITMAP
3C00
3C00
FFC0
FFC0
FFC0
3C00
3C20
3DFC
3FFE
3FFE
3F3E
3C1E
3C1E
3C1E
3C1E
3C1E
3C1E
3C1E
3C1E
3C1E
ENDCHAR
STARTCHAR 0128
ENCODING 296
SWIDTH 280 0
DWIDTH 7 0
BBX 9 23 -1 0
BITMAP
1000
7980
6F80
8200
0000
3E00
3E00
3E00
3E00
3E00
3E00
3E00
3E00
3E00
3E00
3E00
3E00
3E00
3E00
3E00
3E00
3E00
3E00
ENDCHAR
STARTCHAR 0129
ENCODING 297
SWIDTH 280 0
DWIDTH 7 0
BBX 9 18 -1 0
BITMAP
7B80
FF00
C600
0000
0000
3E00
3E00
3E00
3E00
3E00
3E00
3E00
3E00
3E00
3E00
3E00
3E00
3E00
ENDCHAR
STARTCHAR 012A
ENCODING 298
SWIDTH 280 0
DWIDTH 7 0
BBX 8 22 0 0
BITMAP
FF
FF
00
00
7C
7C
7C
7C
7C
7C
7C
7C
7C
7C
7C
7C
7C
7C
7C
7C
7C
7C
ENDCHAR
STARTCHAR 012B
ENCODING 299
SWIDTH 280 0
DWIDTH 7 0
BBX 6 18 0 0
BITMAP
FC
FC
00
00
00
7C
7C
7C
7C
7C
7C
7C
7C
7C
7C
7C
7C
7C
ENDCHAR
STARTCHAR 012C
ENCODING 300
SWIDTH 280 0
DWIDTH 7 0
BBX 7 22 0 0
BITMAP
E6
FE
38
00
7C
7C
7C
7C
7C
7C
7C
7C
7C
7C
7C
7C
7C
7C
7C
7C
7C
7C
ENDCHAR
STARTCHAR 012D
ENCODING 301
SWIDTH 280 0
DWIDTH 7 0
BBX 7 19 0 0
BITMAP
C6
CE
FC
38
00
00
7C
7C
7C
7C
7C
7C
7C
7C
7C
7C
7C
7C
7C
ENDCHAR
STARTCHAR 012E
ENCODING 302
SWIDTH 280 0
DWIDTH 7 0
BBX 5 24 1 -6
BITMAP
F8
F8
F8
F8
F8
F8
F8
F8
F8
F8
F8
F8
F8
F8
F8
F8
F8
F8
30
60
E0
E0
F8
38
ENDCHAR
STARTCHAR 012F
ENCODING 303
SWIDTH 280 0
DWIDTH 7 0
BBX 5 25 1 -6
BITMAP
F0
F8
F8
70
00
00
F8
F8
F8
F8
F8
F8
F8
F8
F8
F8
F8
F8
F8
30
60
E0
E0
F8
38
ENDCHAR
STARTCHAR 0130
ENCODING 304
SWIDTH 280 0
DWIDTH 7 0
BBX 5 24 1 0
BITMAP
20
F8
F8
F8
20
00
F8
F8
F8
F8
F8
F8
F8
F8
F8
F8
F8
F8
F8
F8
F8
F8
F8
F8
ENDCHAR
STARTCHAR 0131
ENCODING 305
SWIDTH 280 0
DWIDTH 7 0
BBX 5 13 1 0
BITMAP
F8
F8
F8
F8
F8
F8
F8
F8
F8
F8
F8
F8
F8
ENDCHAR
STARTCHAR 0134
ENCODING 308
SWIDTH 600 0
DWIDTH 15 0
BBX 15 22 1 0
BITMAP
00F0
01DC
030E
0000
00F0
00F0
00F0
00F0
00F0
00F0
00F0
00F0
00F0
00F0
00F0
F0F0
F0F0
F0F0
F9F0
FFF0
7FE0
3FC0
ENDCHAR
STARTCHAR 0135
ENCODING 309
SWIDTH 280 0
DWIDTH 7 0
BBX 10 24 -2 -6
BITMAP
1F00
3B80
71C0
0000
0000
1F00
1F00
1F00
1F00
1F00
1F00
1F00
1F00
1F00
1F00
1F00
1F00
1F00
1F00
1F00
BF00
FE00
FC00
F000
ENDCHAR
STARTCHAR 0136
ENCODING 310
SWIDTH 680 0
DWIDTH 17 0
BBX 16 24 1 -6
BITMAP
F83E
F87C
F8F8
F8F0
F9F0
FBE0
FBC0
FF80
FFC0
FFC0
FFE0
FDF0
FCF0
F8F8
F87C
F87C
F83E
F83F
0000
0380
0380
0080
0180
0200
ENDCHAR
STARTCHAR 0137
ENCODING 311
SWIDTH 600 0
DWIDTH 15 0
BBX 14 26 1 -6
BITMAP
F800
F800
F800
F800
F800
F800
F804
F8F8
FBF0
FFE0
FFC0
FF80
FF80
FFC0
FBC0
FBE0
F9E0
F8F0
F8F8
F87C
0000
0700
0780
0100
0100
0200
ENDCHAR
STARTCHAR 0138
ENCODING 312
SWIDTH 560 0
DWIDTH 14 0
BBX 13 13 1 0
BITMAP
F8F8
F9E0
FBE0
FBC0
FF80
FF00
FF80
FF80
FFC0
FBE0
FBE0
F9F0
F8F8
ENDCHAR
STARTCHAR 0139
ENCODING 313
SWIDTH 560 0
DWIDTH 14 0
BBX 12 22 1 0
BITMAP
1E00
3800
C000
0000
F800
F800
F800
F800
F800
F800
F800
F800
F800
F800
F800
F800
F800
F800
FFF0
FFF0
FFF0
FFF0
ENDCHAR
STARTCHAR 013A
ENCODING 314
SWIDTH 280 0
DWIDTH 7 0
BBX 7 23 1 0
BITMAP
1E
38
C0
78
78
78
78
78
78
78
78
78
78
78
78
78
78
78
78
78
78
78
78
ENDCHAR
STARTCHAR 013B
ENCODING 315
SWIDTH 560 0
DWIDTH 14 0
BBX 12 24 1 -6
BITMAP
F800
F800
F800
F800
F800
F800
F800
F800
F800
F800
F800
F800
F800
F800
FFF0
FFF0
FFF0
FFF0
0000
0700
0700
0100
0200
0400
ENDCHAR
STARTCHAR 013C
ENCODING 316
SWIDTH 280 0
DWIDTH 7 0
BBX 4 26 2 -6
BITMAP
F0
F0
F0
F0
F0
F0
F0
F0
F0
F0
F0
F0
F0
F0
F0
F0
F0
F0
F0
F0
00
E0
E0
20
20
40
ENDCHAR
STARTCHAR 013D
ENCODING 317
SWIDTH 560 0
DWIDTH 14 0
BBX 12 19 1 0
BITMAP
00E0
F8E0
F8E0
F8E0
F8C0
F8C0
F800
F800
F800
F800
F800
F800
F800
F800
F800
FFF0
FFF0
FFF0
FFF0
ENDCHAR
STARTCHAR 013E
ENCODING 318
SWIDTH 400 0
DWIDTH 10 0
BBX 8 20 2 0
BITMAP
F7
F7
F6
F6
F6
F6
F0
F0
F0
F0
F0
F0
F0
F0
F0
F0
F0
F0
F0
F0
ENDCHAR
STARTCHAR 013F
ENCODING 319
SWIDTH 560 0
DWIDTH 14 0
BBX 12 18 1 0
BITMAP
F800
F800
F800
F800
F800
F840
F8E0
F9F0
F9F0
F8E0
F800
F800
F800
F800
FFF0
FFF0
FFF0
FFF0
ENDCHAR
STARTCHAR 0140
ENCODING 320
SWIDTH 480 0
DWIDTH 12 0
BBX 11 20 1 0
BITMAP
F800
F800
F800
F800
F800
F800
F800
F880
FBC0
FBE0
FBC0
F9C0
F800
F800
F800
F800
F800
F800
F800
F800
ENDCHAR
STARTCHAR 0141
ENCODING 321
SWIDTH 600 0
DWIDTH 15 0
BBX 14 18 0 0
BITMAP
1F00
1F00
1F00
1F00
1F00
1F40
1FE0
1FE0
1FF0
7F80
FF00
FF00
7F00
1F00
1FFC
1FFC
1FFC
1FFC
ENDCHAR
STARTCHAR 0142
ENCODING 322
SWIDTH 280 0
DWIDTH 7 0
BBX 9 20 -1 0
BITMAP
1E00
1E00
1E00
1E00
1E00
1E00
1F00
1F00
1F80
7E00
FE00
7E00
5E00
1E00
1E00
1E00
1E00
1E00
1E00
1E00
ENDCHAR
STARTCHAR 0143
ENCODING 323
SWIDTH 760 0
DWIDTH 19 0
BBX 16 22 1 0
BITMAP
0078
00E0
0300
0000
FF0F
FF0F
FF0F
FF8F
FF8F
FF8F
FBCF
FBCF
FBCF
F9EF
F9EF
F9EF
F8FF
F8FF
F8FF
F87F
F87F
F87F
ENDCHAR
STARTCHAR 0144
ENCODING 324
SWIDTH 640 0
DWIDTH 16 0
BBX 14 18 1 0
BITMAP
01E0
03C0
0780
0000
0040
FBF8
FFF8
FFFC
FCFC
F87C
F83C
F83C
F83C
F83C
F83C
F83C
F83C
F83C
ENDCHAR
STARTCHAR 0145
ENCODING 325
SWIDTH 760 0
DWIDTH 19 0
BBX 16 24 1 -6
BITMAP
FF0F
FF0F
FF0F
FF8F
FF8F
FF8F
FBCF
FBCF
FBCF
F9EF
F9EF
F9EF
F8FF
F8FF
F8FF
F87F
F87F
F87F
0000
01C0
01C0
0040
0040
0080
ENDCHAR
STARTCHAR 0146
ENCODING 326
SWIDTH 640 0
DWIDTH 16 0
BBX 14 20 1 -6
BITMAP
0040
FBF8
FFF8
FFFC
FCFC
F87C
F83C
F83C
F83C
F83C
F83C
F83C
F83C
F83C
0000
0300
0780
0080
0100
0200
ENDCHAR
STARTCHAR 0147
ENCODING 327
SWIDTH 760 0
DWIDTH 19 0
BBX 16 22 1 0
BITMAP
0F38
03E0
01C0
0000
FF0F
FF0F
FF0F
FF8F
FF8F
FF8F
FBCF
FBCF
FBCF
F9EF
F9EF
F9EF
F8FF
F8FF
F8FF
F87F
F87F
F87F
ENDCHAR
STARTCHAR 0148
ENCODING 328
SWIDTH 640 0
DWIDTH 16 0
BBX 14 18 1 0
BITMAP
1CF0
07C0
0380
0000
0040
FBF8
FFF8
FFFC
FCFC
F87C
F83C
F83C
F83C
F83C
F83C
F83C
F83C
F83C
ENDCHAR
STARTCHAR 014A
ENCODING 330
SWIDTH 760 0
DWIDTH 19 0
BBX 16 24 1 -6
BITMAP
FF0F
FF0F
FF0F
FF8F
FF8F
FF8F
FBCF
FBCF
FBCF
F9EF
F9EF
F9EF
F8FF
F8FF
F8FF
F87F
F87F
F87F
000F
000F
00FF
00FF
00FE
00F0
ENDCHAR
STARTCHAR 014B
ENCODING 331
SWIDTH 640 0
DWIDTH 16 0
BBX 14 20 1 -6
BITMAP
0040
FBF8
FFF8
FFFC
FCFC
F87C
F83C
F83C
F83C
F83C
F83C
F83C
F83C
F83C
003C
007C
01FC
01F8
01F0
0180
ENDCHAR
STARTCHAR 014C
ENCODING 332
SWIDTH 760 0
DWIDTH 19 0
BBX 17 22 1 0
BITMAP
0FF800
0FF800
000000
01E000
0FF800
1FFC00
3FFE00
7C1F00
780F00
F80F80
F80F80
F80780
F00780
F00780
F80F80
F80F80
F80F80
7C1F00
7E3F00
3FFE00
1FFC00
07F000
ENDCHAR
STARTCHAR 014D
ENCODING 333
SWIDTH 640 0
DWIDTH 16 0
BBX 15 18 1 0
BITMAP
1FE0
1FE0
0000
0000
0100
1FE0
3FF8
7FF8
F87C
F83C
F03E
F03E
F03E
F83C
FCFC
7FF8
3FF0
1FE0
ENDCHAR
STARTCHAR 014E
ENCODING 334
SWIDTH 760 0
DWIDTH 19 0
BBX 17 22 1 0
BITMAP
063000
07F000
01C000
01E000
0FF800
1FFC00
3FFE00
7C1F00
780F00
F80F80
F80F80
F80780
F00780
F00780
F80F80
F80F80
F80F80
7C1F00
7E3F00
3FFE00
1FFC00
07F000
ENDCHAR
STARTCHAR 014F
ENCODING 335
SWIDTH 640 0
DWIDTH 16 0
BBX 15 19 1 0
BITMAP
1CE0
1CE0
0FC0
0380
0000
0100
1FE0
3FF8
7FF8
F87C
F83C
F03E
F03E
F03E
F83C
FCFC
7FF8
3FF0
1FE0
ENDCHAR
STARTCHAR 0150
ENCODING 336
SWIDTH 760 0
DWIDTH 19 0
BBX 17 22 1 0
BITMAP
01EE00
039800
042000
01E000
0FF800
1FFC00
3FFE00
7C1F00
780F00
F80F80
F80F80
F80780
F00780
F00780
F80F80
F80F80
F80F80
7C1F00
7E3F00
3FFE00
1FFC00
07F000
ENDCHAR
STARTCHAR 0151
ENCODING 337
SWIDTH 640 0
DWIDTH 16 0
BBX 15 18 1 0
BITMAP
0738
0670
0CE0
0000
0100
1FE0
3FF8
7FF8
F87C
F83C
F03E
F03E
F03E
F83C
FCFC
7FF8
3FF0
1FE0
ENDCHAR
STARTCHAR 0152
ENCODING 338
SWIDTH 1040 0
DWIDTH 26 0
BBX 24 19 1 0
BITMAP
03C000
0FFFFF
1FFFFF
3FFFFF
7C3F80
781F80
F80F80
F80F80
F80FFE
F00FFE
F00FFE
F80F80
F80F80
F80F80
7C1F80
7E3F80
3FFFFF
1FFFFF
07FFFF
ENDCHAR
STARTCHAR 0153
ENCODING 339
SWIDTH 1080 0
DWIDTH 27 0
BBX 25 14 1 0
BITMAP
01004000
1FE7FC00
3FFFFE00
7FFFFF00
F87E0F00
F83E0F80
F03FFF80
F03FFF80
F03FFF80
F83E0000
FCFF0F80
7FFFFF00
3FFFFE00
1FE3FC00
ENDCHAR
STARTCHAR 0154
ENCODING 340
SWIDTH 640 0
DWIDTH 16 0
BBX 14 22 1 0
BITMAP
01E0
0380
0400
0000
FFF0
FFF8
FFFC
F87C
F83C
F83C
F87C
F8F8
FFF8
FFF0
FFF8
F87C
F87C
F87C
F87C
F87C
F87C
F83C
ENDCHAR
STARTCHAR 0155
ENCODING 341
SWIDTH 480 0
DWIDTH 12 0
BBX 11 18 1 0
BITMAP
03C0
0700
0E00
0000
00A0
FBC0
FFC0
FFC0
FF40
FC00
F800
F800
F800
F800
F800
F800
F800
F800
ENDCHAR
STARTCHAR 0156
ENCODING 342
SWIDTH 640 0
DWIDTH 16 0
BBX 14 24 1 -6
BITMAP
FFF0
FFF8
FFFC
F87C
F83C
F83C
F87C
F8F8
FFF8
FFF0
FFF8
F87C
F87C
F87C
F87C
F87C
F87C
F83C
0000
0380
0380
0080
0100
0200
ENDCHAR
STARTCHAR 0157
ENCODING 343
SWIDTH 480 0
DWIDTH 12 0
BBX 11 20 1 -6
BITMAP
00A0
FBC0
FFC0
FFC0
FF40
FC00
F800
F800
F800
F800
F800
F800
F800
F800
0000
7000
7000
1000
3000
4000
ENDCHAR
STARTCHAR 0158
ENCODING 344
SWIDTH 640 0
DWIDTH 16 0
BBX 14 22 1 0
BITMAP
3CE0
0F80
0700
0000
FFF0
FFF8
FFFC
F87C
F83C
F83C
F87C
F8F8
FFF8
FFF0
FFF8
F87C
F87C
F87C
F87C
F87C
F87C
F83C
ENDCHAR
STARTCHAR 0159
ENCODING 345
SWIDTH 480 0
DWIDTH 12 0
BBX 11 18 1 0
BITMAP
79C0
1F80
0F00
0000
00A0
FBC0
FFC0
FFC0
FF40
FC00
F800
F800
F800
F800
F800
F800
F800
F800
ENDCHAR
STARTCHAR 015A
ENCODING 346
SWIDTH 640 0
DWIDTH 16 0
BBX 14 22 1 0
BITMAP
01E0
0380
0400
0780
3FF0
7FF8
FFF8
F87C
F07C
F800
FC00
7F80
3FE0
1FF8
03F8
00FC
F07C
F83C
FC7C
7FF8
7FF8
1FE0
ENDCHAR
STARTCHAR 015B
ENCODING 347
SWIDTH 560 0
DWIDTH 14 0
BBX 12 18 1 0
BITMAP
03C0
0700
0E00
0000
0200
3FC0
7FE0
FFF0
F0F0
F800
FFC0
7FE0
0FF0
00F0
F0F0
FFF0
7FE0
3FC0
ENDCHAR
STARTCHAR 015C
ENCODING 348
SWIDTH 640 0
DWIDTH 16 0
BBX 14 22 1 0
BITMAP
0780
0CC0
3860
0780
3FF0
7FF8
FFF8
F87C
F07C
F800
FC00
7F80
3FE0
1FF8
03F8
00FC
F07C
F83C
FC7C
7FF8
7FF8
1FE0
ENDCHAR
STARTCHAR 015D
ENCODING 349
SWIDTH 560 0
DWIDTH 14 0
BBX 12 18 1 0
BITMAP
0F00
1F80
39C0
0020
0200
3FC0
7FE0
FFF0
F0F0
F800
FFC0
7FE0
0FF0
00F0
F0F0
FFF0
7FE0
3FC0
ENDCHAR
STARTCHAR 015E
ENCODING 350
SWIDTH 640 0
DWIDTH 16 0
BBX 14 24 1 -5
BITMAP
0780
3FF0
7FF8
FFF8
F87C
F07C
F800
FC00
7F80
3FE0
1FF8
03F8
00FC
F07C
F83C
FC7C
7FF8
7FF8
1FE0
0300
07C0
00C0
0FC0
0F80
ENDCHAR
STARTCHAR 015F
ENCODING 351
SWIDTH 560 0
DWIDTH 14 0
BBX 12 19 1 -5
BITMAP
0200
3FC0
7FE0
FFF0
F0F0
F800
FFC0
7FE0
0FF0
00F0
F0F0
FFF0
7FE0
3FC0
0600
0F80
04C0
0980
1F80
ENDCHAR
STARTCHAR 0160
ENCODING 352
SWIDTH 640 0
DWIDTH 16 0
BBX 14 22 1 0
BITMAP
3CE0
0FC0
0300
0780
3FF0
7FF8
FFF8
F87C
F07C
F800
FC00
7F80
3FE0
1FF8
03F8
00FC
F07C
F83C
FC7C
7FF8
7FF8
1FE0
ENDCHAR
STARTCHAR 0161
ENCODING 353
SWIDTH 560 0
DWIDTH 14 0
BBX 12 18 1 0
BITMAP
39E0
1F80
0F00
0000
0200
3FC0
7FE0
FFF0
F0F0
F800
FFC0
7FE0
0FF0
00F0
F0F0
FFF0
7FE0
3FC0
ENDCHAR
STARTCHAR 0162
ENCODING 354
SWIDTH 600 0
DWIDTH 15 0
BBX 13 23 1 -5
BITMAP
FFF8
FFF8
FFF8
0F80
0F80
0F80
0F80
0F80
0F80
0F80
0F80
0F80
0F80
0F80
0F80
0F80
0F80
0F80
0600
0780
00C0
0DC0
1F80
ENDCHAR
STARTCHAR 0163
ENCODING 355
SWIDTH 480 0
DWIDTH 12 0
BBX 12 23 0 -5
BITMAP
1F00
1F00
1F00
1F00
3F00
FFF0
FFF0
FFF0
1F00
1F00
1F00
1F00
1F00
1F00
1F00
1FC0
0FC0
07C0
0300
07C0
00C0
0FC0
0F80
ENDCHAR
STARTCHAR 0164
ENCODING 356
SWIDTH 600 0
DWIDTH 15 0
BBX 13 22 1 0
BITMAP
39E0
0F80
0700
0000
FFF8
FFF8
FFF8
0F80
0F80
0F80
0F80
0F80
0F80
0F80
0F80
0F80
0F80
0F80
0F80
0F80
0F80
0F80
ENDCHAR
STARTCHAR 0165
ENCODING 357
SWIDTH 480 0
DWIDTH 12 0
BBX 12 20 0 0
BITMAP
0030
0030
1F30
1F70
1F60
1F60
3F00
FFF0
FFF0
FFF0
1F00
1F00
1F00
1F00
1F00
1F00
1F00
1FC0
0FC0
07C0
ENDCHAR
STARTCHAR 0166
ENCODING 358
SWIDTH 600 0
DWIDTH 15 0
BBX 13 18 1 0
BITMAP
FFF8
FFF8
FFF8
0F80
0F80
0F80
0F80
0F80
3FE0
3FE0
0F80
0F80
0F80
0F80
0F80
0F80
0F80
0F80
ENDCHAR
STARTCHAR 0167
ENCODING 359
SWIDTH 480 0
DWIDTH 12 0
BBX 12 18 0 0
BITMAP
1F00
1F00
1F00
1F00
3F00
FFF0
FFF0
FFF0
1F00
1F00
7FC0
7FC0
1F00
1F00
1F00
1FC0
0FC0
07C0
ENDCHAR
STARTCHAR 0168
ENCODING 360
SWIDTH 680 0
DWIDTH 17 0
BBX 15 23 1 0
BITMAP
0600
0F70
1DE0
0040
0000
F83E
F83E
F83E
F83E
F83E
F83E
F83E
F83E
F83E
F83E
F83E
F83E
F83E
783C
7C7C
7FFC
3FF8
0FE0
ENDCHAR
STARTCHAR 0169
ENCODING 361
SWIDTH 640 0
DWIDTH 16 0
BBX 14 18 1 0
BITMAP
1E60
1FE0
19C0
0000
0000
F87C
F87C
F87C
F87C
F87C
F87C
F87C
F87C
F87C
7FFC
7FFC
7FFC
3F7C
ENDCHAR
STARTCHAR 016A
ENCODING 362
SWIDTH 680 0
DWIDTH 17 0
BBX 15 22 1 0
BITMAP
1FF0
1FF0
0000
0000
F83E
F83E
F83E
F83E
F83E
F83E
F83E
F83E
F83E
F83E
F83E
F83E
F83E
783C
7C7C
7FFC
3FF8
0FE0
ENDCHAR
STARTCHAR 016B
ENCODING 363
SWIDTH 640 0
DWIDTH 16 0
BBX 14 18 1 0
BITMAP
1FE0
1FE0
0000
0000
0000
F87C
F87C
F87C
F87C
F87C
F87C
F87C
F87C
F87C
7FFC
7FFC
7FFC
3F7C
ENDCHAR
STARTCHAR 016C
ENCODING 364
SWIDTH 680 0
DWIDTH 17 0
BBX 15 22 1 0
BITMAP
0C60
0FE0
0380
0000
F83E
F83E
F83E
F83E
F83E
F83E
F83E
F83E
F83E
F83E
F83E
F83E
F83E
783C
7C7C
7FFC
3FF8
0FE0
ENDCHAR
STARTCHAR 016D
ENCODING 365
SWIDTH 640 0
DWIDTH 16 0
BBX 14 19 1 0
BITMAP
1CE0
1CE0
0FC0
0380
0000
0000
F87C
F87C
F87C
F87C
F87C
F87C
F87C
F87C
F87C
7FFC
7FFC
7FFC
3F7C
ENDCHAR
STARTCHAR 016E
ENCODING 366
SWIDTH 680 0
DWIDTH 17 0
BBX 15 25 1 0
BITMAP
0380
07C0
0660
0660
07C0
0380
0000
F83E
F83E
F83E
F83E
F83E
F83E
F83E
F83E
F83E
F83E
F83E
F83E
F83E
783C
7C7C
7FFC
3FF8
0FE0
ENDCHAR
STARTCHAR 016F
ENCODING 367
SWIDTH 640 0
DWIDTH 16 0
BBX 14 20 1 0
BITMAP
0780
0FC0
0CC0
0CC0
0780
0300
0000
F87C
F87C
F87C
F87C
F87C
F87C
F87C
F87C
F87C
7FFC
7FFC
7FFC
3F7C
ENDCHAR
STARTCHAR 0170
ENCODING 368
SWIDTH 680 0
DWIDTH 17 0
BBX 15 22 1 0
BITMAP
03DC
0730
0840
0000
F83E
F83E
F83E
F83E
F83E
F83E
F83E
F83E
F83E
F83E
F83E
F83E
F83E
783C
7C7C
7FFC
3FF8
0FE0
ENDCHAR
STARTCHAR 0171
ENCODING 369
SWIDTH 640 0
DWIDTH 16 0
BBX 14 18 1 0
BITMAP
0738
0E60
0CE0
0000
0000
F87C
F87C
F87C
F87C
F87C
F87C
F87C
F87C
F87C
7FFC
7FFC
7FFC
3F7C
ENDCHAR
STARTCHAR 0172
ENCODING 370
SWIDTH 680 0
DWIDTH 17 0
BBX 15 23 1 -5
BITMAP
F83E
F83E
F83E
F83E
F83E
F83E
F83E
F83E
F83E
F83E
F83E
F83E
F83E
783C
7C7C
7FFC
3FF8
0FE0
00C0
0180
0380
03E0
01E0
ENDCHAR
STARTCHAR 0173
ENCODING 371
SWIDTH 640 0
DWIDTH 16 0
BBX 14 19 1 -6
BITMAP
F87C
F87C
F87C
F87C
F87C
F87C
F87C
F87C
F87C
7FFC
7FFC
7FFC
3F7C
0018
0030
0030
0070
003C
001C
ENDCHAR
STARTCHAR 0174
ENCODING 372
SWIDTH 960 0
DWIDTH 24 0
BBX 22 22 1 0
BITMAP
007800
00EE00
018700
000000
F8FC3C
F8FC3C
F8FC3C
F8FE7C
78FE7C
79FE7C
79FE78
79EE78
79EE78
79CF78
7DCF78
3FCF78
3FCF78
3FCFF0
3FC7F0
3FC7F0
3FC7F0
3F87F0
ENDCHAR
STARTCHAR 0175
ENCODING 373
SWIDTH 840 0
DWIDTH 21 0
BBX 21 18 0 0
BITMAP
00F800
01DC00
038E00
000000
000000
F8F8F8
78F8F0
78F8F0
79FCF0
79DCF0
7DDDF0
3DDDE0
3DDDE0
3FDFE0
3FDFE0
3F8FE0
3F8FC0
1F8FC0
ENDCHAR
STARTCHAR 0176
ENCODING 374
SWIDTH 640 0
DWIDTH 16 0
BBX 15 22 1 0
BITMAP
0780
0EE0
1C70
0002
F83C
F87C
787C
7C78
3CF8
3EF0
1FF0
1FE0
0FE0
0FC0
0FC0
07C0
0780
0780
0780
0780
0780
0780
ENDCHAR
STARTCHAR 0177
ENCODING 375
SWIDTH 560 0
DWIDTH 14 0
BBX 14 24 0 -6
BITMAP
0780
0EC0
1CF0
0000
8000
787C
787C
7C78
3C78
3CF8
3CF0
1EF0
1EF0
1EE0
0FE0
0FE0
0FC0
07C0
07C0
0F80
7F80
7F00
7E00
7800
ENDCHAR
STARTCHAR 0178
ENCODING 376
SWIDTH 640 0
DWIDTH 16 0
BBX 15 23 1 0
BITMAP
1870
3CF8
3CF8
1860
0002
F83C
F87C
787C
7C78
3CF8
3EF0
1FF0
1FE0
0FE0
0FC0
0FC0
07C0
0780
0780
0780
0780
0780
0780
ENDCHAR
STARTCHAR 0179
ENCODING 377
SWIDTH 600 0
DWIDTH 15 0
BBX 13 22 1 0
BITMAP
01E0
0780
0800
0000
7FF8
7FF8
7FF8
01F0
01F0
03E0
03C0
07C0
0F80
0F00
1F00
3E00
3C00
7C00
F800
FFF8
FFF8
FFF8
ENDCHAR
STARTCHAR 017A
ENCODING 378
SWIDTH 520 0
DWIDTH 13 0
BBX 11 18 1 0
BITMAP
07C0
0700
1E00
0000
0000
FFE0
FFE0
FFE0
03E0
07C0
0F80
1F00
3E00
7C00
F800
FFE0
FFE0
FFE0
ENDCHAR
STARTCHAR 017B
ENCODING 379
SWIDTH 600 0
DWIDTH 15 0
BBX 13 24 1 0
BITMAP
0200
0F80
0F80
0F80
0200
0000
7FF8
7FF8
7FF8
01F0
01F0
03E0
03C0
07C0
0F80
0F00
1F00
3E00
3C00
7C00
F800
FFF8
FFF8
FFF8
ENDCHAR
STARTCHAR 017C
ENCODING 380
SWIDTH 520 0
DWIDTH 13 0
BBX 11 19 1 0
BITMAP
0F00
1F00
1F00
0E00
0000
0000
FFE0
FFE0
FFE0
03E0
07C0
0F80
1F00
3E00
7C00
F800
FFE0
FFE0
FFE0
ENDCHAR
STARTCHAR 017D
ENCODING 381
SWIDTH 600 0
DWIDTH 15 0
BBX 13 22 1 0
BITMAP
3DE0
0F80
0700
0000
7FF8
7FF8
7FF8
01F0
01F0
03E0
03C0
07C0
0F80
0F00
1F00
3E00
3C00
7C00
F800
FFF8
FFF8
FFF8
ENDCHAR
STARTCHAR 017E
ENCODING 382
SWIDTH 520 0
DWIDTH 13 0
BBX 11 18 1 0
BITMAP
79C0
1F00
0F00
0000
0000
FFE0
FFE0
FFE0
03E0
07C0
0F80
1F00
3E00
7C00
F800
FFE0
FFE0
FFE0
ENDCHAR
STARTCHAR 018F
ENCODING 399
SWIDTH 680 0
DWIDTH 17 0
BBX 15 19 1 0
BITMAP
0100
1FE0
3FF8
7FF8
F87C
F83C
003E
003E
FFFE
FFFE
FFFE
FFFE
F03E
F83C
783C
7C7C
3FF8
1FF0
0FC0
ENDCHAR
STARTCHAR 0192
ENCODING 402
SWIDTH 560 0
DWIDTH 14 0
BBX 16 26 -2 -6
BITMAP
0006
003F
007E
00FE
01F0
01F0
01E0
0FFC
1FFC
1FFC
03E0
03E0
03C0
03C0
07C0
07C0
07C0
0780
0780
0780
0F80
0F80
7F00
7E00
FC00
2000
ENDCHAR
STARTCHAR 019D
ENCODING 413
SWIDTH 760 0
DWIDTH 19 0
BBX 18 24 -1 -6
BITMAP
3FC3C0
3FC3C0
3FC3C0
3FE3C0
3FE3C0
3FE3C0
3EF3C0
3EF3C0
3EF3C0
3E7BC0
3E7BC0
3E7BC0
3E3FC0
3E3FC0
3E3FC0
3E1FC0
3E1FC0
3E1FC0
3E0000
3E0000
7E0000
FC0000
F80000
E00000
ENDCHAR
STARTCHAR 01A0
ENCODING 416
SWIDTH 760 0
DWIDTH 19 0
BBX 18 21 1 0
BITMAP
0001C0
0001C0
01E1C0
0FFB80
1FFF80
3FFE00
7C1F00
780F00
F80F80
F80F80
F80780
F00780
F00780
F80F80
F80F80
F80F80
7C1F00
7E3F00
3FFE00
1FFC00
07F000
ENDCHAR
STARTCHAR 01A1
ENCODING 417
SWIDTH 640 0
DWIDTH 16 0
BBX 15 16 1 0
BITMAP
0006
000E
010E
1FFC
3FFC
7FF8
F87C
F83C
F03C
F03E
F03C
F87C
FCFC
7FF8
3FF0
1FE0
ENDCHAR
STARTCHAR 01AF
ENCODING 431
SWIDTH 720 0
DWIDTH 18 0
BBX 17 22 1 0
BITMAP
000180
000180
000380
000780
F83F00
F83E00
F83E00
F83E00
F83E00
F83E00
F83E00
F83E00
F83E00
F83E00
F83E00
F83E00
F83E00
783C00
7C7C00
7FFC00
3FF800
0FE000
ENDCHAR
STARTCHAR 01B0
ENCODING 432
SWIDTH 680 0
DWIDTH 17 0
BBX 16 17 1 0
BITMAP
0007
0007
0006
000E
F87E
F87C
F87C
F87C
F87C
F87C
F87C
F87C
F87C
FDFC
7FFC
7FFC
3F7C
ENDCHAR
STARTCHAR 01B7
ENCODING 439
SWIDTH 640 0
DWIDTH 16 0
BBX 14 18 1 0
BITMAP
7FF8
7FF8
7FF8
00F0
01F0
01E0
03C0
03C0
07F0
0FF8
00F8
007C
F87C
F878
FCF8
7FF8
3FF0
1FE0
ENDCHAR
STARTCHAR 01C4
ENCODING 452
SWIDTH 1240 0
DWIDTH 31 0
BBX 29 22 1 0
BITMAP
00003CE0
00000F80
00000700
00000000
FFE07FF8
FFF07FF8
FFF87FF8
F8FC00F0
F87C01F0
F83E03E0
F83E03C0
F81E07C0
F81E0F80
F81E0F00
F83E1F00
F83E3E00
F83E3C00
F87C7C00
F9FCF800
FFF8FFF8
FFF0FFF8
FFC0FFF8
ENDCHAR
STARTCHAR 01C5
ENCODING 453
SWIDTH 1200 0
DWIDTH 30 0
BBX 29 18 1 0
BITMAP
FFE03CE0
FFF00FC0
FFF80780
F8FC0000
F87C0000
F83E7FF0
F83E7FF0
F81E7FF0
F81E01F0
F81E03E0
F83E07C0
F83E0F80
F83E1F00
F87C3E00
F9FC7C00
FFF87FF8
FFF07FF8
FFC07FF8
ENDCHAR
STARTCHAR 01C6
ENCODING 454
SWIDTH 1200 0
DWIDTH 30 0
BBX 28 20 1 0
BITMAP
003C0000
003C2020
003C19C0
003C0F80
003C0F00
003C0000
043C0000
1FBC7FF0
7FFC7FF0
7FFC7FF0
FC7C01E0
F83C03C0
F03C0780
F03C0F80
F03C1F00
F87C3E00
FFFC7C00
7FFCFFF0
3FFCFFF0
1FBCFFF0
ENDCHAR
STARTCHAR 01C7
ENCODING 455
SWIDTH 1120 0
DWIDTH 28 0
BBX 26 18 1 0
BITMAP
F80007C0
F80007C0
F80007C0
F80007C0
F80007C0
F80007C0
F80007C0
F80007C0
F80007C0
F80007C0
F80007C0
F80787C0
F80787C0
F807C7C0
FFF7EFC0
FFF3FF80
FFF3FF00
FFF0FE00
ENDCHAR
STARTCHAR 01C8
ENCODING 456
SWIDTH 800 0
DWIDTH 20 0
BBX 19 25 1 -6
BITMAP
0003C0
F803E0
F803C0
F80180
F80000
F80000
F803C0
F803C0
F803C0
F803C0
F803C0
F803C0
F803C0
F803C0
F803C0
FFF3C0
FFF3C0
FFF3C0
FFF3C0
0003C0
0003C0
001FC0
001FC0
001F80
001C00
ENDCHAR
STARTCHAR 01C9
ENCODING 457
SWIDTH 600 0
DWIDTH 15 0
BBX 13 26 1 -6
BITMAP
F800
F878
F8F8
F8F8
F870
F800
F800
F878
F878
F878
F878
F878
F878
F878
F878
F878
F878
FE78
7E78
3E78
0078
0078
05F8
03F8
03F0
0380
ENDCHAR
STARTCHAR 01CA
ENCODING 458
SWIDTH 1360 0
DWIDTH 34 0
BBX 31 18 1 0
BITMAP
FF0F001E
FF0F001E
FF0F001E
FF8F001E
FF8F001E
FF8F001E
FBCF001E
FBCF001E
FBCF001E
F9EF001E
F9EF001E
F9EF1E1E
F8FF1E1E
F8FF1E1E
F8FF1F3E
F87F1FFE
F87F0FFC
F87F07F8
ENDCHAR
STARTCHAR 01CB
ENCODING 459
SWIDTH 1000 0
DWIDTH 25 0
BBX 24 25 1 -6
BITMAP
00001E
FF0F1F
FF0F1E
FF0F0C
FF8F00
FF8F00
FF8F1E
FBCF1E
FBCF1E
FBCF1E
F9EF1E
F9EF1E
F9EF1E
F8FF1E
F8FF1E
F8FF1E
F87F1E
F87F1E
F87F1E
00001E
00001E
0000FE
0000FE
0000FC
0000E0
ENDCHAR
STARTCHAR 01CC
ENCODING 460
SWIDTH 920 0
DWIDTH 23 0
BBX 21 25 1 -6
BITMAP
000078
0000F8
000078
000070
000000
004000
FBF878
FFF878
FFFC78
FCFC78
F87C78
F83C78
F83C78
F83C78
F83C78
F83C78
F83C78
F83C78
F83C78
000078
000078
0005F8
0003F8
0003F0
000380
ENDCHAR
STARTCHAR 01CD
ENCODING 461
SWIDTH 680 0
DWIDTH 17 0
BBX 16 22 1 0
BITMAP
1E70
07C0
0380
0000
0FE0
0FF0
1FF0
1EF0
1EF0
1EF8
3EF8
3C78
3C78
3C7C
7C7C
7FFC
7FFC
7FFC
F83E
F83E
F01E
F01F
ENDCHAR
STARTCHAR 01CE
ENCODING 462
SWIDTH 640 0
DWIDTH 16 0
BBX 14 18 1 0
BITMAP
1CF0
0FC0
0780
0000
0200
3FE0
7FF8
FFF8
F87C
007C
1FFC
7FFC
FF7C
F07C
F8FC
FFFC
FFFC
3F3C
ENDCHAR
STARTCHAR 01CF
ENCODING 463
SWIDTH 280 0
DWIDTH 7 0
BBX 9 22 -1 0
BITMAP
F380
3E00
1C00
0000
3E00
3E00
3E00
3E00
3E00
3E00
3E00
3E00
3E00
3E00
3E00
3E00
3E00
3E00
3E00
3E00
3E00
3E00
ENDCHAR
STARTCHAR 01D0
ENCODING 464
SWIDTH 280 0
DWIDTH 7 0
BBX 9 18 -1 0
BITMAP
E780
3E00
3C00
0000
0000
3E00
3E00
3E00
3E00
3E00
3E00
3E00
3E00
3E00
3E00
3E00
3E00
3E00
ENDCHAR
STARTCHAR 01D1
ENCODING 465
SWIDTH 760 0
DWIDTH 19 0
BBX 17 22 1 0
BITMAP
0F7800
03E000
01C000
01E000
0FF800
1FFC00
3FFE00
7C1F00
780F00
F80F80
F80F80
F80780
F00780
F00780
F80F80
F80F80
F80F80
7C1F00
7E3F00
3FFE00
1FFC00
07F000
ENDCHAR
STARTCHAR 01D2
ENCODING 466
SWIDTH 640 0
DWIDTH 16 0
BBX 15 18 1 0
BITMAP
1CF0
0FC0
0780
0000
0100
1FE0
3FF8
7FF8
F87C
F83C
F03E
F03E
F03E
F83C
FCFC
7FF8
3FF0
1FE0
ENDCHAR
STARTCHAR 01D3
ENCODING 467
SWIDTH 680 0
DWIDTH 17 0
BBX 15 23 1 0
BITMAP
1EF0
06C0
0380
0000
0000
F83E
F83E
F83E
F83E
F83E
F83E
F83E
F83E
F83E
F83E
F83E
F83E
F83E
783C
7C7C
7FFC
3FF8
0FE0
ENDCHAR
STARTCHAR 01D4
ENCODING 468
SWIDTH 640 0
DWIDTH 16 0
BBX 14 18 1 0
BITMAP
3CF0
0FC0
0780
0000
0000
F87C
F87C
F87C
F87C
F87C
F87C
F87C
F87C
F87C
7FFC
7FFC
7FFC
3F7C
ENDCHAR
STARTCHAR 01D5
ENCODING 469
SWIDTH 680 0
DWIDTH 17 0
BBX 15 26 1 0
BITMAP
1FF0
1FF0
0000
1C70
3EF8
3E78
1830
0000
F83E
F83E
F83E
F83E
F83E
F83E
F83E
F83E
F83E
F83E
F83E
F83E
F83E
783C
7C7C
7FFC
3FF8
0FE0
ENDCHAR
STARTCHAR 01D6
ENCODING 470
SWIDTH 640 0
DWIDTH 16 0
BBX 14 22 1 0
BITMAP
1FE0
1FE0
0000
1860
3CF0
7CF8
3870
0000
0000
F87C
F87C
F87C
F87C
F87C
F87C
F87C
F87C
F87C
7FFC
7FFC
7FFC
3F7C
ENDCHAR
STARTCHAR 01D7
ENCODING 471
SWIDTH 680 0
DWIDTH 17 0
BBX 15 26 1 0
BITMAP
00F0
01C0
0600
1C70
3EF8
3E78
1830
0000
F83E
F83E
F83E
F83E
F83E
F83E
F83E
F83E
F83E
F83E
F83E
F83E
F83E
783C
7C7C
7FFC
3FF8
0FE0
ENDCHAR
STARTCHAR 01D8
ENCODING 472
SWIDTH 640 0
DWIDTH 16 0
BBX 14 22 1 0
BITMAP
01F0
0380
0400
1860
3CF0
7CF8
3870
0000
0000
F87C
F87C
F87C
F87C
F87C
F87C
F87C
F87C
F87C
7FFC
7FFC
7FFC
3F7C
ENDCHAR
STARTCHAR 01D9
ENCODING 473
SWIDTH 680 0
DWIDTH 17 0
BBX 15 26 1 0
BITMAP
1EF0
07C0
0380
1C70
3EF8
3E78
1830
0000
F83E
F83E
F83E
F83E
F83E
F83E
F83E
F83E
F83E
F83E
F83E
F83E
F83E
783C
7C7C
7FFC
3FF8
0FE0
ENDCHAR
STARTCHAR 01DA
ENCODING 474
SWIDTH 640 0
DWIDTH 16 0
BBX 14 22 1 0
BITMAP
3CF0
0FC0
0300
1860
3CF0
7CF8
3870
0000
0000
F87C
F87C
F87C
F87C
F87C
F87C
F87C
F87C
F87C
7FFC
7FFC
7FFC
3F7C
ENDCHAR
STARTCHAR 01DB
ENCODING 475
SWIDTH 680 0
DWIDTH 17 0
BBX 15 26 1 0
BITMAP
1E00
0780
0040
1C70
3EF8
3E78
1830
0000
F83E
F83E
F83E
F83E
F83E
F83E
F83E
F83E
F83E
F83E
F83E
F83E
F83E
783C
7C7C
7FFC
3FF8
0FE0
ENDCHAR
STARTCHAR 01DC
ENCODING 476
SWIDTH 640 0
DWIDTH 16 0
BBX 14 22 1 0
BITMAP
3E00
0700
0080
1860
3CF0
7CF8
3870
0000
0000
F87C
F87C
F87C
F87C
F87C
F87C
F87C
F87C
F87C
7FFC
7FFC
7FFC
3F7C
ENDCHAR
STARTCHAR 01DE
ENCODING 478
SWIDTH 680 0
DWIDTH 17 0
BBX 16 26 1 0
BITMAP
1FF0
1FF0
0000
1C70
3EF8
3E78
1830
0000
0FE0
0FF0
1FF0
1EF0
1EF0
1EF8
3EF8
3C78
3C78
3C7C
7C7C
7FFC
7FFC
7FFC
F83E
F83E
F01E
F01F
ENDCHAR
STARTCHAR 01DF
ENCODING 479
SWIDTH 640 0
DWIDTH 16 0
BBX 14 22 1 0
BITMAP
1FE0
1FE0
0000
1860
3CF0
3CF8
3870
0000
0200
3FE0
7FF8
FFF8
F87C
007C
1FFC
7FFC
FF7C
F07C
F8FC
FFFC
FFFC
3F3C
ENDCHAR
STARTCHAR 01E4
ENCODING 484
SWIDTH 720 0
DWIDTH 18 0
BBX 17 19 1 0
BITMAP
03C000
0FF800
1FFC00
3FFE00
7C3E00
781E00
F81F00
F80000
F00000
F0FF00
F0FF00
F8FF00
F8FF80
F8FF80
78FF80
7E3F00
3FFF00
1FFF00
0FE700
ENDCHAR
STARTCHAR 01E5
ENCODING 485
SWIDTH 680 0
DWIDTH 17 0
BBX 16 20 1 -6
BITMAP
0200
1FBE
3FFE
7FFE
FC7E
F83E
F9FF
F9FF
F83E
F83E
FEFE
7FFE
3FFE
1FBE
003E
F83E
7EFC
7FFC
3FF0
0780
ENDCHAR
STARTCHAR 01E6
ENCODING 486
SWIDTH 720 0
DWIDTH 18 0
BBX 16 22 1 0
BITMAP
0E78
03E0
01C0
01E0
0FF8
1FFC
3FFE
7C3E
781F
F81F
F800
F800
F000
F0FF
F8FF
F8FF
F80F
7C1F
7E3F
3FFF
1FFF
0FF7
ENDCHAR
STARTCHAR 01E7
ENCODING 487
SWIDTH 640 0
DWIDTH 16 0
BBX 16 24 0 -6
BITMAP
1CF0
06C0
0380
0000
0100
1FEF
3FFE
7FFE
7C3E
783C
783C
7EFC
3FF8
3FF0
7FC0
7800
7FF0
3FFC
07FE
F81E
F83E
7FFC
3FF8
0FC0
ENDCHAR
STARTCHAR 01E8
ENCODING 488
SWIDTH 680 0
DWIDTH 17 0
BBX 16 22 1 0
BITMAP
1E70
07C0
0380
0000
F83E
F87C
F8F8
F8F0
F9F0
FBE0
FBC0
FF80
FFC0
FFC0
FFE0
FDF0
FCF0
F8F8
F87C
F87C
F83E
F83F
ENDCHAR
STARTCHAR 01E9
ENCODING 489
SWIDTH 600 0
DWIDTH 15 0
BBX 16 23 -1 0
BITMAP
F780
3E00
1C00
3E00
3E00
3E00
3E00
3E00
3E00
3E01
3E3E
3EFC
3FF8
3FF0
3FE0
3FE0
3FF0
3EF0
3EF8
3E78
3E3C
3E3E
3E1F
ENDCHAR
STARTCHAR 01EA
ENCODING 490
SWIDTH 760 0
DWIDTH 19 0
BBX 17 24 1 -5
BITMAP
01E000
0FF800
1FFC00
3FFE00
7C1F00
780F00
F80F80
F80F80
F80780
F00780
F00780
F80F80
F80F80
F80F80
7C1F00
7E3F00
3FFE00
1FFC00
07F000
00E000
00C000
01C000
01F000
00F000
ENDCHAR
STARTCHAR 01EB
ENCODING 491
SWIDTH 640 0
DWIDTH 16 0
BBX 15 19 1 -5
BITMAP
0100
1FE0
3FF8
7FF8
F87C
F83C
F03E
F03E
F03E
F83C
FCFC
7FF8
3FF0
1FE0
0180
0380
0300
03C0
03C0
ENDCHAR
STARTCHAR 01EE
ENCODING 494
SWIDTH 640 0
DWIDTH 16 0
BBX 14 22 1 0
BITMAP
3CF0
0FC0
0300
0000
7FF8
7FF8
7FF8
00F0
01F0
01E0
03C0
03C0
07F0
0FF8
00F8
007C
F87C
F878
FCF8
7FF8
3FF0
1FE0
ENDCHAR
STARTCHAR 01EF
ENCODING 495
SWIDTH 640 0
DWIDTH 16 0
BBX 14 23 1 -5
BITMAP
1CF0
0FC0
0780
0000
0000
7FF8
7FF8
7FF8
00F0
00F0
01E0
03E0
03C0
07F0
0FF8
00F8
007C
F87C
F87C
7CF8
7FF8
3FF0
1FE0
ENDCHAR
STARTCHAR 01FA
ENCODING 506
SWIDTH 680 0
DWIDTH 17 0
BBX 16 28 1 0
BITMAP
00F0
01C0
0600
0380
07C0
0660
0660
07C0
0380
0000
0FE0
0FF0
1FF0
1EF0
1EF0
1EF8
3EF8
3C78
3C78
3C7C
7C7C
7FFC
7FFC
7FFC
F83E
F83E
F01E
F01F
ENDCHAR
STARTCHAR 01FB
ENCODING 507
SWIDTH 640 0
DWIDTH 16 0
BBX 14 25 1 0
BITMAP
01E0
0380
0700
0000
0000
0780
0FC0
0CC0
0CC0
0780
0300
0200
3FE0
7FF8
FFF8
F87C
007C
1FFC
7FFC
FF7C
F07C
F8FC
FFFC
FFFC
3F3C
ENDCHAR
STARTCHAR 01FC
ENCODING 508
SWIDTH 1000 0
DWIDTH 25 0
BBX 24 22 0 0
BITMAP
0000F0
0001C0
000600
000000
003FFF
007FFF
007FFF
00FF80
00FF80
01FF80
01EF80
03CFFE
07CFFE
078FFE
0F8F80
0FFF80
1FFF80
1FFF80
3FFF80
7C0FFF
7C0FFF
F80FFF
ENDCHAR
STARTCHAR 01FD
ENCODING 509
SWIDTH 1080 0
DWIDTH 27 0
BBX 25 18 1 0
BITMAP
000F0000
000E0000
003C0000
00000000
01004000
1FF7FC00
7FFFFE00
7FFFFF00
F83E0F00
003E0F80
1FFFFF80
7FFFFF80
FFFFFF80
F07E0000
F8FF0F80
FFFFFF00
7FFFFE00
3FC3FC00
ENDCHAR
STARTCHAR 01FE
ENCODING 510
SWIDTH 760 0
DWIDTH 19 0
BBX 17 23 1 -1
BITMAP
007800
01C000
020400
01E700
0FFE00
1FFE00
3FFE00
7C3F00
783F00
F87F80
F8EF80
F8E780
F1C780
F1C780
FB8F80
FF0F80
FF0F80
7E1F00
7E3F00
3FFE00
3FFC00
3FF000
700000
ENDCHAR
STARTCHAR 01FF
ENCODING 511
SWIDTH 640 0
DWIDTH 16 0
BBX 15 19 1 -1
BITMAP
01E0
0380
0700
0000
0110
1FF8
3FF8
7FF8
F8FC
F9FC
F1BE
F33E
F63E
FE3C
FCFC
7FF8
3FF0
7FE0
2000
ENDCHAR
STARTCHAR 0200
ENCODING 512
SWIDTH 680 0
DWIDTH 17 0
BBX 16 22 1 0
BITMAP
7B80
1CC0
0E60
0000
0FE0
0FF0
1FF0
1EF0
1EF0
1EF8
3EF8
3C78
3C78
3C7C
7C7C
7FFC
7FFC
7FFC
F83E
F83E
F01E
F01F
ENDCHAR
STARTCHAR 0201
ENCODING 513
SWIDTH 640 0
DWIDTH 16 0
BBX 14 18 1 0
BITMAP
7B80
19C0
1CC0
0000
0200
3FE0
7FF8
FFF8
F87C
007C
1FFC
7FFC
FF7C
F07C
F8FC
FFFC
FFFC
3F3C
ENDCHAR
STARTCHAR 0202
ENCODING 514
SWIDTH 680 0
DWIDTH 17 0
BBX 16 22 1 0
BITMAP
07C0
0EE0
0C60
0000
0FE0
0FF0
1FF0
1EF0
1EF0
1EF8
3EF8
3C78
3C78
3C7C
7C7C
7FFC
7FFC
7FFC
F83E
F83E
F01E
F01F
ENDCHAR
STARTCHAR 0203
ENCODING 515
SWIDTH 640 0
DWIDTH 16 0
BBX 14 19 1 0
BITMAP
0300
0FC0
1CE0
1CE0
0000
0200
3FE0
7FF8
FFF8
F87C
007C
1FFC
7FFC
FF7C
F07C
F8FC
FFFC
FFFC
3F3C
ENDCHAR
STARTCHAR 0204
ENCODING 516
SWIDTH 560 0
DWIDTH 14 0
BBX 12 22 1 0
BITMAP
F700
3B80
19C0
0000
FFF0
FFF0
FFF0
F800
F800
F800
F800
FFE0
FFE0
FFE0
F800
F800
F800
F800
F800
FFF0
FFF0
FFF0
ENDCHAR
STARTCHAR 0205
ENCODING 517
SWIDTH 640 0
DWIDTH 16 0
BBX 15 18 1 0
BITMAP
7B80
19C0
0CC0
0020
0100
1FE0
3FF8
7FF8
F87C
F03C
FFFE
FFFE
FFFE
F800
F87C
7FFC
3FF8
1FE0
ENDCHAR
STARTCHAR 0206
ENCODING 518
SWIDTH 560 0
DWIDTH 14 0
BBX 12 22 1 0
BITMAP
0F80
1DC0
18C0
0000
FFF0
FFF0
FFF0
F800
F800
F800
F800
FFE0
FFE0
FFE0
F800
F800
F800
F800
F800
FFF0
FFF0
FFF0
ENDCHAR
STARTCHAR 0207
ENCODING 519
SWIDTH 640 0
DWIDTH 16 0
BBX 15 19 1 0
BITMAP
0300
0FC0
1CE0
1CE0
0000
0100
1FE0
3FF8
7FF8
F87C
F03C
FFFE
FFFE
FFFE
F800
F87C
7FFC
3FF8
1FE0
ENDCHAR
STARTCHAR 0208
ENCODING 520
SWIDTH 280 0
DWIDTH 7 0
BBX 10 22 -3 0
BITMAP
F700
3980
1CC0
0000
0F80
0F80
0F80
0F80
0F80
0F80
0F80
0F80
0F80
0F80
0F80
0F80
0F80
0F80
0F80
0F80
0F80
0F80
ENDCHAR
STARTCHAR 0209
ENCODING 521
SWIDTH 280 0
DWIDTH 7 0
BBX 9 18 -2 0
BITMAP
EE00
6700
3380
0000
0000
1F00
1F00
1F00
1F00
1F00
1F00
1F00
1F00
1F00
1F00
1F00
1F00
1F00
ENDCHAR
STARTCHAR 020A
ENCODING 522
SWIDTH 280 0
DWIDTH 7 0
BBX 7 22 0 0
BITMAP
7C
EE
C6
00
7C
7C
7C
7C
7C
7C
7C
7C
7C
7C
7C
7C
7C
7C
7C
7C
7C
7C
ENDCHAR
STARTCHAR 020B
ENCODING 523
SWIDTH 280 0
DWIDTH 7 0
BBX 7 19 0 0
BITMAP
10
FC
CE
C6
00
00
7C
7C
7C
7C
7C
7C
7C
7C
7C
7C
7C
7C
7C
ENDCHAR
STARTCHAR 020C
ENCODING 524
SWIDTH 760 0
DWIDTH 19 0
BBX 17 22 1 0
BITMAP
3DC000
0E6000
073000
01E000
0FF800
1FFC00
3FFE00
7C1F00
780F00
F80F80
F80F80
F80780
F00780
F00780
F80F80
F80F80
F80F80
7C1F00
7E3F00
3FFE00
1FFC00
07F000
ENDCHAR
STARTCHAR 020D
ENCODING 525
SWIDTH 640 0
DWIDTH 16 0
BBX 15 18 1 0
BITMAP
7B80
19C0
0CC0
0020
0100
1FE0
3FF8
7FF8
F87C
F83C
F03E
F03E
F03E
F83C
FCFC
7FF8
3FF0
1FE0
ENDCHAR
STARTCHAR 020E
ENCODING 526
SWIDTH 760 0
DWIDTH 19 0
BBX 17 22 1 0
BITMAP
03E000
077000
063000
01E000
0FF800
1FFC00
3FFE00
7C1F00
780F00
F80F80
F80F80
F80780
F00780
F00780
F80F80
F80F80
F80F80
7C1F00
7E3F00
3FFE00
1FFC00
07F000
ENDCHAR
STARTCHAR 020F
ENCODING 527
SWIDTH 640 0
DWIDTH 16 0
BBX 15 19 1 0
BITMAP
0300
0FC0
1CE0
1CE0
0000
0100
1FE0
3FF8
7FF8
F87C
F83C
F03E
F03E
F03E
F83C
FCFC
7FF8
3FF0
1FE0
ENDCHAR
STARTCHAR 0210
ENCODING 528
SWIDTH 640 0
DWIDTH 16 0
BBX 14 22 1 0
BITMAP
7700
3980
0CC0
0000
FFF0
FFF8
FFFC
F87C
F83C
F83C
F87C
F8F8
FFF8
FFF0
FFF8
F87C
F87C
F87C
F87C
F87C
F87C
F83C
ENDCHAR
STARTCHAR 0211
ENCODING 529
SWIDTH 480 0
DWIDTH 12 0
BBX 11 18 1 0
BITMAP
E700
3300
3980
0000
00A0
FBC0
FFC0
FFC0
FF40
FC00
F800
F800
F800
F800
F800
F800
F800
F800
ENDCHAR
STARTCHAR 0212
ENCODING 530
SWIDTH 640 0
DWIDTH 16 0
BBX 14 22 1 0
BITMAP
0FC0
1FC0
1CE0
0000
FFF0
FFF8
FFFC
F87C
F83C
F83C
F87C
F8F8
FFF8
FFF0
FFF8
F87C
F87C
F87C
F87C
F87C
F87C
F83C
ENDCHAR
STARTCHAR 0213
ENCODING 531
SWIDTH 480 0
DWIDTH 12 0
BBX 11 19 1 0
BITMAP
0600
1F80
39C0
39C0
0000
00A0
FBC0
FFC0
FFC0
FF40
FC00
F800
F800
F800
F800
F800
F800
F800
F800
ENDCHAR
STARTCHAR 0214
ENCODING 532
SWIDTH 680 0
DWIDTH 17 0
BBX 15 22 1 0
BITMAP
7B80
1CC0
0E60
0000
F83E
F83E
F83E
F83E
F83E
F83E
F83E
F83E
F83E
F83E
F83E
F83E
F83E
783C
7C7C
7FFC
3FF8
0FE0
ENDCHAR
STARTCHAR 0215
ENCODING 533
SWIDTH 640 0
DWIDTH 16 0
BBX 14 18 1 0
BITMAP
7B80
19C0
1CC0
0000
0000
F87C
F87C
F87C
F87C
F87C
F87C
F87C
F87C
F87C
7FFC
7FFC
7FFC
3F7C
ENDCHAR
STARTCHAR 0216
ENCODING 534
SWIDTH 680 0
DWIDTH 17 0
BBX 15 22 1 0
BITMAP
07C0
0EE0
0C60
0000
F83E
F83E
F83E
F83E
F83E
F83E
F83E
F83E
F83E
F83E
F83E
F83E
F83E
783C
7C7C
7FFC
3FF8
0FE0
ENDCHAR
STARTCHAR 0217
ENCODING 535
SWIDTH 640 0
DWIDTH 16 0
BBX 14 19 1 0
BITMAP
0300
0FC0
1CE0
1CE0
0000
0000
F87C
F87C
F87C
F87C
F87C
F87C
F87C
F87C
F87C
7FFC
7FFC
7FFC
3F7C
ENDCHAR
STARTCHAR 0218
ENCODING 536
SWIDTH 640 0
DWIDTH 16 0
BBX 14 25 1 -6
BITMAP
0780
3FF0
7FF8
FFF8
F87C
F07C
F800
FC00
7F80
3FE0
1FF8
03F8
00FC
F07C
F83C
FC7C
7FF8
7FF8
1FE0
0000
0300
0780
0100
0100
0200
ENDCHAR
STARTCHAR 0219
ENCODING 537
SWIDTH 560 0
DWIDTH 14 0
BBX 12 20 1 -6
BITMAP
0200
3FC0
7FE0
FFF0
F0F0
F800
FFC0
7FE0
0FF0
00F0
F0F0
FFF0
7FE0
3FC0
0000
0600
0F00
0100
0200
0400
ENDCHAR
STARTCHAR 021A
ENCODING 538
SWIDTH 600 0
DWIDTH 15 0
BBX 13 24 1 -6
BITMAP
FFF8
FFF8
FFF8
0F80
0F80
0F80
0F80
0F80
0F80
0F80
0F80
0F80
0F80
0F80
0F80
0F80
0F80
0F80
0000
0700
0700
0100
0200
0400
ENDCHAR
STARTCHAR 021B
ENCODING 539
SWIDTH 480 0
DWIDTH 12 0
BBX 12 24 0 -6
BITMAP
1F00
1F00
1F00
1F00
3F00
FFF0
FFF0
FFF0
1F00
1F00
1F00
1F00
1F00
1F00
1F00
1FC0
0FC0
07C0
0000
0700
0780
0100
0100
0200
ENDCHAR
STARTCHAR 0228
ENCODING 552
SWIDTH 560 0
DWIDTH 14 0
BBX 12 23 1 -5
BITMAP
FFF0
FFF0
FFF0
F800
F800
F800
F800
FFE0
FFE0
FFE0
F800
F800
F800
F800
F800
FFF0
FFF0
FFF0
0600
07C0
00C0
0DC0
1F80
ENDCHAR
STARTCHAR 0229
ENCODING 553
SWIDTH 640 0
DWIDTH 16 0
BBX 15 19 1 -5
BITMAP
0100
1FE0
3FF8
7FF8
F87C
F03C
FFFE
FFFE
FFFE
F800
F87C
7FFC
3FF8
1FE0
0300
07C0
0060
07E0
0FC0
ENDCHAR
STARTCHAR 022A
ENCODING 554
SWIDTH 760 0
DWIDTH 19 0
BBX 17 26 1 0
BITMAP
0FF800
0FF800
000000
0E3800
1F7C00
1F3C00
0C1800
01E000
0FF800
1FFC00
3FFE00
7C1F00
780F00
F80F80
F80F80
F80780
F00780
F00780
F80F80
F80F80
F80F80
7C1F00
7E3F00
3FFE00
1FFC00
07F000
ENDCHAR
STARTCHAR 022B
ENCODING 555
SWIDTH 640 0
DWIDTH 16 0
BBX 15 22 1 0
BITMAP
1FE0
1FE0
0000
1820
3CF8
3CF8
3C70
0000
0100
1FE0
3FF8
7FF8
F87C
F83C
F03E
F03E
F03E
F83C
FCFC
7FF8
3FF0
1FE0
ENDCHAR
STARTCHAR 022C
ENCODING 556
SWIDTH 760 0
DWIDTH 19 0
BBX 17 26 1 0
BITMAP
0FF800
0FF800
000000
030000
07B800
0EF000
002000
01E000
0FF800
1FFC00
3FFE00
7C1F00
780F00
F80F80
F80F80
F80780
F00780
F00780
F80F80
F80F80
F80F80
7C1F00
7E3F00
3FFE00
1FFC00
07F000
ENDCHAR
STARTCHAR 022D
ENCODING 557
SWIDTH 640 0
DWIDTH 16 0
BBX 15 22 1 0
BITMAP
1FE0
1FE0
0000
0000
1F60
1FE0
19C0
0000
0100
1FE0
3FF8
7FF8
F87C
F83C
F03E
F03E
F03E
F83C
FCFC
7FF8
3FF0
1FE0
ENDCHAR
STARTCHAR 0230
ENCODING 560
SWIDTH 760 0
DWIDTH 19 0
BBX 17 27 1 0
BITMAP
0FF800
0FF800
000000
008000
03E000
03E000
03E000
008000
01E000
0FF800
1FFC00
3FFE00
7C1F00
780F00
F80F80
F80F80
F80780
F00780
F00780
F80F80
F80F80
F80F80
7C1F00
7E3F00
3FFE00
1FFC00
07F000
ENDCHAR
STARTCHAR 0231
ENCODING 561
SWIDTH 640 0
DWIDTH 16 0
BBX 15 23 1 0
BITMAP
1FE0
1FE0
0000
0000
0780
07C0
07C0
0380
0000
0100
1FE0
3FF8
7FF8
F87C
F83C
F03E
F03E
F03E
F83C
FCFC
7FF8
3FF0
1FE0
ENDCHAR
STARTCHAR 0232
ENCODING 562
SWIDTH 640 0
DWIDTH 16 0
BBX 15 22 1 0
BITMAP
1FE0
1FE0
0000
0002
F83C
F87C
787C
7C78
3CF8
3EF0
1FF0
1FE0
0FE0
0FC0
0FC0
07C0
0780
0780
0780
0780
0780
0780
ENDCHAR
STARTCHAR 0233
ENCODING 563
SWIDTH 560 0
DWIDTH 14 0
BBX 14 24 0 -6
BITMAP
1FE0
1FE0
0000
0000
8000
787C
787C
7C78
3C78
3CF8
3CF0
1EF0
1EF0
1EE0
0FE0
0FE0
0FC0
07C0
07C0
0F80
7F80
7F00
7E00
7800
ENDCHAR
STARTCHAR 0237
ENCODING 567
SWIDTH 280 0
DWIDTH 7 0
BBX 8 19 -2 -6
BITMAP
1F
1F
1F
1F
1F
1F
1F
1F
1F
1F
1F
1F
1F
1F
1F
BF
FE
FC
F0
ENDCHAR
STARTCHAR 0259
ENCODING 601
SWIDTH 640 0
DWIDTH 16 0
BBX 15 14 1 0
BITMAP
0100
1FE0
7FF8
FFF8
F87C
003C
FFFE
FFFE
FFFE
F03C
F87C
7FF8
3FF0
1FE0
ENDCHAR
STARTCHAR 0272
ENCODING 626
SWIDTH 640 0
DWIDTH 16 0
BBX 16 20 -2 -6
BITMAP
0010
1EFE
1FFF
1FFF
1F1F
1E0F
1E0F
1E0F
1E0F
1E0F
1E0F
1E0F
1E0F
1E0F
1E00
3E00
7E00
FC00
F800
E000
ENDCHAR
STARTCHAR 0292
ENCODING 658
SWIDTH 640 0
DWIDTH 16 0
BBX 14 18 1 -5
BITMAP
7FF8
7FF8
7FF8
00F0
00F0
01E0
03E0
03C0
07F0
0FF8
00F8
007C
F87C
F87C
7CF8
7FF8
3FF0
1FE0
ENDCHAR
STARTCHAR 02BC
ENCODING 700
SWIDTH 200 0
DWIDTH 5 0
BBX 3 6 1 12
BITMAP
E0
E0
E0
E0
E0
E0
ENDCHAR
STARTCHAR 02C6
ENCODING 710
SWIDTH 480 0
DWIDTH 12 0
BBX 9 3 2 15
BITMAP
3C00
7600
E780
ENDCHAR
STARTCHAR 02C7
ENCODING 711
SWIDTH 480 0
DWIDTH 12 0
BBX 9 3 2 15
BITMAP
E780
7E00
3C00
ENDCHAR
STARTCHAR 02C9
ENCODING 713
SWIDTH 440 0
DWIDTH 11 0
BBX 9 2 1 16
BITMAP
FF80
FF80
ENDCHAR
STARTCHAR 02D8
ENCODING 728
SWIDTH 360 0
DWIDTH 9 0
BBX 7 4 1 15
BITMAP
C6
EE
FE
38
ENDCHAR
STARTCHAR 02D9
ENCODING 729
SWIDTH 240 0
DWIDTH 6 0
BBX 5 4 1 15
BITMAP
F0
F8
F0
70
ENDCHAR
STARTCHAR 02DA
ENCODING 730
SWIDTH 400 0
DWIDTH 10 0
BBX 6 6 2 14
BITMAP
78
FC
CC
CC
7C
30
ENDCHAR
STARTCHAR 02DB
ENCODING 731
SWIDTH 440 0
DWIDTH 11 0
BBX 4 6 2 -6
BITMAP
30
60
C0
E0
F0
30
ENDCHAR
STARTCHAR 02DC
ENCODING 732
SWIDTH 480 0
DWIDTH 12 0
BBX 9 3 2 15
BITMAP
7B80
FF00
C600
ENDCHAR
STARTCHAR 02DD
ENCODING 733
SWIDTH 440 0
DWIDTH 11 0
BBX 9 3 1 15
BITMAP
7B80
6700
EE00
ENDCHAR
STARTCHAR 0300
ENCODING 768
SWIDTH 0 0
DWIDTH 0 0
BBX 6 3 2 15
BITMAP
F0
78
3C
ENDCHAR
STARTCHAR 0301
ENCODING 769
SWIDTH 0 0
DWIDTH 0 0
BBX 6 3 1 15
BITMAP
3C
70
E0
ENDCHAR
STARTCHAR 0302
ENCODING 770
SWIDTH 0 0
DWIDTH 0 0
BBX 9 3 2 15
BITMAP
3C00
7600
E780
ENDCHAR
STARTCHAR 0303
ENCODING 771
SWIDTH 0 0
DWIDTH 0 0
BBX 9 3 2 15
BITMAP
7B80
FF00
C600
ENDCHAR
STARTCHAR 0304
ENCODING 772
SWIDTH 0 0
DWIDTH 0 0
BBX 9 2 1 16
BITMAP
FF80
FF80
ENDCHAR
STARTCHAR 0306
ENCODING 774
SWIDTH 0 0
DWIDTH 0 0
BBX 7 4 1 15
BITMAP
C6
EE
FE
38
ENDCHAR
STARTCHAR 0307
ENCODING 775
SWIDTH 0 0
DWIDTH 0 0
BBX 5 4 1 15
BITMAP
F0
F8
F0
70
ENDCHAR
STARTCHAR 0308
ENCODING 776
SWIDTH 0 0
DWIDTH 0 0
BBX 11 4 0 15
BITMAP
20C0
F9E0
F9E0
71C0
ENDCHAR
STARTCHAR 0309
ENCODING 777
SWIDTH 0 0
DWIDTH 0 0
BBX 5 4 2 15
BITMAP
F0
78
18
70
ENDCHAR
STARTCHAR 030A
ENCODING 778
SWIDTH 0 0
DWIDTH 0 0
BBX 6 6 2 14
BITMAP
78
FC
CC
CC
7C
30
ENDCHAR
STARTCHAR 030B
ENCODING 779
SWIDTH 0 0
DWIDTH 0 0
BBX 9 3 1 15
BITMAP
7B80
6700
EE00
ENDCHAR
STARTCHAR 030C
ENCODING 780
SWIDTH 0 0
DWIDTH 0 0
BBX 9 3 2 15
BITMAP
E780
7E00
3C00
ENDCHAR
STARTCHAR 030F
ENCODING 783
SWIDTH 0 0
DWIDTH 0 0
BBX 10 3 0 15
BITMAP
F700
3380
19C0
ENDCHAR
STARTCHAR 0311
ENCODING 785
SWIDTH 0 0
DWIDTH 0 0
BBX 8 4 0 15
BITMAP
18
7E
E7
E7
ENDCHAR
STARTCHAR 0312
ENCODING 786
SWIDTH 0 0
DWIDTH 0 0
BBX 4 5 1 15
BITMAP
20
C0
E0
F0
E0
ENDCHAR
STARTCHAR 031B
ENCODING 795
SWIDTH 0 0
DWIDTH 0 0
BBX 5 6 2 11
BITMAP
38
38
38
70
F0
80
ENDCHAR
STARTCHAR 0323
ENCODING 803
SWIDTH 0 0
DWIDTH 0 0
BBX 5 4 1 -5
BITMAP
60
F0
F8
F0
ENDCHAR
STARTCHAR 0324
ENCODING 804
SWIDTH 0 0
DWIDTH 0 0
BBX 11 3 0 -5
BITMAP
F1E0
F9E0
F1E0
ENDCHAR
STARTCHAR 0326
ENCODING 806
SWIDTH 0 0
DWIDTH 0 0
BBX 3 5 1 -6
BITMAP
E0
E0
20
40
80
ENDCHAR
STARTCHAR 0327
ENCODING 807
SWIDTH 0 0
DWIDTH 0 0
BBX 6 5 3 -5
BITMAP
30
7C
0C
FC
F8
ENDCHAR
STARTCHAR 0328
ENCODING 808
SWIDTH 0 0
DWIDTH 0 0
BBX 4 6 2 -6
BITMAP
30
60
C0
E0
F0
30
ENDCHAR
STARTCHAR 032E
ENCODING 814
SWIDTH 0 0
DWIDTH 0 0
BBX 7 4 1 -5
BITMAP
C6
CE
FE
38
ENDCHAR
STARTCHAR 0331
ENCODING 817
SWIDTH 0 0
DWIDTH 0 0
BBX 7 2 2 -4
BITMAP
FE
FE
ENDCHAR
STARTCHAR 0335
ENCODING 821
SWIDTH 0 0
DWIDTH 0 0
BBX 9 2 1 6
BITMAP
FF80
FF80
ENDCHAR
STARTCHAR 0336
ENCODING 822
SWIDTH 0 0
DWIDTH 0 0
BBX 13 2 1 6
BITMAP
FFF8
FFF8
ENDCHAR
STARTCHAR 0337
ENCODING 823
SWIDTH 0 0
DWIDTH 0 0
BBX 12 15 1 -1
BITMAP
0020
0070
0060
00C0
0180
0380
0300
0600
0C00
1C00
1800
3000
6000
E000
4000
ENDCHAR
STARTCHAR 0338
ENCODING 824
SWIDTH 0 0
DWIDTH 0 0
BBX 14 22 2 -2
BITMAP
0008
001C
001C
0038
0078
0070
00E0
00E0
01C0
0380
0380
0700
0700
0E00
1C00
1C00
3800
3800
7000
E000
E000
2000
ENDCHAR
STARTCHAR 1E08
ENCODING 7688
SWIDTH 720 0
DWIDTH 18 0
BBX 16 27 1 -5
BITMAP
00F8
01C0
0200
03C0
0FF8
1FFC
3FFE
7C3E
781F
F81F
F800
F800
F000
F000
F800
F80F
F81F
7C1F
7E3E
3FFE
1FFC
07F0
0180
03E0
0030
03F0
07E0
ENDCHAR
STARTCHAR 1E09
ENCODING 7689
SWIDTH 640 0
DWIDTH 16 0
BBX 14 23 1 -5
BITMAP
01E0
0380
0700
0000
0100
1FE0
3FF8
7FF8
F87C
F83C
F000
F000
F000
F83C
FC7C
7FF8
3FF0
1FE0
0300
07C0
0060
07E0
0FC0
ENDCHAR
STARTCHAR 1E0C
ENCODING 7692
SWIDTH 680 0
DWIDTH 17 0
BBX 15 23 1 -5
BITMAP
FFE0
FFF0
FFF8
F8FC
F87C
F83E
F83E
F81E
F81E
F81E
F83E
F83E
F83E
F87C
F9FC
FFF8
FFF0
FFC0
0000
0300
0780
07C0
0780
ENDCHAR
STARTCHAR 1E0D
ENCODING 7693
SWIDTH 680 0
DWIDTH 17 0
BBX 14 25 1 -5
BITMAP
003C
003C
003C
003C
003C
003C
043C
1FBC
7FFC
7FFC
FC7C
F83C
F03C
F03C
F03C
F87C
FFFC
7FFC
3FFC
1FBC
0000
0080
03E0
03E0
03C0
ENDCHAR
STARTCHAR 1E0E
ENCODING 7694
SWIDTH 680 0
DWIDTH 17 0
BBX 15 22 1 -4
BITMAP
FFE0
FFF0
FFF8
F8FC
F87C
F83E
F83E
F81E
F81E
F81E
F83E
F83E
F83E
F87C
F9FC
FFF8
FFF0
FFC0
0000
0000
1FE0
1FE0
ENDCHAR
STARTCHAR 1E0F
ENCODING 7695
SWIDTH 680 0
DWIDTH 17 0
BBX 14 24 1 -4
BITMAP
003C
003C
003C
003C
003C
003C
043C
1FBC
7FFC
7FFC
FC7C
F83C
F03C
F03C
F03C
F87C
FFFC
7FFC
3FFC
1FBC
0000
0000
0FF0
0FF0
ENDCHAR
STARTCHAR 1E14
ENCODING 7700
SWIDTH 560 0
DWIDTH 14 0
BBX 12 26 1 0
BITMAP
3C00
0E00
0180
0000
3FE0
3FE0
0000
0000
FFF0
FFF0
FFF0
F800
F800
F800
F800
FFE0
FFE0
FFE0
F800
F800
F800
F800
F800
FFF0
FFF0
FFF0
ENDCHAR
STARTCHAR 1E15
ENCODING 7701
SWIDTH 640 0
DWIDTH 16 0
BBX 15 22 1 0
BITMAP
1E00
0700
0380
0000
1FE0
1FE0
0000
0000
0100
1FE0
3FF8
7FF8
F87C
F03C
FFFE
FFFE
FFFE
F800
F87C
7FFC
3FF8
1FE0
ENDCHAR
STARTCHAR 1E16
ENCODING 7702
SWIDTH 560 0
DWIDTH 14 0
BBX 12 26 1 0
BITMAP
01E0
0780
0800
0000
3FE0
3FE0
0000
0000
FFF0
FFF0
FFF0
F800
F800
F800
F800
FFE0
FFE0
FFE0
F800
F800
F800
F800
F800
FFF0
FFF0
FFF0
ENDCHAR
STARTCHAR 1E17
ENCODING 7703
SWIDTH 640 0
DWIDTH 16 0
BBX 15 23 1 0
BITMAP
01E0
0380
0700
0000
0000
1FE0
1FE0
0000
0000
0100
1FE0
3FF8
7FF8
F87C
F03C
FFFE
FFFE
FFFE
F800
F87C
7FFC
3FF8
1FE0
ENDCHAR
STARTCHAR 1E1C
ENCODING 7708
SWIDTH 560 0
DWIDTH 14 0
BBX 12 27 1 -5
BITMAP
18C0
1FC0
0700
0000
FFF0
FFF0
FFF0
F800
F800
F800
F800
FFE0
FFE0
FFE0
F800
F800
F800
F800
F800
FFF0
FFF0
FFF0
0600
07C0
00C0
0DC0
1F80
ENDCHAR
STARTCHAR 1E1D
ENCODING 7709
SWIDTH 640 0
DWIDTH 16 0
BBX 15 24 1 -5
BITMAP
1CE0
0CE0
0FC0
0380
0000
0100
1FE0
3FF8
7FF8
F87C
F03C
FFFE
FFFE
FFFE
F800
F87C
7FFC
3FF8
1FE0
0300
07C0
0060
07E0
0FC0
ENDCHAR
STARTCHAR 1E20
ENCODING 7712
SWIDTH 720 0
DWIDTH 18 0
BBX 16 22 1 0
BITMAP
0FF0
0FF0
0000
01E0
0FF8
1FFC
3FFE
7C3E
781F
F81F
F800
F800
F000
F0FF
F8FF
F8FF
F80F
7C1F
7E3F
3FFF
1FFF
0FF7
ENDCHAR
STARTCHAR 1E21
ENCODING 7713
SWIDTH 640 0
DWIDTH 16 0
BBX 16 24 0 -6
BITMAP
1FF0
1FF0
0000
0000
0100
1FEF
3FFE
7FFE
7C3E
783C
783C
7EFC
3FF8
3FF0
7FC0
7800
7FF0
3FFC
07FE
F81E
F83E
7FFC
3FF8
0FC0
ENDCHAR
STARTCHAR 1E24
ENCODING 7716
SWIDTH 720 0
DWIDTH 18 0
BBX 16 23 1 -5
BITMAP
F81F
F81F
F81F
F81F
F81F
F81F
F81F
FFFF
FFFF
FFFF
FFFF
F81F
F81F
F81F
F81F
F81F
F81F
F81F
0000
0180
03C0
03E0
03C0
ENDCHAR
STARTCHAR 1E25
ENCODING 7717
SWIDTH 640 0
DWIDTH 16 0
BBX 14 25 1 -5
BITMAP
F800
F800
F800
F800
F800
F800
F840
FBF8
FFF8
FFFC
FC7C
F87C
F83C
F83C
F83C
F83C
F83C
F83C
F83C
F83C
0000
0300
0780
07C0
0780
ENDCHAR
STARTCHAR 1E2A
ENCODING 7722
SWIDTH 720 0
DWIDTH 18 0
BBX 16 23 1 -5
BITMAP
F81F
F81F
F81F
F81F
F81F
F81F
F81F
FFFF
FFFF
FFFF
FFFF
F81F
F81F
F81F
F81F
F81F
F81F
F81F
0000
0E70
0E70
07E0
03C0
ENDCHAR
STARTCHAR 1E2B
ENCODING 7723
SWIDTH 640 0
DWIDTH 16 0
BBX 14 25 1 -5
BITMAP
F800
F800
F800
F800
F800
F800
F840
FBF8
FFF8
FFFC
FC7C
F87C
F83C
F83C
F83C
F83C
F83C
F83C
F83C
F83C
0000
1CE0
1CE0
0FC0
0380
ENDCHAR
STARTCHAR 1E2E
ENCODING 7726
SWIDTH 280 0
DWIDTH 7 0
BBX 9 26 -1 0
BITMAP
0780
0E00
3000
6380
F780
F780
6300
0000
3E00
3E00
3E00
3E00
3E00
3E00
3E00
3E00
3E00
3E00
3E00
3E00
3E00
3E00
3E00
3E00
3E00
3E00
ENDCHAR
STARTCHAR 1E2F
ENCODING 7727
SWIDTH 280 0
DWIDTH 7 0
BBX 10 24 -2 0
BITMAP
0780
0E00
1C00
0000
0000
3180
7BC0
FBC0
7380
0000
0000
1F00
1F00
1F00
1F00
1F00
1F00
1F00
1F00
1F00
1F00
1F00
1F00
1F00
ENDCHAR
STARTCHAR 1E36
ENCODING 7734
SWIDTH 560 0
DWIDTH 14 0
BBX 12 23 1 -5
BITMAP
F800
F800
F800
F800
F800
F800
F800
F800
F800
F800
F800
F800
F800
F800
FFF0
FFF0
FFF0
FFF0
0000
0200
0F80
0F80
0F00
ENDCHAR
STARTCHAR 1E37
ENCODING 7735
SWIDTH 280 0
DWIDTH 7 0
BBX 5 25 1 -5
BITMAP
78
78
78
78
78
78
78
78
78
78
78
78
78
78
78
78
78
78
78
78
00
30
F8
F8
78
ENDCHAR
STARTCHAR 1E3A
ENCODING 7738
SWIDTH 560 0
DWIDTH 14 0
BBX 12 22 1 -4
BITMAP
F800
F800
F800
F800
F800
F800
F800
F800
F800
F800
F800
F800
F800
F800
FFF0
FFF0
FFF0
FFF0
0000
0000
3FC0
3FC0
ENDCHAR
STARTCHAR 1E3B
ENCODING 7739
SWIDTH 280 0
DWIDTH 7 0
BBX 7 24 0 -4
BITMAP
3C
3C
3C
3C
3C
3C
3C
3C
3C
3C
3C
3C
3C
3C
3C
3C
3C
3C
3C
3C
00
00
FE
FE
ENDCHAR
STARTCHAR 1E42
ENCODING 7746
SWIDTH 960 0
DWIDTH 24 0
BBX 20 23 2 -5
BITMAP
FE0FF0
FE0FF0
FF0FF0
FF0FF0
FF0FF0
FF0EF0
F71EF0
F79EF0
F79EF0
F79EF0
F39CF0
F3BCF0
F3BCF0
F3FCF0
F3FCF0
F1F8F0
F1F8F0
F1F8F0
000000
006000
00F000
01F000
00F000
ENDCHAR
STARTCHAR 1E43
ENCODING 7747
SWIDTH 960 0
DWIDTH 24 0
BBX 21 19 1 -5
BITMAP
008040
FBF3F0
FFFFF8
FFFFF8
FCFCF8
F87878
F87878
F87878
F87878
F87878
F87878
F87878
F87878
F87878
000000
003000
007800
007C00
007800
ENDCHAR
STARTCHAR 1E44
ENCODING 7748
SWIDTH 760 0
DWIDTH 19 0
BBX 16 24 1 0
BITMAP
0080
01E0
03E0
01E0
0080
0000
FF0F
FF0F
FF0F
FF8F
FF8F
FF8F
FBCF
FBCF
FBCF
F9EF
F9EF
F9EF
F8FF
F8FF
F8FF
F87F
F87F
F87F
ENDCHAR
STARTCHAR 1E45
ENCODING 7749
SWIDTH 640 0
DWIDTH 16 0
BBX 14 19 1 0
BITMAP
0380
07C0
07C0
0380
0000
0040
FBF8
FFF8
FFFC
FCFC
F87C
F83C
F83C
F83C
F83C
F83C
F83C
F83C
F83C
ENDCHAR
STARTCHAR 1E46
ENCODING 7750
SWIDTH 760 0
DWIDTH 19 0
BBX 16 23 1 -5
BITMAP
FF0F
FF0F
FF0F
FF8F
FF8F
FF8F
FBCF
FBCF
FBCF
F9EF
F9EF
F9EF
F8FF
F8FF
F8FF
F87F
F87F
F87F
0000
0080
03E0
03E0
01E0
ENDCHAR
STARTCHAR 1E47
ENCODING 7751
SWIDTH 640 0
DWIDTH 16 0
BBX 14 19 1 -5
BITMAP
0040
FBF8
FFF8
FFFC
FCFC
F87C
F83C
F83C
F83C
F83C
F83C
F83C
F83C
F83C
0000
0300
0780
07C0
0780
ENDCHAR
STARTCHAR 1E48
ENCODING 7752
SWIDTH 760 0
DWIDTH 19 0
BBX 16 22 1 -4
BITMAP
FF0F
FF0F
FF0F
FF8F
FF8F
FF8F
FBCF
FBCF
FBCF
F9EF
F9EF
F9EF
F8FF
F8FF
F8FF
F87F
F87F
F87F
0000
0000
0FF8
0FF8
ENDCHAR
STARTCHAR 1E49
ENCODING 7753
SWIDTH 640 0
DWIDTH 16 0
BBX 14 18 1 -4
BITMAP
0040
FBF8
FFF8
FFFC
FCFC
F87C
F83C
F83C
F83C
F83C
F83C
F83C
F83C
F83C
0000
0000
1FE0
1FE0
ENDCHAR
STARTCHAR 1E4C
ENCODING 7756
SWIDTH 760 0
DWIDTH 19 0
BBX 17 25 1 0
BITMAP
007000
00E000
038000
000000
07B000
0FF000
0DE000
0FF800
1FFC00
3FFE00
7C1F00
780F00
F80F80
F80F80
F80780
F00780
F00780
F80F80
F80F80
F80F80
7C1F00
7E3F00
3FFE00
1FFC00
07F000
ENDCHAR
STARTCHAR 1E4D
ENCODING 7757
SWIDTH 640 0
DWIDTH 16 0
BBX 15 22 1 0
BITMAP
01F0
0380
0400
0000
1F60
1FE0
19C0
0000
0100
1FE0
3FF8
7FF8
F87C
F83C
F03E
F03E
F03E
F83C
FCFC
7FF8
3FF0
1FE0
ENDCHAR
STARTCHAR 1E4E
ENCODING 7758
SWIDTH 760 0
DWIDTH 19 0
BBX 17 27 1 0
BITMAP
0E3800
1F7C00
1F3C00
0C1800
030000
07B800
0EF000
002000
01E000
0FF800
1FFC00
3FFE00
7C1F00
780F00
F80F80
F80F80
F80780
F00780
F00780
F80F80
F80F80
F80F80
7C1F00
7E3F00
3FFE00
1FFC00
07F000
ENDCHAR
STARTCHAR 1E4F
ENCODING 7759
SWIDTH 640 0
DWIDTH 16 0
BBX 15 23 1 0
BITMAP
1870
3CF8
3CF8
1860
0000
1F60
1FE0
19C0
0000
0100
1FE0
3FF8
7FF8
F87C
F83C
F03E
F03E
F03E
F83C
FCFC
7FF8
3FF0
1FE0
ENDCHAR
STARTCHAR 1E50
ENCODING 7760
SWIDTH 760 0
DWIDTH 19 0
BBX 17 26 1 0
BITMAP
0F0000
03C000
002000
000000
0FF800
0FF800
000000
01E000
0FF800
1FFC00
3FFE00
7C1F00
780F00
F80F80
F80F80
F80780
F00780
F00780
F80F80
F80F80
F80F80
7C1F00
7E3F00
3FFE00
1FFC00
07F000
ENDCHAR
STARTCHAR 1E51
ENCODING 7761
SWIDTH 640 0
DWIDTH 16 0
BBX 15 22 1 0
BITMAP
1E00
0700
0380
0000
1FE0
1FE0
0000
0000
0100
1FE0
3FF8
7FF8
F87C
F83C
F03E
F03E
F03E
F83C
FCFC
7FF8
3FF0
1FE0
ENDCHAR
STARTCHAR 1E52
ENCODING 7762
SWIDTH 760 0
DWIDTH 19 0
BBX 17 26 1 0
BITMAP
007800
00E000
030000
000000
0FF800
0FF800
000000
01E000
0FF800
1FFC00
3FFE00
7C1F00
780F00
F80F80
F80F80
F80780
F00780
F00780
F80F80
F80F80
F80F80
7C1F00
7E3F00
3FFE00
1FFC00
07F000
ENDCHAR
STARTCHAR 1E53
ENCODING 7763
SWIDTH 640 0
DWIDTH 16 0
BBX 15 23 1 0
BITMAP
01E0
0380
0700
0000
0000
1FE0
1FE0
0000
0000
0100
1FE0
3FF8
7FF8
F87C
F83C
F03E
F03E
F03E
F83C
FCFC
7FF8
3FF0
1FE0
ENDCHAR
STARTCHAR 1E5A
ENCODING 7770
SWIDTH 640 0
DWIDTH 16 0
BBX 14 23 1 -5
BITMAP
FFF0
FFF8
FFFC
F87C
F83C
F83C
F87C
F8F8
FFF8
FFF0
FFF8
F87C
F87C
F87C
F87C
F87C
F87C
F83C
0000
0100
07C0
07C0
07C0
ENDCHAR
STARTCHAR 1E5B
ENCODING 7771
SWIDTH 480 0
DWIDTH 12 0
BBX 11 19 1 -5
BITMAP
00A0
FBC0
FFC0
FFC0
FF40
FC00
F800
F800
F800
F800
F800
F800
F800
F800
0000
2000
F800
F800
F800
ENDCHAR
STARTCHAR 1E5E
ENCODING 7774
SWIDTH 640 0
DWIDTH 16 0
BBX 14 22 1 -4
BITMAP
FFF0
FFF8
FFFC
F87C
F83C
F83C
F87C
F8F8
FFF8
FFF0
FFF8
F87C
F87C
F87C
F87C
F87C
F87C
F83C
0000
0000
1FF0
1FF0
ENDCHAR
STARTCHAR 1E5F
ENCODING 7775
SWIDTH 480 0
DWIDTH 12 0
BBX 12 18 0 -4
BITMAP
0050
7DE0
7FE0
7FE0
7FA0
7E00
7C00
7C00
7C00
7C00
7C00
7C00
7C00
7C00
0000
0000
FE00
FE00
ENDCHAR
STARTCHAR 1E60
ENCODING 7776
SWIDTH 640 0
DWIDTH 16 0
BBX 14 24 1 0
BITMAP
0200
0780
0FC0
0780
0200
0780
3FF0
7FF8
FFF8
F87C
F07C
F800
FC00
7F80
3FE0
1FF8
03F8
00FC
F07C
F83C
FC7C
7FF8
7FF8
1FE0
ENDCHAR
STARTCHAR 1E61
ENCODING 7777
SWIDTH 560 0
DWIDTH 14 0
BBX 12 19 1 0
BITMAP
0F00
0F80
0F00
0700
0000
0200
3FC0
7FE0
FFF0
F0F0
F800
FFC0
7FE0
0FF0
00F0
F0F0
FFF0
7FE0
3FC0
ENDCHAR
STARTCHAR 1E62
ENCODING 7778
SWIDTH 640 0
DWIDTH 16 0
BBX 14 24 1 -5
BITMAP
0780
3FF0
7FF8
FFF8
F87C
F07C
F800
FC00
7F80
3FE0
1FF8
03F8
00FC
F07C
F83C
FC7C
7FF8
7FF8
1FE0
0000
0300
0780
0F80
0780
ENDCHAR
STARTCHAR 1E63
ENCODING 7779
SWIDTH 560 0
DWIDTH 14 0
BBX 12 19 1 -5
BITMAP
0200
3FC0
7FE0
FFF0
F0F0
F800
FFC0
7FE0
0FF0
00F0
F0F0
FFF0
7FE0
3FC0
0000
0600
0F00
0F80
0F00
ENDCHAR
STARTCHAR 1E64
ENCODING 7780
SWIDTH 640 0
DWIDTH 16 0
BBX 14 28 1 0
BITMAP
0300
0780
07C0
0780
00E0
01C0
0780
0000
0000
0780
3FF0
7FF8
FFF8
F87C
F07C
F800
FC00
7F80
3FE0
1FF8
03F8
00FC
F07C
F83C
FC7C
7FF8
7FF8
1FE0
ENDCHAR
STARTCHAR 1E65
ENCODING 7781
SWIDTH 560 0
DWIDTH 14 0
BBX 12 24 1 0
BITMAP
0F00
0F80
0F80
0700
0000
0040
0380
0700
0E00
0000
0200
3FC0
7FE0
FFF0
F0F0
F800
FFC0
7FE0
0FF0
00F0
F0F0
FFF0
7FE0
3FC0
ENDCHAR
STARTCHAR 1E66
ENCODING 7782
SWIDTH 640 0
DWIDTH 16 0
BBX 14 28 1 0
BITMAP
0200
0780
0FC0
0780
0200
2000
1CE0
0FC0
0300
0780
3FF0
7FF8
FFF8
F87C
F07C
F800
FC00
7F80
3FE0
1FF8
03F8
00FC
F07C
F83C
FC7C
7FF8
7FF8
1FE0
ENDCHAR
STARTCHAR 1E67
ENCODING 7783
SWIDTH 560 0
DWIDTH 14 0
BBX 12 24 1 0
BITMAP
0200
0F00
0F80
0F00
0200
0020
39C0
1F80
0F00
0000
0200
3FC0
7FE0
FFF0
F0F0
F800
FFC0
7FE0
0FF0
00F0
F0F0
FFF0
7FE0
3FC0
ENDCHAR
STARTCHAR 1E68
ENCODING 7784
SWIDTH 640 0
DWIDTH 16 0
BBX 14 29 1 -5
BITMAP
0200
0780
0FC0
0780
0200
0780
3FF0
7FF8
FFF8
F87C
F07C
F800
FC00
7F80
3FE0
1FF8
03F8
00FC
F07C
F83C
FC7C
7FF8
7FF8
1FE0
0000
0300
0780
0F80
0780
ENDCHAR
STARTCHAR 1E69
ENCODING 7785
SWIDTH 560 0
DWIDTH 14 0
BBX 12 24 1 -5
BITMAP
0F00
0F80
0F00
0700
0000
0200
3FC0
7FE0
FFF0
F0F0
F800
FFC0
7FE0
0FF0
00F0
F0F0
FFF0
7FE0
3FC0
0000
0600
0F00
0F80
0F00
ENDCHAR
STARTCHAR 1E6C
ENCODING 7788
SWIDTH 600 0
DWIDTH 15 0
BBX 13 23 1 -5
BITMAP
FFF8
FFF8
FFF8
0F80
0F80
0F80
0F80
0F80
0F80
0F80
0F80
0F80
0F80
0F80
0F80
0F80
0F80
0F80
0000
0200
0F80
0F80
0F80
ENDCHAR
STARTCHAR 1E6D
ENCODING 7789
SWIDTH 480 0
DWIDTH 12 0
BBX 12 23 0 -5
BITMAP
1F00
1F00
1F00
1F00
3F00
FFF0
FFF0
FFF0
1F00
1F00
1F00
1F00
1F00
1F00
1F00
1FC0
0FC0
07C0
0000
0300
0780
0F80
0780
ENDCHAR
STARTCHAR 1E6E
ENCODING 7790
SWIDTH 600 0
DWIDTH 15 0
BBX 13 22 1 -4
BITMAP
FFF8
FFF8
FFF8
0F80
0F80
0F80
0F80
0F80
0F80
0F80
0F80
0F80
0F80
0F80
0F80
0F80
0F80
0F80
0000
0000
3FE0
3FE0
ENDCHAR
STARTCHAR 1E6F
ENCODING 7791
SWIDTH 480 0
DWIDTH 12 0
BBX 12 22 0 -4
BITMAP
1F00
1F00
1F00
1F00
3F00
FFF0
FFF0
FFF0
1F00
1F00
1F00
1F00
1F00
1F00
1F00
1FC0
0FC0
07C0
0000
0000
1FE0
1FE0
ENDCHAR
STARTCHAR 1E78
ENCODING 7800
SWIDTH 680 0
DWIDTH 17 0
BBX 15 26 1 0
BITMAP
00F0
01C0
0600
0600
0F70
1DE0
0040
0000
F83E
F83E
F83E
F83E
F83E
F83E
F83E
F83E
F83E
F83E
F83E
F83E
F83E
783C
7C7C
7FFC
3FF8
0FE0
ENDCHAR
STARTCHAR 1E79
ENCODING 7801
SWIDTH 640 0
DWIDTH 16 0
BBX 14 23 1 0
BITMAP
01E0
0380
0700
0000
0000
1E60
1FE0
19C0
0000
0000
F87C
F87C
F87C
F87C
F87C
F87C
F87C
F87C
F87C
7FFC
7FFC
7FFC
3F7C
ENDCHAR
STARTCHAR 1E7A
ENCODING 7802
SWIDTH 680 0
DWIDTH 17 0
BBX 15 27 1 0
BITMAP
1C70
3EF8
3E78
1830
0000
1FF0
1FF0
0000
0000
F83E
F83E
F83E
F83E
F83E
F83E
F83E
F83E
F83E
F83E
F83E
F83E
F83E
783C
7C7C
7FFC
3FF8
0FE0
ENDCHAR
STARTCHAR 1E7B
ENCODING 7803
SWIDTH 640 0
DWIDTH 16 0
BBX 14 24 1 0
BITMAP
1860
3CF0
7CF8
3870
0000
0000
1FE0
1FE0
0000
0000
0000
F87C
F87C
F87C
F87C
F87C
F87C
F87C
F87C
F87C
7FFC
7FFC
7FFC
3F7C
ENDCHAR
STARTCHAR 1E80
ENCODING 7808
SWIDTH 960 0
DWIDTH 24 0
BBX 22 22 1 0
BITMAP
01E000
007000
000800
000000
F8FC3C
F8FC3C
F8FC3C
F8FE7C
78FE7C
79FE7C
79FE78
79EE78
79EE78
79CF78
7DCF78
3FCF78
3FCF78
3FCFF0
3FC7F0
3FC7F0
3FC7F0
3F87F0
ENDCHAR
STARTCHAR 1E81
ENCODING 7809
SWIDTH 840 0
DWIDTH 21 0
BBX 21 18 0 0
BITMAP
03E000
00E000
007800
000000
000000
F8F8F8
78F8F0
78F8F0
79FCF0
79DCF0
7DDDF0
3DDDE0
3DDDE0
3FDFE0
3FDFE0
3F8FE0
3F8FC0
1F8FC0
ENDCHAR
STARTCHAR 1E82
ENCODING 7810
SWIDTH 960 0
DWIDTH 24 0
BBX 22 22 1 0
BITMAP
001F00
003800
004000
000000
F8FC3C
F8FC3C
F8FC3C
F8FE7C
78FE7C
79FE7C
79FE78
79EE78
79EE78
79CF78
7DCF78
3FCF78
3FCF78
3FCFF0
3FC7F0
3FC7F0
3FC7F0
3F87F0
ENDCHAR
STARTCHAR 1E83
ENCODING 7811
SWIDTH 840 0
DWIDTH 21 0
BBX 21 18 0 0
BITMAP
003E00
003800
00F000
000000
000000
F8F8F8
78F8F0
78F8F0
79FCF0
79DCF0
7DDDF0
3DDDE0
3DDDE0
3FDFE0
3FDFE0
3F8FE0
3F8FC0
1F8FC0
ENDCHAR
STARTCHAR 1E84
ENCODING 7812
SWIDTH 960 0
DWIDTH 24 0
BBX 22 23 1 0
BITMAP
018700
03CF80
03CF80
018600
000000
F8FC3C
F8FC3C
F8FC3C
F8FE7C
78FE7C
79FE7C
79FE78
79EE78
79EE78
79CF78
7DCF78
3FCF78
3FCF78
3FCFF0
3FC7F0
3FC7F0
3FC7F0
3F87F0
ENDCHAR
STARTCHAR 1E85
ENCODING 7813
SWIDTH 840 0
DWIDTH 21 0
BBX 21 19 0 0
BITMAP
010400
078F00
07DF00
038E00
000000
000000
F8F8F8
78F8F0
78F8F0
79FCF0
79DCF0
7DDDF0
3DDDE0
3DDDE0
3FDFE0
3FDFE0
3F8FE0
3F8FC0
1F8FC0
ENDCHAR
STARTCHAR 1E8F
ENCODING 7823
SWIDTH 560 0
DWIDTH 14 0
BBX 14 25 0 -6
BITMAP
0780
07C0
07C0
0380
0000
8000
787C
787C
7C78
3C78
3CF8
3CF0
1EF0
1EF0
1EE0
0FE0
0FE0
0FC0
07C0
07C0
0F80
7F80
7F00
7E00
7800
ENDCHAR
STARTCHAR 1E92
ENCODING 7826
SWIDTH 600 0
DWIDTH 15 0
BBX 13 23 1 -5
BITMAP
7FF8
7FF8
7FF8
01F0
01F0
03E0
03C0
07C0
0F80
0F00
1F00
3E00
3C00
7C00
F800
FFF8
FFF8
FFF8
0000
0200
0F80
0F80
0F80
ENDCHAR
STARTCHAR 1E93
ENCODING 7827
SWIDTH 520 0
DWIDTH 13 0
BBX 11 18 1 -5
BITMAP
FFE0
FFE0
FFE0
03E0
07C0
0F80
1F00
3E00
7C00
F800
FFE0
FFE0
FFE0
0000
0400
1F00
1F00
1F00
ENDCHAR
STARTCHAR 1E97
ENCODING 7831
SWIDTH 480 0
DWIDTH 12 0
BBX 12 22 0 0
BITMAP
70C0
F9E0
F9E0
30C0
1F00
1F00
1F00
1F00
3F00
FFF0
FFF0
FFF0
1F00
1F00
1F00
1F00
1F00
1F00
1F00
1FC0
0FC0
07C0
ENDCHAR
STARTCHAR 1E9E
ENCODING 7838
SWIDTH 680 0
DWIDTH 17 0
BBX 16 18 1 0
BITMAP
3FFC
7FFC
7FFC
F87C
F8F8
F9F0
FBE0
FBFC
F9FE
F9FE
F81E
F81E
F81F
F81E
FA3E
FBFE
FBFC
FBF0
ENDCHAR
STARTCHAR 1EA0
ENCODING 7840
SWIDTH 680 0
DWIDTH 17 0
BBX 16 23 1 -5
BITMAP
0FE0
0FF0
1FF0
1EF0
1EF0
1EF8
3EF8
3C78
3C78
3C7C
7C7C
7FFC
7FFC
7FFC
F83E
F83E
F01E
F01F
0000
0100
07C0
07C0
07C0
ENDCHAR
STARTCHAR 1EA1
ENCODING 7841
SWIDTH 640 0
DWIDTH 16 0
BBX 14 19 1 -5
BITMAP
0200
3FE0
7FF8
FFF8
F87C
007C
1FFC
7FFC
FF7C
F07C
F8FC
FFFC
FFFC
3F3C
0000
0200
0F80
0F80
0F80
ENDCHAR
STARTCHAR 1EA2
ENCODING 7842
SWIDTH 680 0
DWIDTH 17 0
BBX 16 23 1 0
BITMAP
0700
07C0
00C0
0380
0000
0FE0
0FF0
1FF0
1EF0
1EF0
1EF8
3EF8
3C78
3C78
3C7C
7C7C
7FFC
7FFC
7FFC
F83E
F83E
F01E
F01F
ENDCHAR
STARTCHAR 1EA3
ENCODING 7843
SWIDTH 640 0
DWIDTH 16 0
BBX 14 19 1 0
BITMAP
0F00
03C0
01C0
0300
0000
0200
3FE0
7FF8
FFF8
F87C
007C
1FFC
7FFC
FF7C
F07C
F8FC
FFFC
FFFC
3F3C
ENDCHAR
STARTCHAR 1EA4
ENCODING 7844
SWIDTH 680 0
DWIDTH 17 0
BBX 16 24 1 0
BITMAP
0007
000C
07D0
0EE0
1C70
0000
0FE0
0FF0
1FF0
1EF0
1EF0
1EF8
3EF8
3C78
3C78
3C7C
7C7C
7FFC
7FFC
7FFC
F83E
F83E
F01E
F01F
ENDCHAR
STARTCHAR 1EA5
ENCODING 7845
SWIDTH 640 0
DWIDTH 16 0
BBX 15 21 1 0
BITMAP
001E
0038
0070
0780
0FC0
1CE0
0010
0200
3FE0
7FF8
FFF8
F87C
007C
1FFC
7FFC
FF7C
F07C
F8FC
FFFC
FFFC
3F3C
ENDCHAR
STARTCHAR 1EA6
ENCODING 7846
SWIDTH 680 0
DWIDTH 17 0
BBX 16 24 1 0
BITMAP
0070
0018
07C4
0EE0
1C70
0000
0FE0
0FF0
1FF0
1EF0
1EF0
1EF8
3EF8
3C78
3C78
3C7C
7C7C
7FFC
7FFC
7FFC
F83E
F83E
F01E
F01F
ENDCHAR
STARTCHAR 1EA7
ENCODING 7847
SWIDTH 640 0
DWIDTH 16 0
BBX 14 21 1 0
BITMAP
00E0
0070
0038
0780
0FC0
1CE0
0010
0200
3FE0
7FF8
FFF8
F87C
007C
1FFC
7FFC
FF7C
F07C
F8FC
FFFC
FFFC
3F3C
ENDCHAR
STARTCHAR 1EA8
ENCODING 7848
SWIDTH 680 0
DWIDTH 17 0
BBX 16 25 1 0
BITMAP
007C
000E
003C
07D0
0EE0
1C70
0000
0FE0
0FF0
1FF0
1EF0
1EF0
1EF8
3EF8
3C78
3C78
3C7C
7C7C
7FFC
7FFC
7FFC
F83E
F83E
F01E
F01F
ENDCHAR
STARTCHAR 1EA9
ENCODING 7849
SWIDTH 640 0
DWIDTH 16 0
BBX 14 21 1 0
BITMAP
0078
000C
0038
0780
0FC0
1CE0
0010
0200
3FE0
7FF8
FFF8
F87C
007C
1FFC
7FFC
FF7C
F07C
F8FC
FFFC
FFFC
3F3C
ENDCHAR
STARTCHAR 1EAA
ENCODING 7850
SWIDTH 680 0
DWIDTH 17 0
BBX 16 27 1 0
BITMAP
0600
0F70
1DE0
0040
0000
07C0
0EE0
1C70
0000
0FE0
0FF0
1FF0
1EF0
1EF0
1EF8
3EF8
3C78
3C78
3C7C
7C7C
7FFC
7FFC
7FFC
F83E
F83E
F01E
F01F
ENDCHAR
STARTCHAR 1EAB
ENCODING 7851
SWIDTH 640 0
DWIDTH 16 0
BBX 14 23 1 0
BITMAP
0E60
1F60
19E0
0080
0000
0780
0FC0
1CE0
0010
0200
3FE0
7FF8
FFF8
F87C
007C
1FFC
7FFC
FF7C
F07C
F8FC
FFFC
FFFC
3F3C
ENDCHAR
STARTCHAR 1EAC
ENCODING 7852
SWIDTH 680 0
DWIDTH 17 0
BBX 16 27 1 -5
BITMAP
07C0
0EE0
1C70
0000
0FE0
0FF0
1FF0
1EF0
1EF0
1EF8
3EF8
3C78
3C78
3C7C
7C7C
7FFC
7FFC
7FFC
F83E
F83E
F01E
F01F
0000
0100
07C0
07C0
07C0
ENDCHAR
STARTCHAR 1EAD
ENCODING 7853
SWIDTH 640 0
DWIDTH 16 0
BBX 14 23 1 -5
BITMAP
0780
0FC0
1CE0
0010
0200
3FE0
7FF8
FFF8
F87C
007C
1FFC
7FFC
FF7C
F07C
F8FC
FFFC
FFFC
3F3C
0000
0200
0F80
0F80
0F80
ENDCHAR
STARTCHAR 1EAE
ENCODING 7854
SWIDTH 680 0
DWIDTH 17 0
BBX 16 25 1 0
BITMAP
00F0
01C0
0600
0C60
0FE0
0380
0000
0FE0
0FF0
1FF0
1EF0
1EF0
1EF8
3EF8
3C78
3C78
3C7C
7C7C
7FFC
7FFC
7FFC
F83E
F83E
F01E
F01F
ENDCHAR
STARTCHAR 1EAF
ENCODING 7855
SWIDTH 640 0
DWIDTH 16 0
BBX 14 22 1 0
BITMAP
00F0
01C0
0380
1CE0
1CE0
0FC0
0380
0000
0200
3FE0
7FF8
FFF8
F87C
007C
1FFC
7FFC
FF7C
F07C
F8FC
FFFC
FFFC
3F3C
ENDCHAR
STARTCHAR 1EB0
ENCODING 7856
SWIDTH 680 0
DWIDTH 17 0
BBX 16 25 1 0
BITMAP
1E00
0780
0040
0C60
0FE0
0380
0000
0FE0
0FF0
1FF0
1EF0
1EF0
1EF8
3EF8
3C78
3C78
3C7C
7C7C
7FFC
7FFC
7FFC
F83E
F83E
F01E
F01F
ENDCHAR
STARTCHAR 1EB1
ENCODING 7857
SWIDTH 640 0
DWIDTH 16 0
BBX 14 22 1 0
BITMAP
3C00
0E00
0700
1CE0
1CE0
0FC0
0380
0000
0200
3FE0
7FF8
FFF8
F87C
007C
1FFC
7FFC
FF7C
F07C
F8FC
FFFC
FFFC
3F3C
ENDCHAR
STARTCHAR 1EB2
ENCODING 7858
SWIDTH 680 0
DWIDTH 17 0
BBX 16 26 1 0
BITMAP
0700
07C0
00C0
0380
0C60
0FE0
0380
0000
0FE0
0FF0
1FF0
1EF0
1EF0
1EF8
3EF8
3C78
3C78
3C7C
7C7C
7FFC
7FFC
7FFC
F83E
F83E
F01E
F01F
ENDCHAR
STARTCHAR 1EB3
ENCODING 7859
SWIDTH 640 0
DWIDTH 16 0
BBX 14 23 1 0
BITMAP
07C0
00C0
03C0
0000
1CE0
1CE0
0FC0
0380
0000
0200
3FE0
7FF8
FFF8
F87C
007C
1FFC
7FFC
FF7C
F07C
F8FC
FFFC
FFFC
3F3C
ENDCHAR
STARTCHAR 1EB4
ENCODING 7860
SWIDTH 680 0
DWIDTH 17 0
BBX 16 26 1 0
BITMAP
0600
0F70
1DE0
0040
0C60
0FE0
0380
0000
0FE0
0FF0
1FF0
1EF0
1EF0
1EF8
3EF8
3C78
3C78
3C7C
7C7C
7FFC
7FFC
7FFC
F83E
F83E
F01E
F01F
ENDCHAR
STARTCHAR 1EB5
ENCODING 7861
SWIDTH 640 0
DWIDTH 16 0
BBX 14 23 1 0
BITMAP
0E70
1FE0
19E0
0000
1CE0
1CE0
0FC0
0380
0000
0200
3FE0
7FF8
FFF8
F87C
007C
1FFC
7FFC
FF7C
F07C
F8FC
FFFC
FFFC
3F3C
ENDCHAR
STARTCHAR 1EB6
ENCODING 7862
SWIDTH 680 0
DWIDTH 17 0
BBX 16 27 1 -5
BITMAP
0C60
0FE0
0380
0000
0FE0
0FF0
1FF0
1EF0
1EF0
1EF8
3EF8
3C78
3C78
3C7C
7C7C
7FFC
7FFC
7FFC
F83E
F83E
F01E
F01F
0000
0100
07C0
07C0
07C0
ENDCHAR
STARTCHAR 1EB7
ENCODING 7863
SWIDTH 640 0
DWIDTH 16 0
BBX 14 24 1 -5
BITMAP
1CE0
1CE0
0FC0
0380
0000
0200
3FE0
7FF8
FFF8
F87C
007C
1FFC
7FFC
FF7C
F07C
F8FC
FFFC
FFFC
3F3C
0000
0200
0F80
0F80
0F80
ENDCHAR
STARTCHAR 1EB8
ENCODING 7864
SWIDTH 560 0
DWIDTH 14 0
BBX 12 23 1 -5
BITMAP
FFF0
FFF0
FFF0
F800
F800
F800
F800
FFE0
FFE0
FFE0
F800
F800
F800
F800
F800
FFF0
FFF0
FFF0
0000
0200
0F80
0F80
0F80
ENDCHAR
STARTCHAR 1EB9
ENCODING 7865
SWIDTH 640 0
DWIDTH 16 0
BBX 15 19 1 -5
BITMAP
0100
1FE0
3FF8
7FF8
F87C
F03C
FFFE
FFFE
FFFE
F800
F87C
7FFC
3FF8
1FE0
0000
0100
07C0
07C0
0780
ENDCHAR
STARTCHAR 1EBA
ENCODING 7866
SWIDTH 560 0
DWIDTH 14 0
BBX 12 23 1 0
BITMAP
0E00
0F80
0180
0700
0000
FFF0
FFF0
FFF0
F800
F800
F800
F800
FFE0
FFE0
FFE0
F800
F800
F800
F800
F800
FFF0
FFF0
FFF0
ENDCHAR
STARTCHAR 1EBB
ENCODING 7867
SWIDTH 640 0
DWIDTH 16 0
BBX 15 19 1 0
BITMAP
0F00
03C0
01C0
0300
0000
0100
1FE0
3FF8
7FF8
F87C
F03C
FFFE
FFFE
FFFE
F800
F87C
7FFC
3FF8
1FE0
ENDCHAR
STARTCHAR 1EBC
ENCODING 7868
SWIDTH 560 0
DWIDTH 14 0
BBX 12 23 1 0
BITMAP
0C00
1EE0
3BC0
0180
0000
FFF0
FFF0
FFF0
F800
F800
F800
F800
FFE0
FFE0
FFE0
F800
F800
F800
F800
F800
FFF0
FFF0
FFF0
ENDCHAR
STARTCHAR 1EBD
ENCODING 7869
SWIDTH 640 0
DWIDTH 16 0
BBX 15 18 1 0
BITMAP
0F60
1FE0
19C0
0000
0100
1FE0
3FF8
7FF8
F87C
F03C
FFFE
FFFE
FFFE
F800
F87C
7FFC
3FF8
1FE0
ENDCHAR
STARTCHAR 1EBE
ENCODING 7870
SWIDTH 560 0
DWIDTH 14 0
BBX 15 24 1 0
BITMAP
001E
0038
0FC0
1DC0
38E0
0000
FFF0
FFF0
FFF0
F800
F800
F800
F800
FFE0
FFE0
FFE0
F800
F800
F800
F800
F800
FFF0
FFF0
FFF0
ENDCHAR
STARTCHAR 1EBF
ENCODING 7871
SWIDTH 640 0
DWIDTH 16 0
BBX 15 21 1 0
BITMAP
001E
0038
0030
07C0
0EC0
1CF0
0000
0100
1FE0
3FF8
7FF8
F87C
F03C
FFFE
FFFE
FFFE
F800
F87C
7FFC
3FF8
1FE0
ENDCHAR
STARTCHAR 1EC0
ENCODING 7872
SWIDTH 560 0
DWIDTH 14 0
BBX 13 24 1 0
BITMAP
00E0
0030
0F88
1DC0
38E0
0000
FFF0
FFF0
FFF0
F800
F800
F800
F800
FFE0
FFE0
FFE0
F800
F800
F800
F800
F800
FFF0
FFF0
FFF0
ENDCHAR
STARTCHAR 1EC1
ENCODING 7873
SWIDTH 640 0
DWIDTH 16 0
BBX 15 21 1 0
BITMAP
00E0
0070
0038
0780
0EC0
1CF0
0000
0100
1FE0
3FF8
7FF8
F87C
F03C
FFFE
FFFE
FFFE
F800
F87C
7FFC
3FF8
1FE0
ENDCHAR
STARTCHAR 1EC2
ENCODING 7874
SWIDTH 560 0
DWIDTH 14 0
BBX 14 25 1 0
BITMAP
00F8
001C
0078
0FA0
1DC0
38E0
0000
FFF0
FFF0
FFF0
F800
F800
F800
F800
FFE0
FFE0
FFE0
F800
F800
F800
F800
F800
FFF0
FFF0
FFF0
ENDCHAR
STARTCHAR 1EC3
ENCODING 7875
SWIDTH 640 0
DWIDTH 16 0
BBX 15 21 1 0
BITMAP
0078
000C
0038
0780
0EC0
1CF0
0000
0100
1FE0
3FF8
7FF8
F87C
F03C
FFFE
FFFE
FFFE
F800
F87C
7FFC
3FF8
1FE0
ENDCHAR
STARTCHAR 1EC4
ENCODING 7876
SWIDTH 560 0
DWIDTH 14 0
BBX 12 27 1 0
BITMAP
0C00
1EE0
3BC0
0180
0000
0F80
1DC0
38E0
0000
FFF0
FFF0
FFF0
F800
F800
F800
F800
FFE0
FFE0
FFE0
F800
F800
F800
F800
F800
FFF0
FFF0
FFF0
ENDCHAR
STARTCHAR 1EC5
ENCODING 7877
SWIDTH 640 0
DWIDTH 16 0
BBX 15 23 1 0
BITMAP
0E70
1F60
19E0
0080
0000
0780
0EC0
1CF0
0000
0100
1FE0
3FF8
7FF8
F87C
F03C
FFFE
FFFE
FFFE
F800
F87C
7FFC
3FF8
1FE0
ENDCHAR
STARTCHAR 1EC6
ENCODING 7878
SWIDTH 560 0
DWIDTH 14 0
BBX 12 27 1 -5
BITMAP
0F80
1DC0
38E0
0000
FFF0
FFF0
FFF0
F800
F800
F800
F800
FFE0
FFE0
FFE0
F800
F800
F800
F800
F800
FFF0
FFF0
FFF0
0000
0200
0F80
0F80
0F80
ENDCHAR
STARTCHAR 1EC7
ENCODING 7879
SWIDTH 640 0
DWIDTH 16 0
BBX 15 23 1 -5
BITMAP
0780
0EC0
1CF0
0000
0100
1FE0
3FF8
7FF8
F87C
F03C
FFFE
FFFE
FFFE
F800
F87C
7FFC
3FF8
1FE0
0000
0100
07C0
07C0
0780
ENDCHAR
STARTCHAR 1EC8
ENCODING 7880
SWIDTH 280 0
DWIDTH 7 0
BBX 5 23 1 0
BITMAP
E0
F8
18
70
00
F8
F8
F8
F8
F8
F8
F8
F8
F8
F8
F8
F8
F8
F8
F8
F8
F8
F8
ENDCHAR
STARTCHAR 1EC9
ENCODING 7881
SWIDTH 280 0
DWIDTH 7 0
BBX 5 19 1 0
BITMAP
F0
78
38
70
00
00
F8
F8
F8
F8
F8
F8
F8
F8
F8
F8
F8
F8
F8
ENDCHAR
STARTCHAR 1ECA
ENCODING 7882
SWIDTH 280 0
DWIDTH 7 0
BBX 5 23 1 -5
BITMAP
F8
F8
F8
F8
F8
F8
F8
F8
F8
F8
F8
F8
F8
F8
F8
F8
F8
F8
00
20
F8
F8
F8
ENDCHAR
STARTCHAR 1ECB
ENCODING 7883
SWIDTH 280 0
DWIDTH 7 0
BBX 5 24 1 -5
BITMAP
F0
F8
F8
70
00
00
F8
F8
F8
F8
F8
F8
F8
F8
F8
F8
F8
F8
F8
00
20
F8
F8
F8
ENDCHAR
STARTCHAR 1ECC
ENCODING 7884
SWIDTH 760 0
DWIDTH 19 0
BBX 17 24 1 -5
BITMAP
01E000
0FF800
1FFC00
3FFE00
7C1F00
780F00
F80F80
F80F80
F80780
F00780
F00780
F80F80
F80F80
F80F80
7C1F00
7E3F00
3FFE00
1FFC00
07F000
000000
008000
03E000
03E000
03E000
ENDCHAR
STARTCHAR 1ECD
ENCODING 7885
SWIDTH 640 0
DWIDTH 16 0
BBX 15 19 1 -5
BITMAP
0100
1FE0
3FF8
7FF8
F87C
F83C
F03E
F03E
F03E
F83C
FCFC
7FF8
3FF0
1FE0
0000
0300
0780
07C0
0780
ENDCHAR
STARTCHAR 1ECE
ENCODING 7886
SWIDTH 760 0
DWIDTH 19 0
BBX 17 23 1 0
BITMAP
038000
03E000
006000
01C000
01E000
0FF800
1FFC00
3FFE00
7C1F00
780F00
F80F80
F80F80
F80780
F00780
F00780
F80F80
F80F80
F80F80
7C1F00
7E3F00
3FFE00
1FFC00
07F000
ENDCHAR
STARTCHAR 1ECF
ENCODING 7887
SWIDTH 640 0
DWIDTH 16 0
BBX 15 19 1 0
BITMAP
0F00
03C0
01C0
0300
0000
0100
1FE0
3FF8
7FF8
F87C
F83C
F03E
F03E
F03E
F83C
FCFC
7FF8
3FF0
1FE0
ENDCHAR
STARTCHAR 1ED0
ENCODING 7888
SWIDTH 760 0
DWIDTH 19 0
BBX 17 24 1 0
BITMAP
000380
000600
03E800
077000
0E3800
01E000
0FF800
1FFC00
3FFE00
7C1F00
780F00
F80F80
F80F80
F80780
F00780
F00780
F80F80
F80F80
F80F80
7C1F00
7E3F00
3FFE00
1FFC00
07F000
ENDCHAR
STARTCHAR 1ED1
ENCODING 7889
SWIDTH 640 0
DWIDTH 16 0
BBX 15 21 1 0
BITMAP
001E
0038
0030
07C0
0EC0
1CF0
0000
0100
1FE0
3FF8
7FF8
F87C
F83C
F03E
F03E
F03E
F83C
FCFC
7FF8
3FF0
1FE0
ENDCHAR
STARTCHAR 1ED2
ENCODING 7890
SWIDTH 760 0
DWIDTH 19 0
BBX 17 24 1 0
BITMAP
003800
000C00
03E200
077000
0E3800
01E000
0FF800
1FFC00
3FFE00
7C1F00
780F00
F80F80
F80F80
F80780
F00780
F00780
F80F80
F80F80
F80F80
7C1F00
7E3F00
3FFE00
1FFC00
07F000
ENDCHAR
STARTCHAR 1ED3
ENCODING 7891
SWIDTH 640 0
DWIDTH 16 0
BBX 15 21 1 0
BITMAP
00E0
0070
0038
0780
0EC0
1CF0
0000
0100
1FE0
3FF8
7FF8
F87C
F83C
F03E
F03E
F03E
F83C
FCFC
7FF8
3FF0
1FE0
ENDCHAR
STARTCHAR 1ED4
ENCODING 7892
SWIDTH 760 0
DWIDTH 19 0
BBX 17 25 1 0
BITMAP
003E00
000700
001E00
03E800
077000
0E3800
01E000
0FF800
1FFC00
3FFE00
7C1F00
780F00
F80F80
F80F80
F80780
F00780
F00780
F80F80
F80F80
F80F80
7C1F00
7E3F00
3FFE00
1FFC00
07F000
ENDCHAR
STARTCHAR 1ED5
ENCODING 7893
SWIDTH 640 0
DWIDTH 16 0
BBX 15 21 1 0
BITMAP
0078
000C
0038
0780
0EC0
1CF0
0000
0100
1FE0
3FF8
7FF8
F87C
F83C
F03E
F03E
F03E
F83C
FCFC
7FF8
3FF0
1FE0
ENDCHAR
STARTCHAR 1ED6
ENCODING 7894
SWIDTH 760 0
DWIDTH 19 0
BBX 17 27 1 0
BITMAP
030000
07B800
0EF000
002000
000000
03E000
077000
0E3800
01E000
0FF800
1FFC00
3FFE00
7C1F00
780F00
F80F80
F80F80
F80780
F00780
F00780
F80F80
F80F80
F80F80
7C1F00
7E3F00
3FFE00
1FFC00
07F000
ENDCHAR
STARTCHAR 1ED7
ENCODING 7895
SWIDTH 640 0
DWIDTH 16 0
BBX 15 23 1 0
BITMAP
0E70
1F60
19E0
0080
0000
0780
0EC0
1CF0
0000
0100
1FE0
3FF8
7FF8
F87C
F83C
F03E
F03E
F03E
F83C
FCFC
7FF8
3FF0
1FE0
ENDCHAR
STARTCHAR 1ED8
ENCODING 7896
SWIDTH 760 0
DWIDTH 19 0
BBX 17 27 1 -5
BITMAP
03E000
077000
0E3800
01E000
0FF800
1FFC00
3FFE00
7C1F00
780F00
F80F80
F80F80
F80780
F00780
F00780
F80F80
F80F80
F80F80
7C1F00
7E3F00
3FFE00
1FFC00
07F000
000000
008000
03E000
03E000
03E000
ENDCHAR
STARTCHAR 1ED9
ENCODING 7897
SWIDTH 640 0
DWIDTH 16 0
BBX 15 23 1 -5
BITMAP
0780
0EC0
1CF0
0000
0100
1FE0
3FF8
7FF8
F87C
F83C
F03E
F03E
F03E
F83C
FCFC
7FF8
3FF0
1FE0
0000
0300
0780
07C0
0780
ENDCHAR
STARTCHAR 1EDA
ENCODING 7898
SWIDTH 760 0
DWIDTH 19 0
BBX 18 22 1 0
BITMAP
007800
00E1C0
0301C0
01E1C0
0FFB80
1FFF80
3FFE00
7C1F00
780F00
F80F80
F80F80
F80780
F00780
F00780
F80F80
F80F80
F80F80
7C1F00
7E3F00
3FFE00
1FFC00
07F000
ENDCHAR
STARTCHAR 1EDB
ENCODING 7899
SWIDTH 640 0
DWIDTH 16 0
BBX 15 18 1 0
BITMAP
01E0
0380
0706
000E
010E
1FFC
3FFC
7FF8
F87C
F83C
F03C
F03E
F03C
F87C
FCFC
7FF8
3FF0
1FE0
ENDCHAR
STARTCHAR 1EDC
ENCODING 7900
SWIDTH 760 0
DWIDTH 19 0
BBX 18 22 1 0
BITMAP
0F0000
03C1C0
0021C0
01E1C0
0FFB80
1FFF80
3FFE00
7C1F00
780F00
F80F80
F80F80
F80780
F00780
F00780
F80F80
F80F80
F80F80
7C1F00
7E3F00
3FFE00
1FFC00
07F000
ENDCHAR
STARTCHAR 1EDD
ENCODING 7901
SWIDTH 640 0
DWIDTH 16 0
BBX 15 18 1 0
BITMAP
1E00
0700
0386
000E
010E
1FFC
3FFC
7FF8
F87C
F83C
F03C
F03E
F03C
F87C
FCFC
7FF8
3FF0
1FE0
ENDCHAR
STARTCHAR 1EDE
ENCODING 7902
SWIDTH 760 0
DWIDTH 19 0
BBX 18 23 1 0
BITMAP
038000
03E000
0061C0
01C1C0
01E1C0
0FFB80
1FFF80
3FFE00
7C1F00
780F00
F80F80
F80F80
F80780
F00780
F00780
F80F80
F80F80
F80F80
7C1F00
7E3F00
3FFE00
1FFC00
07F000
ENDCHAR
STARTCHAR 1EDF
ENCODING 7903
SWIDTH 640 0
DWIDTH 16 0
BBX 15 19 1 0
BITMAP
0F00
03C0
01C0
0306
000E
010E
1FFC
3FFC
7FF8
F87C
F83C
F03C
F03E
F03C
F87C
FCFC
7FF8
3FF0
1FE0
ENDCHAR
STARTCHAR 1EE0
ENCODING 7904
SWIDTH 760 0
DWIDTH 19 0
BBX 18 23 1 0
BITMAP
030000
07B800
0EF1C0
0021C0
01E1C0
0FFB80
1FFF80
3FFE00
7C1F00
780F00
F80F80
F80F80
F80780
F00780
F00780
F80F80
F80F80
F80F80
7C1F00
7E3F00
3FFE00
1FFC00
07F000
ENDCHAR
STARTCHAR 1EE1
ENCODING 7905
SWIDTH 640 0
DWIDTH 16 0
BBX 15 18 1 0
BITMAP
1F60
1FE0
19C6
000E
010E
1FFC
3FFC
7FF8
F87C
F83C
F03C
F03E
F03C
F87C
FCFC
7FF8
3FF0
1FE0
ENDCHAR
STARTCHAR 1EE2
ENCODING 7906
SWIDTH 760 0
DWIDTH 19 0
BBX 18 26 1 -5
BITMAP
0001C0
0001C0
01E1C0
0FFB80
1FFF80
3FFE00
7C1F00
780F00
F80F80
F80F80
F80780
F00780
F00780
F80F80
F80F80
F80F80
7C1F00
7E3F00
3FFE00
1FFC00
07F000
000000
008000
03E000
03E000
03E000
ENDCHAR
STARTCHAR 1EE3
ENCODING 7907
SWIDTH 640 0
DWIDTH 16 0
BBX 15 21 1 -5
BITMAP
0006
000E
010E
1FFC
3FFC
7FF8
F87C
F83C
F03C
F03E
F03C
F87C
FCFC
7FF8
3FF0
1FE0
0000
0300
0780
07C0
0780
ENDCHAR
STARTCHAR 1EE4
ENCODING 7908
SWIDTH 680 0
DWIDTH 17 0
BBX 15 23 1 -5
BITMAP
F83E
F83E
F83E
F83E
F83E
F83E
F83E
F83E
F83E
F83E
F83E
F83E
F83E
783C
7C7C
7FFC
3FF8
0FE0
0000
0100
07C0
07C0
07C0
ENDCHAR
STARTCHAR 1EE5
ENCODING 7909
SWIDTH 640 0
DWIDTH 16 0
BBX 14 18 1 -5
BITMAP
F87C
F87C
F87C
F87C
F87C
F87C
F87C
F87C
F87C
7FFC
7FFC
7FFC
3F7C
0000
0300
0780
07C0
0780
ENDCHAR
STARTCHAR 1EE6
ENCODING 7910
SWIDTH 680 0
DWIDTH 17 0
BBX 15 23 1 0
BITMAP
0700
07C0
00C0
0380
0000
F83E
F83E
F83E
F83E
F83E
F83E
F83E
F83E
F83E
F83E
F83E
F83E
F83E
783C
7C7C
7FFC
3FF8
0FE0
ENDCHAR
STARTCHAR 1EE7
ENCODING 7911
SWIDTH 640 0
DWIDTH 16 0
BBX 14 19 1 0
BITMAP
0F00
03C0
01C0
0300
0000
0000
F87C
F87C
F87C
F87C
F87C
F87C
F87C
F87C
F87C
7FFC
7FFC
7FFC
3F7C
ENDCHAR
STARTCHAR 1EE8
ENCODING 7912
SWIDTH 720 0
DWIDTH 18 0
BBX 17 22 1 0
BITMAP
00F180
01C180
060380
000780
F83F00
F83E00
F83E00
F83E00
F83E00
F83E00
F83E00
F83E00
F83E00
F83E00
F83E00
F83E00
F83E00
783C00
7C7C00
7FFC00
3FF800
0FE000
ENDCHAR
STARTCHAR 1EE9
ENCODING 7913
SWIDTH 680 0
DWIDTH 17 0
BBX 16 18 1 0
BITMAP
01E0
0387
0707
0006
000E
F87E
F87C
F87C
F87C
F87C
F87C
F87C
F87C
F87C
FDFC
7FFC
7FFC
3F7C
ENDCHAR
STARTCHAR 1EEA
ENCODING 7914
SWIDTH 720 0
DWIDTH 18 0
BBX 17 22 1 0
BITMAP
1E0180
038180
004380
000780
F83F00
F83E00
F83E00
F83E00
F83E00
F83E00
F83E00
F83E00
F83E00
F83E00
F83E00
F83E00
F83E00
783C00
7C7C00
7FFC00
3FF800
0FE000
ENDCHAR
STARTCHAR 1EEB
ENCODING 7915
SWIDTH 680 0
DWIDTH 17 0
BBX 16 18 1 0
BITMAP
1E00
0707
0387
0006
000E
F87E
F87C
F87C
F87C
F87C
F87C
F87C
F87C
F87C
FDFC
7FFC
7FFC
3F7C
ENDCHAR
STARTCHAR 1EEC
ENCODING 7916
SWIDTH 720 0
DWIDTH 18 0
BBX 17 23 1 0
BITMAP
070000
07C180
00C180
038380
000780
F83F00
F83E00
F83E00
F83E00
F83E00
F83E00
F83E00
F83E00
F83E00
F83E00
F83E00
F83E00
F83E00
783C00
7C7C00
7FFC00
3FF800
0FE000
ENDCHAR
STARTCHAR 1EED
ENCODING 7917
SWIDTH 680 0
DWIDTH 17 0
BBX 16 19 1 0
BITMAP
0F00
03C0
05C7
0307
0006
000E
F87E
F87C
F87C
F87C
F87C
F87C
F87C
F87C
F87C
FDFC
7FFC
7FFC
3F7C
ENDCHAR
STARTCHAR 1EEE
ENCODING 7918
SWIDTH 720 0
DWIDTH 18 0
BBX 17 23 1 0
BITMAP
020000
0FB180
0DF180
104380
000780
F83F00
F83E00
F83E00
F83E00
F83E00
F83E00
F83E00
F83E00
F83E00
F83E00
F83E00
F83E00
F83E00
783C00
7C7C00
7FFC00
3FF800
0FE000
ENDCHAR
STARTCHAR 1EEF
ENCODING 7919
SWIDTH 680 0
DWIDTH 17 0
BBX 16 18 1 0
BITMAP
1E60
1FE7
19C7
0006
000E
F87E
F87C
F87C
F87C
F87C
F87C
F87C
F87C
F87C
FDFC
7FFC
7FFC
3F7C
ENDCHAR
STARTCHAR 1EF0
ENCODING 7920
SWIDTH 720 0
DWIDTH 18 0
BBX 17 27 1 -5
BITMAP
000180
000180
000380
000780
F83F00
F83E00
F83E00
F83E00
F83E00
F83E00
F83E00
F83E00
F83E00
F83E00
F83E00
F83E00
F83E00
783C00
7C7C00
7FFC00
3FF800
0FE000
000000
030000
078000
07C000
078000
ENDCHAR
STARTCHAR 1EF1
ENCODING 7921
SWIDTH 680 0
DWIDTH 17 0
BBX 16 22 1 -5
BITMAP
0007
0007
0006
000E
F87E
F87C
F87C
F87C
F87C
F87C
F87C
F87C
F87C
FDFC
7FFC
7FFC
3F7C
0000
0300
0780
0F80
0780
ENDCHAR
STARTCHAR 1EF2
ENCODING 7922
SWIDTH 640 0
DWIDTH 16 0
BBX 15 22 1 0
BITMAP
1E00
0700
00C0
0002
F83C
F87C
787C
7C78
3CF8
3EF0
1FF0
1FE0
0FE0
0FC0
0FC0
07C0
0780
0780
0780
0780
0780
0780
ENDCHAR
STARTCHAR 1EF3
ENCODING 7923
SWIDTH 560 0
DWIDTH 14 0
BBX 14 24 0 -6
BITMAP
1E00
0700
0380
0000
8000
787C
787C
7C78
3C78
3CF8
3CF0
1EF0
1EF0
1EE0
0FE0
0FE0
0FC0
07C0
07C0
0F80
7F80
7F00
7E00
7800
ENDCHAR
STARTCHAR 1EF4
ENCODING 7924
SWIDTH 640 0
DWIDTH 16 0
BBX 15 23 1 -5
BITMAP
F83E
F87C
787C
7C78
3CF8
3EF0
1FF0
1FE0
0FE0
0FC0
0FC0
07C0
0780
0780
0780
0780
0780
0780
0000
0100
07C0
07C0
0780
ENDCHAR
STARTCHAR 1EF5
ENCODING 7925
SWIDTH 560 0
DWIDTH 14 0
BBX 14 19 0 -6
BITMAP
F87C
787C
7C78
3C78
3CF8
3CF0
1EF0
1EF0
1EE0
0FE0
0FE0
0FC0
07C0
07C0
0F98
7FBC
7F7C
7E3C
7800
ENDCHAR
STARTCHAR 1EF6
ENCODING 7926
SWIDTH 640 0
DWIDTH 16 0
BBX 15 23 1 0
BITMAP
0F00
0FC0
00C0
0380
0002
F83C
F87C
787C
7C78
3CF8
3EF0
1FF0
1FE0
0FE0
0FC0
0FC0
07C0
0780
0780
0780
0780
0780
0780
ENDCHAR
STARTCHAR 1EF7
ENCODING 7927
SWIDTH 560 0
DWIDTH 14 0
BBX 14 25 0 -6
BITMAP
0700
03C0
01C0
0380
0000
8000
787C
787C
7C78
3C78
3CF8
3CF0
1EF0
1EF0
1EE0
0FE0
0FE0
0FC0
07C0
07C0
0F80
7F80
7F00
7E00
7800
ENDCHAR
STARTCHAR 1EF8
ENCODING 7928
SWIDTH 640 0
DWIDTH 16 0
BBX 15 23 1 0
BITMAP
0400
0F70
1DE0
00C0
0002
F83C
F87C
787C
7C78
3CF8
3EF0
1FF0
1FE0
0FE0
0FC0
0FC0
07C0
0780
0780
0780
0780
0780
0780
ENDCHAR
STARTCHAR 1EF9
ENCODING 7929
SWIDTH 560 0
DWIDTH 14 0
BBX 14 24 0 -6
BITMAP
0F70
1FE0
18C0
0000
8000
787C
787C
7C78
3C78
3CF8
3CF0
1EF0
1EF0
1EE0
0FE0
0FE0
0FC0
07C0
07C0
0F80
7F80
7F00
7E00
7800
ENDCHAR
STARTCHAR 2007
ENCODING 8199
SWIDTH 600 0
DWIDTH 15 0
BBX 0 0 0 0
BITMAP
ENDCHAR
STARTCHAR 2008
ENCODING 8200
SWIDTH 320 0
DWIDTH 8 0
BBX 0 0 0 0
BITMAP
ENDCHAR
STARTCHAR 2009
ENCODING 8201
SWIDTH 200 0
DWIDTH 5 0
BBX 0 0 0 0
BITMAP
ENDCHAR
STARTCHAR 200A
ENCODING 8202
SWIDTH 160 0
DWIDTH 4 0
BBX 0 0 0 0
BITMAP
ENDCHAR
STARTCHAR 200B
ENCODING 8203
SWIDTH 0 0
DWIDTH 0 0
BBX 0 0 0 0
BITMAP
ENDCHAR
STARTCHAR 2013
ENCODING 8211
SWIDTH 520 0
DWIDTH 13 0
BBX 10 2 1 6
BITMAP
FFC0
FFC0
ENDCHAR
STARTCHAR 2014
ENCODING 8212
SWIDTH 600 0
DWIDTH 15 0
BBX 13 2 1 6
BITMAP
FFF8
FFF8
ENDCHAR
STARTCHAR 2018
ENCODING 8216
SWIDTH 280 0
DWIDTH 7 0
BBX 5 7 1 12
BITMAP
10
60
C0
F0
F8
F8
78
ENDCHAR
STARTCHAR 2019
ENCODING 8217
SWIDTH 280 0
DWIDTH 7 0
BBX 5 8 1 11
BITMAP
70
F8
F8
F8
18
30
E0
40
ENDCHAR
STARTCHAR 201A
ENCODING 8218
SWIDTH 280 0
DWIDTH 7 0
BBX 5 8 1 -5
BITMAP
70
F8
F8
F8
18
30
E0
40
ENDCHAR
STARTCHAR 201C
ENCODING 8220
SWIDTH 480 0
DWIDTH 12 0
BBX 12 7 0 12
BITMAP
1860
30C0
4180
FBE0
FBE0
FBF0
79E0
ENDCHAR
STARTCHAR 201D
ENCODING 8221
SWIDTH 480 0
DWIDTH 12 0
BBX 12 8 0 11
BITMAP
79E0
F9E0
FFF0
79F0
0820
1860
71C0
4100
ENDCHAR
STARTCHAR 201E
ENCODING 8222
SWIDTH 480 0
DWIDTH 12 0
BBX 12 8 0 -5
BITMAP
79E0
F9E0
FFF0
79F0
0820
1860
71C0
4100
ENDCHAR
STARTCHAR 2020
ENCODING 8224
SWIDTH 600 0
DWIDTH 15 0
BBX 12 20 1 -2
BITMAP
0F00
0F00
0F00
0F00
0F00
FFF0
FFF0
0F00
0F00
0F00
0F00
0F00
0F00
0F00
0F00
0F00
0F00
0F00
0F00
0F00
ENDCHAR
STARTCHAR 2021
ENCODING 8225
SWIDTH 600 0
DWIDTH 15 0
BBX 12 20 1 -2
BITMAP
0F00
0F00
0F00
0F00
0F00
FFF0
FFF0
0F00
0F00
0F00
0F00
0F00
FFF0
FFF0
FFF0
0F00
0F00
0F00
0F00
0F00
ENDCHAR
STARTCHAR 2022
ENCODING 8226
SWIDTH 400 0
DWIDTH 10 0
BBX 6 6 2 6
BITMAP
70
F8
FC
FC
F8
70
ENDCHAR
STARTCHAR 2026
ENCODING 8230
SWIDTH 760 0
DWIDTH 19 0
BBX 16 4 2 0
BITMAP
E38E
F7DF
F7DF
F38E
ENDCHAR
STARTCHAR 2030
ENCODING 8240
SWIDTH 640 0
DWIDTH 16 0
BBX 17 19 0 0
BITMAP
100000
7C0000
E60000
C60000
C60100
7E0F80
3C3E00
01F000
0FC000
3E0000
F80000
C00000
100800
7E3E00
E66700
C66300
C66300
7E7E00
3C1C00
ENDCHAR
STARTCHAR 2039
ENCODING 8249
SWIDTH 320 0
DWIDTH 8 0
BBX 7 8 0 3
BITMAP
0E
1C
30
E0
70
38
1C
0E
ENDCHAR
STARTCHAR 203A
ENCODING 8250
SWIDTH 320 0
DWIDTH 8 0
BBX 7 8 0 3
BITMAP
F0
38
1C
0E
0E
1C
30
E0
ENDCHAR
STARTCHAR 2044
ENCODING 8260
SWIDTH 160 0
DWIDTH 4 0
BBX 17 18 -6 0
BITMAP
000780
000E00
001C00
001C00
003800
007000
00E000
00E000
01C000
038000
070000
070000
0E0000
1C0000
380000
380000
700000
E00000
ENDCHAR
STARTCHAR 2070
ENCODING 8304
SWIDTH 480 0
DWIDTH 12 0
BBX 10 12 1 7
BITMAP
0C00
3F80
7F80
F3C0
E1C0
E1C0
E1C0
E1C0
F3C0
7FC0
7F80
1E00
ENDCHAR
STARTCHAR 2074
ENCODING 8308
SWIDTH 520 0
DWIDTH 13 0
BBX 11 11 1 7
BITMAP
0F80
1F80
1F80
3B80
7B80
F380
FFE0
FFE0
FFE0
0380
0380
ENDCHAR
STARTCHAR 2075
ENCODING 8309
SWIDTH 520 0
DWIDTH 13 0
BBX 11 11 1 7
BITMAP
7FC0
7FC0
7000
F600
FFC0
FFC0
01E0
F1C0
FFC0
7FC0
1F00
ENDCHAR
STARTCHAR 2076
ENCODING 8310
SWIDTH 520 0
DWIDTH 13 0
BBX 11 12 1 7
BITMAP
0E00
3F80
7FC0
79C0
F000
FF80
FFC0
F1E0
F1E0
7FC0
3FC0
1F00
ENDCHAR
STARTCHAR 2077
ENCODING 8311
SWIDTH 440 0
DWIDTH 11 0
BBX 10 11 1 7
BITMAP
FFC0
FFC0
0780
0F00
1E00
1E00
1C00
3C00
3C00
3C00
3C00
ENDCHAR
STARTCHAR 2078
ENCODING 8312
SWIDTH 560 0
DWIDTH 14 0
BBX 11 12 1 7
BITMAP
0600
3FC0
7FE0
71E0
79E0
3F80
7FC0
F1E0
F1E0
FFE0
7FC0
1F00
ENDCHAR
STARTCHAR 2079
ENCODING 8313
SWIDTH 520 0
DWIDTH 13 0
BBX 11 12 1 7
BITMAP
0E00
7F80
FFC0
F1C0
F1E0
FFE0
7FE0
01C0
73C0
7FC0
7F80
1E00
ENDCHAR
STARTCHAR 2080
ENCODING 8320
SWIDTH 480 0
DWIDTH 12 0
BBX 10 11 1 0
BITMAP
3F00
7F80
FFC0
F1C0
E1C0
E1C0
E1C0
F1C0
FFC0
7F80
3F00
ENDCHAR
STARTCHAR 2081
ENCODING 8321
SWIDTH 400 0
DWIDTH 10 0
BBX 6 11 1 0
BITMAP
3C
FC
FC
FC
3C
3C
3C
3C
3C
3C
3C
ENDCHAR
STARTCHAR 2082
ENCODING 8322
SWIDTH 520 0
DWIDTH 13 0
BBX 11 11 1 0
BITMAP
3F80
7FC0
FBC0
E1E0
01C0
07C0
1F00
7C00
FFE0
FFE0
FFE0
ENDCHAR
STARTCHAR 2083
ENCODING 8323
SWIDTH 520 0
DWIDTH 13 0
BBX 11 11 1 0
BITMAP
3F80
7FC0
FBE0
F1E0
07C0
07C0
03C0
F1E0
FBE0
7FC0
3F80
ENDCHAR
STARTCHAR 2084
ENCODING 8324
SWIDTH 520 0
DWIDTH 13 0
BBX 11 11 1 0
BITMAP
0F80
1F80
1F80
3B80
7B80
7380
E380
FFE0
FFE0
0380
0380
ENDCHAR
STARTCHAR 2085
ENCODING 8325
SWIDTH 520 0
DWIDTH 13 0
BBX 11 11 1 0
BITMAP
7FC0
7FC0
7FC0
7000
FF80
FFC0
31C0
F1E0
FFC0
7FC0
3F80
ENDCHAR
STARTCHAR 2086
ENCODING 8326
SWIDTH 520 0
DWIDTH 13 0
BBX 11 11 1 0
BITMAP
1F80
3FC0
7BC0
7000
FF80
FFC0
FBE0
F1E0
7BE0
7FC0
3F80
ENDCHAR
STARTCHAR 2087
ENCODING 8327
SWIDTH 440 0
DWIDTH 11 0
BBX 10 11 1 0
BITMAP
FFC0
FFC0
FFC0
0F00
0E00
1E00
1C00
3C00
3C00
3C00
3C00
ENDCHAR
STARTCHAR 2088
ENCODING 8328
SWIDTH 560 0
DWIDTH 14 0
BBX 11 11 1 0
BITMAP
3F80
7FC0
79E0
71E0
7FC0
3FC0
7BE0
F0E0
F9E0
7FE0
3F80
ENDCHAR
STARTCHAR 2089
ENCODING 8329
SWIDTH 520 0
DWIDTH 13 0
BBX 11 11 1 0
BITMAP
3F00
7FC0
FBC0
F1C0
FBE0
7FE0
3DE0
01C0
7FC0
7F80
3F00
ENDCHAR
STARTCHAR 20A1
ENCODING 8353
SWIDTH 720 0
DWIDTH 18 0
BBX 17 21 0 -1
BITMAP
001980
01FB80
07FF00
0FFF00
1FFF00
3EFF00
3CCF80
7DDF80
7D9800
7FB800
7B3000
7F7000
7E6000
7EE780
7CEF80
3FCF80
3FDF00
3FFF00
3FFE00
77F800
EF0000
ENDCHAR
STARTCHAR 20A3
ENCODING 8355
SWIDTH 600 0
DWIDTH 15 0
BBX 14 18 0 0
BITMAP
3FFC
3FFC
3FFC
3E00
3E00
3E00
3E00
3FF8
3FF8
3FF8
3FF8
3E00
FFC0
FFC0
3E00
3E00
3E00
3E00
ENDCHAR
STARTCHAR 20A4
ENCODING 8356
SWIDTH 640 0
DWIDTH 16 0
BBX 14 19 1 0
BITMAP
0380
0FF0
3FF8
3FFC
7C30
7800
7800
FF80
FF80
FF80
1E00
FF80
FF80
1E00
1C00
3F88
FFF8
7FF8
3BFC
ENDCHAR
STARTCHAR 20A6
ENCODING 8358
SWIDTH 720 0
DWIDTH 18 0
BBX 19 18 0 0
BITMAP
7F8780
7F8780
7F8780
7FC780
7FC780
7FC780
7DE780
7DE780
FFFFE0
FFFFE0
7CF780
7CF780
7C7F80
7C7F80
7C7F80
7C3F80
7C3F80
7C3F80
ENDCHAR
STARTCHAR 20A7
ENCODING 8359
SWIDTH 640 0
DWIDTH 16 0
BBX 16 18 0 0
BITMAP
7FF0
7FF8
7FFC
7C7E
FFFF
FFFF
FFFF
7C3E
7C7C
7FFC
7FF8
7FF0
7C00
7C00
7C00
7C00
7C00
7C00
ENDCHAR
STARTCHAR 20A9
ENCODING 8361
SWIDTH 960 0
DWIDTH 24 0
BBX 24 18 0 0
BITMAP
7C7E1E
7C7E1E
7C7E1E
7C7F3E
3C7F3E
3CFF3E
3CFF3C
3CF73C
FFFFFF
FFFFFF
3EE7BC
1FE7BC
1FE7BC
1FE7F8
1FE3F8
1FE3F8
1FE3F8
1FC3F8
ENDCHAR
STARTCHAR 20AB
ENCODING 8363
SWIDTH 640 0
DWIDTH 16 0
BBX 15 19 1 0
BITMAP
007C
03FE
03FE
03FE
007C
007C
3FFC
7FFC
FFFC
F87C
F07C
F07C
F8FC
FFFC
7FFC
3FFC
0000
FFFC
FFFC
ENDCHAR
STARTCHAR 20AC
ENCODING 8364
SWIDTH 640 0
DWIDTH 16 0
BBX 14 19 1 0
BITMAP
0180
0FF0
1FF8
3FFC
3C30
3C00
FF80
FF80
FF80
7800
7800
FF80
FF80
7800
3C00
3E30
1FFC
0FF8
07F0
ENDCHAR
STARTCHAR 20AD
ENCODING 8365
SWIDTH 720 0
DWIDTH 18 0
BBX 17 18 0 0
BITMAP
3C1F80
3C1E00
3C3E00
3C7C00
3CF800
3CF000
3DF000
3FE000
FFFE00
FFFE00
FFFE00
3F7800
3E7C00
3C3C00
3C3E00
3C1F00
3C1F00
3C0F80
ENDCHAR
STARTCHAR 20B1
ENCODING 8369
SWIDTH 640 0
DWIDTH 16 0
BBX 16 18 0 0
BITMAP
7FF0
7FF8
7FFC
7C7E
FFFF
7C3E
FFFF
FFFF
7C7C
7FFC
7FF8
7FF0
7C00
7C00
7C00
7C00
7C00
7C00
ENDCHAR
STARTCHAR 20B2
ENCODING 8370
SWIDTH 680 0
DWIDTH 17 0
BBX 15 18 1 0
BITMAP
0100
0100
1FF0
3FF8
7FFC
793C
F93E
F900
F100
F1FE
F9FE
F9FE
7D3C
7FFC
3FF8
0FE0
0100
0100
ENDCHAR
STARTCHAR 20B5
ENCODING 8373
SWIDTH 720 0
DWIDTH 18 0
BBX 16 22 1 -2
BITMAP
0180
03C0
0FF8
1FFC
3FFE
7DBE
799F
F99F
F980
F980
F180
F180
F980
F98F
F99F
7D9F
7FBE
3FFE
1FFC
0FF0
0180
0180
ENDCHAR
STARTCHAR 20B9
ENCODING 8377
SWIDTH 560 0
DWIDTH 14 0
BBX 12 18 1 0
BITMAP
FFF0
FFF0
1FC0
07C0
FFF0
FFF0
FFF0
07C0
FF80
FF00
FE00
1F00
0F80
0780
07C0
07C0
03C0
03E0
ENDCHAR
STARTCHAR 20BA
ENCODING 8378
SWIDTH 600 0
DWIDTH 15 0
BBX 13 18 1 0
BITMAP
7C00
7C00
7C00
7C00
7C00
7D80
7F80
7E00
FC80
FF80
7F80
FC00
FC00
FC78
7CF8
7FF8
7FF0
7FE0
ENDCHAR
STARTCHAR 20BC
ENCODING 8380
SWIDTH 640 0
DWIDTH 16 0
BBX 14 20 1 0
BITMAP
0300
0300
3FE0
7FF0
7BF8
FB78
F37C
F33C
F33C
F33C
F33C
F33C
F33C
F33C
F33C
F33C
F33C
F33C
F33C
F33C
ENDCHAR
STARTCHAR 20BD
ENCODING 8381
SWIDTH 600 0
DWIDTH 15 0
BBX 15 18 0 0
BITMAP
7FF0
7FF8
7FFC
7C3C
7C3C
7C3E
7C3E
7C3C
7C7C
FFF8
FFF0
FFC0
7C00
FFC0
FFC0
7C00
7C00
7C00
ENDCHAR
STARTCHAR 2116
ENCODING 8470
SWIDTH 1240 0
DWIDTH 31 0
BBX 28 19 1 0
BITMAP
00000100
FF0F0FE0
FF0F1FE0
FF0F1CF0
FF8F3C70
FF8F3C70
FF8F3C70
FBCF1C70
FBCF1FF0
FBCF0FE0
F9EF07C0
F9EF0000
F9EF0000
F8FF1FF0
F8FF1FF0
F8FF0000
F87F0000
F87F0000
F87F0000
ENDCHAR
STARTCHAR 2122
ENCODING 8482
SWIDTH 720 0
DWIDTH 18 0
BBX 15 5 1 13
BITMAP
FFCE
31EE
31EE
31BE
31B6
ENDCHAR
STARTCHAR 215B
ENCODING 8539
SWIDTH 1080 0
DWIDTH 27 0
BBX 25 18 1 0
BITMAP
7C01E000
FC01C000
FC038000
BC070000
3C0F0000
3C0E0000
3C1C0000
3C38FE00
3C79FF00
3C73E780
3CE1C780
01C1FF00
03C0FE00
0381EF80
0703C780
0E03EF80
1E01FF00
3C00FE00
ENDCHAR
STARTCHAR 215C
ENCODING 8540
SWIDTH 1240 0
DWIDTH 31 0
BBX 29 19 1 0
BITMAP
0C000200
7FC01C00
FFC03800
F1E07000
01C07000
07C0E000
07C1C000
01E38000
F1E38FE0
FFC73FF0
7FCE3CF0
1F1C3C70
001C1FE0
00381FE0
00703CF0
00E03878
00E03CF0
01C03FF0
03801FE0
ENDCHAR
STARTCHAR 215D
ENCODING 8541
SWIDTH 1240 0
DWIDTH 31 0
BBX 28 18 1 0
BITMAP
7FC03C00
7FC03800
70007000
F600E000
FFC1E000
FFC1C000
01E38000
F1C71FC0
FFCF3FF0
7FCE3CF0
1F1C38F0
00383FE0
00781FE0
00703DF0
00E07870
01C07CF0
03C03FF0
07801FC0
ENDCHAR
STARTCHAR 215E
ENCODING 8542
SWIDTH 1160 0
DWIDTH 29 0
BBX 27 18 1 0
BITMAP
FFC07800
FFC0F000
0780E000
0F01C000
1E038000
1E078000
1C070000
3C0E3F80
3C1C7FC0
3C3CF3E0
3C38F1C0
00707FC0
00E03F80
01E0FBC0
01C0F1E0
0380FBE0
07007FC0
0F003F80
ENDCHAR
STARTCHAR 2190
ENCODING 8592
SWIDTH 680 0
DWIDTH 17 0
BBX 15 10 1 4
BITMAP
0780
0F00
1E00
3FFE
FFFE
7FFE
3FFE
1E00
0F00
0780
ENDCHAR
STARTCHAR 2191
ENCODING 8593
SWIDTH 560 0
DWIDTH 14 0
BBX 12 15 1 2
BITMAP
0200
0600
1F80
3FC0
7FE0
FFF0
FFF0
EF30
8F10
0F00
0F00
0F00
0F00
0F00
0F00
ENDCHAR
STARTCHAR 2192
ENCODING 8594
SWIDTH 680 0
DWIDTH 17 0
BBX 14 10 2 4
BITMAP
03C0
01E0
00F0
FFF8
FFFC
FFFC
FFF8
00F0
01E0
03C0
ENDCHAR
STARTCHAR 2193
ENCODING 8595
SWIDTH 560 0
DWIDTH 14 0
BBX 11 14 1 2
BITMAP
0F00
0F00
0F00
0F00
0F00
8F20
CF20
EF60
FFE0
FFE0
7FC0
1F80
0F00
0600
ENDCHAR
STARTCHAR 2194
ENCODING 8596
SWIDTH 1040 0
DWIDTH 26 0
BBX 24 10 1 4
BITMAP
0781E0
0F00F0
1E0078
3FFFFC
FFFFFF
7FFFFE
3FFFFC
1E0078
0F00F0
0781E0
ENDCHAR
STARTCHAR 2195
ENCODING 8597
SWIDTH 600 0
DWIDTH 15 0
BBX 11 20 2 -1
BITMAP
0400
0E00
1F00
3F80
7FE0
FFE0
EFE0
CF60
8F20
0F00
0F00
0F00
8F20
EF60
FFE0
FFE0
7FC0
1F80
0F00
0400
ENDCHAR
STARTCHAR 2196
ENCODING 8598
SWIDTH 640 0
DWIDTH 16 0
BBX 13 11 2 3
BITMAP
FF80
FFC0
FC20
FE00
FF00
FFC0
E7E0
63F0
21F8
10F0
0060
ENDCHAR
STARTCHAR 2197
ENCODING 8599
SWIDTH 640 0
DWIDTH 16 0
BBX 12 11 2 3
BITMAP
0FF0
1FF0
23F0
07F0
0FF0
1FF0
3F70
7E60
FC40
7840
2000
ENDCHAR
STARTCHAR 2198
ENCODING 8600
SWIDTH 640 0
DWIDTH 16 0
BBX 12 12 2 3
BITMAP
2000
7000
F840
FC60
7E70
3F70
0FF0
07F0
03F0
3FF0
1FF0
0FF0
ENDCHAR
STARTCHAR 2199
ENCODING 8601
SWIDTH 640 0
DWIDTH 16 0
BBX 12 12 2 4
BITMAP
0040
00C0
21E0
43F0
CFE0
DF80
FF00
FE00
FC00
FFC0
FF80
FF00
ENDCHAR
STARTCHAR 2212
ENCODING 8722
SWIDTH 640 0
DWIDTH 16 0
BBX 9 3 4 5
BITMAP
FF80
FF80
FF80
ENDCHAR
STARTCHAR 2215
ENCODING 8725
SWIDTH 640 0
DWIDTH 16 0
BBX 9 18 4 0
BITMAP
0780
0700
0F00
0F00
0E00
1E00
1E00
1C00
1C00
3C00
3800
3800
7800
7800
7000
F000
F000
E000
ENDCHAR
STARTCHAR 2219
ENCODING 8729
SWIDTH 640 0
DWIDTH 16 0
BBX 6 6 5 6
BITMAP
38
7C
FC
FC
7C
38
ENDCHAR
STARTCHAR 2248
ENCODING 8776
SWIDTH 640 0
DWIDTH 16 0
BBX 9 8 4 3
BITMAP
7B80
FF00
CE00
0000
0080
7B00
FF00
C600
ENDCHAR
STARTCHAR 2260
ENCODING 8800
SWIDTH 640 0
DWIDTH 16 0
BBX 10 11 3 1
BITMAP
03C0
0380
FFC0
FFC0
0E00
0E00
FFC0
FFC0
FFC0
3800
7000
ENDCHAR
STARTCHAR 2264
ENCODING 8804
SWIDTH 640 0
DWIDTH 16 0
BBX 9 10 4 2
BITMAP
0380
1F80
FE00
E000
FC00
1F80
0380
0080
FF80
FF80
ENDCHAR
STARTCHAR 2265
ENCODING 8805
SWIDTH 640 0
DWIDTH 16 0
BBX 9 10 4 2
BITMAP
E000
FC00
3F80
0780
3F80
FC00
E000
8000
FF80
FF80
ENDCHAR
STARTCHAR 25CA
ENCODING 9674
SWIDTH 720 0
DWIDTH 18 0
BBX 16 20 1 -1
BITMAP
07E0
0FE0
0FF0
1FF0
1E78
3E78
3C3C
7C3C
781E
F81E
F01F
781E
783E
3C3C
3C7C
1E78
1EF8
0FF0
0FE0
07E0
ENDCHAR
STARTCHAR FB01
ENCODING 64257
SWIDTH 720 0
DWIDTH 18 0
BBX 17 20 0 0
BITMAP
01E000
07E780
0FEF80
1FEF80
1F0700
1E0000
1E0000
FFEF80
FFEF80
FFEF80
1E0F80
1E0F80
1E0F80
1E0F80
1E0F80
1E0F80
1E0F80
1E0F80
1E0F80
1E0F80
ENDCHAR
STARTCHAR FB02
ENCODING 64258
SWIDTH 760 0
DWIDTH 19 0
BBX 17 20 0 0
BITMAP
01E780
07E780
0FE780
1FE780
1F0780
1E0780
1E0780
FFE780
FFE780
FFE780
1E0780
1E0780
1E0780
1E0780
1E0780
1E0780
1E0780
1E0780
1E0780
1E0780
ENDCHAR
ENDFONT
